<?xml version="1.0" encoding="utf-8" standalone="no"?>
<!DOCTYPE svg PUBLIC "-//W3C//DTD SVG 1.1//EN"
  "http://www.w3.org/Graphics/SVG/1.1/DTD/svg11.dtd">
<svg xmlns:xlink="http://www.w3.org/1999/xlink" width="360pt" height="360pt" viewBox="0 0 360 360" xmlns="http://www.w3.org/2000/svg" version="1.1">
 <metadata>
  <rdf:RDF xmlns:dc="http://purl.org/dc/elements/1.1/" xmlns:cc="http://creativecommons.org/ns#" xmlns:rdf="http://www.w3.org/1999/02/22-rdf-syntax-ns#">
   <cc:Work>
    <dc:type rdf:resource="http://purl.org/dc/dcmitype/StillImage"/>
    <dc:date>2024-09-18T11:43:06.313300</dc:date>
    <dc:format>image/svg+xml</dc:format>
    <dc:creator>
     <cc:Agent>
      <dc:title>Matplotlib v3.5.2, https://matplotlib.org/</dc:title>
     </cc:Agent>
    </dc:creator>
   </cc:Work>
  </rdf:RDF>
 </metadata>
 <defs>
  <style type="text/css">*{stroke-linejoin: round; stroke-linecap: butt}</style>
 </defs>
 <g id="figure_1">
  <g id="patch_1">
   <path d="M 0 360 
L 360 360 
L 360 0 
L 0 0 
z
" style="fill: #ffffff"/>
  </g>
  <g id="axes_1">
   <g id="patch_2">
    <path d="M 45 315 
L 324 315 
L 324 43.2 
L 45 43.2 
z
" style="fill: #ffffff"/>
   </g>
   <g id="line2d_1">
    <path d="M 114.75 164.655848 
L 254.25 285.440348 
" clip-path="url(#p6a45feeb1a)" style="fill: none; stroke: #1f77b4; stroke-width: 4; stroke-linecap: square"/>
   </g>
   <g id="line2d_2">
    <path d="M 114.75 57.763309 
L 254.25 168.608372 
" clip-path="url(#p6a45feeb1a)" style="fill: none; stroke: #ff7f0e; stroke-width: 4; stroke-linecap: square"/>
   </g>
   <g id="line2d_3">
    <path d="M 114.75 177.385302 
L 254.25 293.92665 
" clip-path="url(#p6a45feeb1a)" style="fill: none; stroke: #2ca02c; stroke-width: 4; stroke-linecap: square"/>
   </g>
   <g id="PathCollection_1">
    <defs>
     <path id="m758a76b9e8" d="M 0 11.18034 
C 2.965061 11.18034 5.80908 10.002309 7.905694 7.905694 
C 10.002309 5.80908 11.18034 2.965061 11.18034 0 
C 11.18034 -2.965061 10.002309 -5.80908 7.905694 -7.905694 
C 5.80908 -10.002309 2.965061 -11.18034 0 -11.18034 
C -2.965061 -11.18034 -5.80908 -10.002309 -7.905694 -7.905694 
C -10.002309 -5.80908 -11.18034 -2.965061 -11.18034 0 
C -11.18034 2.965061 -10.002309 5.80908 -7.905694 7.905694 
C -5.80908 10.002309 -2.965061 11.18034 0 11.18034 
z
" style="stroke: #000000"/>
    </defs>
    <g clip-path="url(#p6a45feeb1a)">
     <use xlink:href="#m758a76b9e8" x="114.75" y="164.655848" style="fill: #1f77b4; stroke: #000000"/>
     <use xlink:href="#m758a76b9e8" x="254.25" y="285.440348" style="fill: #1f77b4; stroke: #000000"/>
    </g>
   </g>
   <g id="PathCollection_2">
    <defs>
     <path id="maae5458c7e" d="M 0 11.18034 
C 2.965061 11.18034 5.80908 10.002309 7.905694 7.905694 
C 10.002309 5.80908 11.18034 2.965061 11.18034 0 
C 11.18034 -2.965061 10.002309 -5.80908 7.905694 -7.905694 
C 5.80908 -10.002309 2.965061 -11.18034 0 -11.18034 
C -2.965061 -11.18034 -5.80908 -10.002309 -7.905694 -7.905694 
C -10.002309 -5.80908 -11.18034 -2.965061 -11.18034 0 
C -11.18034 2.965061 -10.002309 5.80908 -7.905694 7.905694 
C -5.80908 10.002309 -2.965061 11.18034 0 11.18034 
z
" style="stroke: #000000"/>
    </defs>
    <g clip-path="url(#p6a45feeb1a)">
     <use xlink:href="#maae5458c7e" x="114.75" y="57.763309" style="fill: #ff7f0e; stroke: #000000"/>
     <use xlink:href="#maae5458c7e" x="254.25" y="168.608372" style="fill: #ff7f0e; stroke: #000000"/>
    </g>
   </g>
   <g id="PathCollection_3">
    <defs>
     <path id="m2e367f4fde" d="M 0 11.18034 
C 2.965061 11.18034 5.80908 10.002309 7.905694 7.905694 
C 10.002309 5.80908 11.18034 2.965061 11.18034 0 
C 11.18034 -2.965061 10.002309 -5.80908 7.905694 -7.905694 
C 5.80908 -10.002309 2.965061 -11.18034 0 -11.18034 
C -2.965061 -11.18034 -5.80908 -10.002309 -7.905694 -7.905694 
C -10.002309 -5.80908 -11.18034 -2.965061 -11.18034 0 
C -11.18034 2.965061 -10.002309 5.80908 -7.905694 7.905694 
C -5.80908 10.002309 -2.965061 11.18034 0 11.18034 
z
" style="stroke: #000000"/>
    </defs>
    <g clip-path="url(#p6a45feeb1a)">
     <use xlink:href="#m2e367f4fde" x="114.75" y="177.385302" style="fill: #2ca02c; stroke: #000000"/>
     <use xlink:href="#m2e367f4fde" x="254.25" y="293.92665" style="fill: #2ca02c; stroke: #000000"/>
    </g>
   </g>
   <g id="PathCollection_4">
    <defs>
     <path id="m847344997e" d="M 0 5 
C 1.326016 5 2.597899 4.473168 3.535534 3.535534 
C 4.473168 2.597899 5 1.326016 5 0 
C 5 -1.326016 4.473168 -2.597899 3.535534 -3.535534 
C 2.597899 -4.473168 1.326016 -5 0 -5 
C -1.326016 -5 -2.597899 -4.473168 -3.535534 -3.535534 
C -4.473168 -2.597899 -5 -1.326016 -5 0 
C -5 1.326016 -4.473168 2.597899 -3.535534 3.535534 
C -2.597899 4.473168 -1.326016 5 0 5 
z
" style="stroke: #000000; stroke-opacity: 0.7"/>
    </defs>
    <g clip-path="url(#p6a45feeb1a)">
     <use xlink:href="#m847344997e" x="118.485298" y="58.344563" style="fill: #ffffff; fill-opacity: 0.7; stroke: #000000; stroke-opacity: 0.7"/>
     <use xlink:href="#m847344997e" x="115.206017" y="59.390819" style="fill: #ffffff; fill-opacity: 0.7; stroke: #000000; stroke-opacity: 0.7"/>
     <use xlink:href="#m847344997e" x="113.734972" y="55.554545" style="fill: #ffffff; fill-opacity: 0.7; stroke: #000000; stroke-opacity: 0.7"/>
     <use xlink:href="#m847344997e" x="114.796689" y="169.073375" style="fill: #ffffff; fill-opacity: 0.7; stroke: #000000; stroke-opacity: 0.7"/>
     <use xlink:href="#m847344997e" x="113.890328" y="166.806486" style="fill: #ffffff; fill-opacity: 0.7; stroke: #000000; stroke-opacity: 0.7"/>
     <use xlink:href="#m847344997e" x="115.648838" y="158.087682" style="fill: #ffffff; fill-opacity: 0.7; stroke: #000000; stroke-opacity: 0.7"/>
     <use xlink:href="#m847344997e" x="114.872418" y="176.571547" style="fill: #ffffff; fill-opacity: 0.7; stroke: #000000; stroke-opacity: 0.7"/>
     <use xlink:href="#m847344997e" x="117.645153" y="174.304658" style="fill: #ffffff; fill-opacity: 0.7; stroke: #000000; stroke-opacity: 0.7"/>
     <use xlink:href="#m847344997e" x="115.663227" y="181.279701" style="fill: #ffffff; fill-opacity: 0.7; stroke: #000000; stroke-opacity: 0.7"/>
    </g>
   </g>
   <g id="PathCollection_5">
    <g clip-path="url(#p6a45feeb1a)">
     <use xlink:href="#m847344997e" x="255.379429" y="178.140931" style="fill: #ffffff; fill-opacity: 0.7; stroke: #000000; stroke-opacity: 0.7"/>
     <use xlink:href="#m847344997e" x="252.833196" y="181.977206" style="fill: #ffffff; fill-opacity: 0.7; stroke: #000000; stroke-opacity: 0.7"/>
     <use xlink:href="#m847344997e" x="256.053494" y="145.70698" style="fill: #ffffff; fill-opacity: 0.7; stroke: #000000; stroke-opacity: 0.7"/>
     <use xlink:href="#m847344997e" x="252.20717" y="302.645455" style="fill: #ffffff; fill-opacity: 0.7; stroke: #000000; stroke-opacity: 0.7"/>
     <use xlink:href="#m847344997e" x="254.937283" y="287.300359" style="fill: #ffffff; fill-opacity: 0.7; stroke: #000000; stroke-opacity: 0.7"/>
     <use xlink:href="#m847344997e" x="252.924339" y="266.375229" style="fill: #ffffff; fill-opacity: 0.7; stroke: #000000; stroke-opacity: 0.7"/>
     <use xlink:href="#m847344997e" x="254.275544" y="287.300359" style="fill: #ffffff; fill-opacity: 0.7; stroke: #000000; stroke-opacity: 0.7"/>
     <use xlink:href="#m847344997e" x="253.707301" y="294.972907" style="fill: #ffffff; fill-opacity: 0.7; stroke: #000000; stroke-opacity: 0.7"/>
     <use xlink:href="#m847344997e" x="253.225871" y="299.506685" style="fill: #ffffff; fill-opacity: 0.7; stroke: #000000; stroke-opacity: 0.7"/>
    </g>
   </g>
   <g id="matplotlib.axis_1">
    <g id="xtick_1">
     <g id="line2d_4">
      <defs>
       <path id="ma58fcdd113" d="M 0 0 
L 0 10 
" style="stroke: #000000; stroke-width: 3"/>
      </defs>
      <g>
       <use xlink:href="#ma58fcdd113" x="114.75" y="315" style="stroke: #000000; stroke-width: 3"/>
      </g>
     </g>
     <g id="text_1">
      <text style="font: 20px 'sans-serif'; text-anchor: middle" x="114.75" y="343.696875" transform="rotate(-0, 114.75, 343.696875)">total</text>
     </g>
    </g>
    <g id="xtick_2">
     <g id="line2d_5">
      <g>
       <use xlink:href="#ma58fcdd113" x="254.25" y="315" style="stroke: #000000; stroke-width: 3"/>
      </g>
     </g>
     <g id="text_2">
      <text style="font: 20px 'sans-serif'; text-anchor: middle" x="254.25" y="343.696875" transform="rotate(-0, 254.25, 343.696875)">supernatant</text>
     </g>
    </g>
   </g>
   <g id="matplotlib.axis_2">
    <g id="ytick_1">
     <g id="line2d_6">
      <defs>
       <path id="mf3a0585e97" d="M 0 0 
L -10 0 
" style="stroke: #000000; stroke-width: 3"/>
      </defs>
      <g>
       <use xlink:href="#mf3a0585e97" x="45" y="300.901694" style="stroke: #000000; stroke-width: 3"/>
      </g>
     </g>
     <g id="text_3">
      <text style="font: 20px 'sans-serif'; text-anchor: end" x="31.5" y="308.500131" transform="rotate(-0, 31.5, 308.500131)">800</text>
     </g>
    </g>
    <g id="ytick_2">
     <g id="line2d_7">
      <g>
       <use xlink:href="#mf3a0585e97" x="45" y="248.588869" style="stroke: #000000; stroke-width: 3"/>
      </g>
     </g>
     <g id="text_4">
      <text style="font: 20px 'sans-serif'; text-anchor: end" x="31.5" y="256.187306" transform="rotate(-0, 31.5, 256.187306)">900</text>
     </g>
    </g>
    <g id="ytick_3">
     <g id="line2d_8">
      <g>
       <use xlink:href="#mf3a0585e97" x="45" y="196.276044" style="stroke: #000000; stroke-width: 3"/>
      </g>
     </g>
     <g id="text_5">
      <text style="font: 20px 'sans-serif'; text-anchor: end" x="31.5" y="203.874482" transform="rotate(-0, 31.5, 203.874482)">1000</text>
     </g>
    </g>
    <g id="ytick_4">
     <g id="line2d_9">
      <g>
       <use xlink:href="#mf3a0585e97" x="45" y="143.963219" style="stroke: #000000; stroke-width: 3"/>
      </g>
     </g>
     <g id="text_6">
      <text style="font: 20px 'sans-serif'; text-anchor: end" x="31.5" y="151.561657" transform="rotate(-0, 31.5, 151.561657)">1100</text>
     </g>
    </g>
    <g id="ytick_5">
     <g id="line2d_10">
      <g>
       <use xlink:href="#mf3a0585e97" x="45" y="91.650395" style="stroke: #000000; stroke-width: 3"/>
      </g>
     </g>
     <g id="text_7">
      <text style="font: 20px 'sans-serif'; text-anchor: end" x="31.5" y="99.248832" transform="rotate(-0, 31.5, 99.248832)">1200</text>
     </g>
    </g>
    <g id="text_8">
     <!-- $\Pi$ (mOsm) -->
     <g transform="translate(-27.559375 230.2)rotate(-90)">
      <text>
       <tspan style="font: 20px 'DejaVu Sans'" x="0 15.039062 21.396484 29.199219 48.681641 64.423828 74.84375 94.326172" y="-0.828125">Π (mOsm)</tspan>
      </text>
     </g>
    </g>
   </g>
   <g id="patch_3">
    <path d="M 45 315 
L 45 43.2 
" style="fill: none; stroke: #000000; stroke-width: 3; stroke-linejoin: miter; stroke-linecap: square"/>
   </g>
   <g id="patch_4">
    <path d="M 324 315 
L 324 43.2 
" style="fill: none; stroke: #000000; stroke-width: 3; stroke-linejoin: miter; stroke-linecap: square"/>
   </g>
   <g id="patch_5">
    <path d="M 45 315 
L 324 315 
" style="fill: none; stroke: #000000; stroke-width: 3; stroke-linejoin: miter; stroke-linecap: square"/>
   </g>
   <g id="patch_6">
    <path d="M 45 43.2 
L 324 43.2 
" style="fill: none; stroke: #000000; stroke-width: 3; stroke-linejoin: miter; stroke-linecap: square"/>
   </g>
  </g>
 </g>
 <defs>
  <clipPath id="p6a45feeb1a">
   <rect x="45" y="43.2" width="279" height="271.8"/>
  </clipPath>
 </defs>
</svg>
