<?xml version="1.0" encoding="utf-8" standalone="no"?>
<!DOCTYPE svg PUBLIC "-//W3C//DTD SVG 1.1//EN"
  "http://www.w3.org/Graphics/SVG/1.1/DTD/svg11.dtd">
<svg xmlns:xlink="http://www.w3.org/1999/xlink" width="720pt" height="360pt" viewBox="0 0 720 360" xmlns="http://www.w3.org/2000/svg" version="1.1">
 <metadata>
  <rdf:RDF xmlns:dc="http://purl.org/dc/elements/1.1/" xmlns:cc="http://creativecommons.org/ns#" xmlns:rdf="http://www.w3.org/1999/02/22-rdf-syntax-ns#">
   <cc:Work>
    <dc:type rdf:resource="http://purl.org/dc/dcmitype/StillImage"/>
    <dc:date>2024-10-10T09:27:24.444016</dc:date>
    <dc:format>image/svg+xml</dc:format>
    <dc:creator>
     <cc:Agent>
      <dc:title>Matplotlib v3.5.2, https://matplotlib.org/</dc:title>
     </cc:Agent>
    </dc:creator>
   </cc:Work>
  </rdf:RDF>
 </metadata>
 <defs>
  <style type="text/css">*{stroke-linejoin: round; stroke-linecap: butt}</style>
 </defs>
 <g id="figure_1">
  <g id="patch_1">
   <path d="M 0 360 
L 720 360 
L 720 0 
L 0 0 
z
" style="fill: #ffffff"/>
  </g>
  <g id="axes_1">
   <g id="patch_2">
    <path d="M 90 315 
L 648 315 
L 648 43.2 
L 90 43.2 
z
" style="fill: #ffffff"/>
   </g>
   <g id="PathCollection_1">
    <defs>
     <path id="mff24e7d2b7" d="M 0 6.123724 
C 1.624031 6.123724 3.181764 5.47849 4.330127 4.330127 
C 5.47849 3.181764 6.123724 1.624031 6.123724 0 
C 6.123724 -1.624031 5.47849 -3.181764 4.330127 -4.330127 
C 3.181764 -5.47849 1.624031 -6.123724 0 -6.123724 
C -1.624031 -6.123724 -3.181764 -5.47849 -4.330127 -4.330127 
C -5.47849 -3.181764 -6.123724 -1.624031 -6.123724 0 
C -6.123724 1.624031 -5.47849 3.181764 -4.330127 4.330127 
C -3.181764 5.47849 -1.624031 6.123724 0 6.123724 
z
" style="stroke: #000000"/>
    </defs>
    <g clip-path="url(#pe33c10a035)">
     <use xlink:href="#mff24e7d2b7" x="507.866456" y="82.120389" style="fill: #808080; stroke: #000000"/>
     <use xlink:href="#mff24e7d2b7" x="468.110466" y="200.228164" style="fill: #808080; stroke: #000000"/>
     <use xlink:href="#mff24e7d2b7" x="467.378292" y="254.560907" style="fill: #808080; stroke: #000000"/>
     <use xlink:href="#mff24e7d2b7" x="450.585073" y="273.286148" style="fill: #808080; stroke: #000000"/>
     <use xlink:href="#mff24e7d2b7" x="434.356784" y="280.330139" style="fill: #808080; stroke: #000000"/>
     <use xlink:href="#mff24e7d2b7" x="434.035856" y="258.258881" style="fill: #808080; stroke: #000000"/>
     <use xlink:href="#mff24e7d2b7" x="421.929699" y="297.898161" style="fill: #808080; stroke: #000000"/>
     <use xlink:href="#mff24e7d2b7" x="421.69534" y="288.418128" style="fill: #808080; stroke: #000000"/>
     <use xlink:href="#mff24e7d2b7" x="420.710749" y="258.216333" style="fill: #808080; stroke: #000000"/>
     <use xlink:href="#mff24e7d2b7" x="419.829138" y="215.646087" style="fill: #808080; stroke: #000000"/>
     <use xlink:href="#mff24e7d2b7" x="414.648309" y="295.070483" style="fill: #808080; stroke: #000000"/>
     <use xlink:href="#mff24e7d2b7" x="393.137942" y="287.258865" style="fill: #808080; stroke: #000000"/>
     <use xlink:href="#mff24e7d2b7" x="377.312613" y="311.79575" style="fill: #808080; stroke: #000000"/>
     <use xlink:href="#mff24e7d2b7" x="376.723585" y="310.525977" style="fill: #808080; stroke: #000000"/>
     <use xlink:href="#mff24e7d2b7" x="367.528187" y="314.632061" style="fill: #808080; stroke: #000000"/>
     <use xlink:href="#mff24e7d2b7" x="361.364777" y="312.990522" style="fill: #808080; stroke: #000000"/>
     <use xlink:href="#mff24e7d2b7" x="350.734968" y="310.095993" style="fill: #808080; stroke: #000000"/>
     <use xlink:href="#mff24e7d2b7" x="350.12923" y="310.989992" style="fill: #808080; stroke: #000000"/>
     <use xlink:href="#mff24e7d2b7" x="345.671324" y="309.839354" style="fill: #808080; stroke: #000000"/>
     <use xlink:href="#mff24e7d2b7" x="334.960856" y="308.399708" style="fill: #808080; stroke: #000000"/>
     <use xlink:href="#mff24e7d2b7" x="333.704959" y="305.77918" style="fill: #808080; stroke: #000000"/>
     <use xlink:href="#mff24e7d2b7" x="326.373991" y="302.405036" style="fill: #808080; stroke: #000000"/>
     <use xlink:href="#mff24e7d2b7" x="317.624435" y="303.71316" style="fill: #808080; stroke: #000000"/>
     <use xlink:href="#mff24e7d2b7" x="268.339887" y="169.755902" style="fill: #808080; stroke: #000000"/>
     <use xlink:href="#mff24e7d2b7" x="261.038506" y="292.636087" style="fill: #808080; stroke: #000000"/>
     <use xlink:href="#mff24e7d2b7" x="247.721405" y="288.067562" style="fill: #808080; stroke: #000000"/>
     <use xlink:href="#mff24e7d2b7" x="219.483169" y="189.822243" style="fill: #808080; stroke: #000000"/>
     <use xlink:href="#mff24e7d2b7" x="197.977819" y="266.01272" style="fill: #808080; stroke: #000000"/>
     <use xlink:href="#mff24e7d2b7" x="175.844816" y="253.133504" style="fill: #808080; stroke: #000000"/>
     <use xlink:href="#mff24e7d2b7" x="174.613884" y="200.449641" style="fill: #808080; stroke: #000000"/>
     <use xlink:href="#mff24e7d2b7" x="164.583277" y="275.992479" style="fill: #808080; stroke: #000000"/>
     <use xlink:href="#mff24e7d2b7" x="56.540428" y="217.023778" style="fill: #808080; stroke: #000000"/>
    </g>
   </g>
   <g id="PathCollection_2">
    <defs>
     <path id="m4392cab7bf" d="M 0 6.123724 
C 1.624031 6.123724 3.181764 5.47849 4.330127 4.330127 
C 5.47849 3.181764 6.123724 1.624031 6.123724 0 
C 6.123724 -1.624031 5.47849 -3.181764 4.330127 -4.330127 
C 3.181764 -5.47849 1.624031 -6.123724 0 -6.123724 
C -1.624031 -6.123724 -3.181764 -5.47849 -4.330127 -4.330127 
C -5.47849 -3.181764 -6.123724 -1.624031 -6.123724 0 
C -6.123724 1.624031 -5.47849 3.181764 -4.330127 4.330127 
C -3.181764 5.47849 -1.624031 6.123724 0 6.123724 
z
" style="stroke: #000000"/>
    </defs>
    <g clip-path="url(#pe33c10a035)">
     <use xlink:href="#m4392cab7bf" x="507.866456" y="82.120389" style="fill: #ff0000; stroke: #000000"/>
     <use xlink:href="#m4392cab7bf" x="468.110466" y="200.228164" style="fill: #ff0000; stroke: #000000"/>
     <use xlink:href="#m4392cab7bf" x="467.378292" y="254.560907" style="fill: #ff0000; stroke: #000000"/>
    </g>
   </g>
   <g id="PathCollection_3">
    <defs>
     <path id="m84979b0f76" d="M 0 6.123724 
C 1.624031 6.123724 3.181764 5.47849 4.330127 4.330127 
C 5.47849 3.181764 6.123724 1.624031 6.123724 0 
C 6.123724 -1.624031 5.47849 -3.181764 4.330127 -4.330127 
C 3.181764 -5.47849 1.624031 -6.123724 0 -6.123724 
C -1.624031 -6.123724 -3.181764 -5.47849 -4.330127 -4.330127 
C -5.47849 -3.181764 -6.123724 -1.624031 -6.123724 0 
C -6.123724 1.624031 -5.47849 3.181764 -4.330127 4.330127 
C -3.181764 5.47849 -1.624031 6.123724 0 6.123724 
z
" style="stroke: #000000"/>
    </defs>
    <g clip-path="url(#pe33c10a035)">
     <use xlink:href="#m84979b0f76" x="268.339887" y="169.755902" style="fill: #0000ff; stroke: #000000"/>
     <use xlink:href="#m84979b0f76" x="219.483169" y="189.822243" style="fill: #0000ff; stroke: #000000"/>
     <use xlink:href="#m84979b0f76" x="197.977819" y="266.01272" style="fill: #0000ff; stroke: #000000"/>
     <use xlink:href="#m84979b0f76" x="175.844816" y="253.133504" style="fill: #0000ff; stroke: #000000"/>
     <use xlink:href="#m84979b0f76" x="174.613884" y="200.449641" style="fill: #0000ff; stroke: #000000"/>
     <use xlink:href="#m84979b0f76" x="56.540428" y="217.023778" style="fill: #0000ff; stroke: #000000"/>
    </g>
   </g>
   <g id="matplotlib.axis_1">
    <g id="xtick_1">
     <g id="line2d_1">
      <defs>
       <path id="m0d04c2d646" d="M 0 0 
L 0 10 
" style="stroke: #000000; stroke-width: 3"/>
      </defs>
      <g>
       <use xlink:href="#m0d04c2d646" x="90" y="315" style="stroke: #000000; stroke-width: 3"/>
      </g>
     </g>
     <g id="text_1">
      <text style="font: 20px 'sans-serif'; text-anchor: middle" x="90" y="343.696875" transform="rotate(-0, 90, 343.696875)">−3</text>
     </g>
    </g>
    <g id="xtick_2">
     <g id="line2d_2">
      <g>
       <use xlink:href="#m0d04c2d646" x="183" y="315" style="stroke: #000000; stroke-width: 3"/>
      </g>
     </g>
     <g id="text_2">
      <text style="font: 20px 'sans-serif'; text-anchor: middle" x="183" y="343.696875" transform="rotate(-0, 183, 343.696875)">−2</text>
     </g>
    </g>
    <g id="xtick_3">
     <g id="line2d_3">
      <g>
       <use xlink:href="#m0d04c2d646" x="276" y="315" style="stroke: #000000; stroke-width: 3"/>
      </g>
     </g>
     <g id="text_3">
      <text style="font: 20px 'sans-serif'; text-anchor: middle" x="276" y="343.696875" transform="rotate(-0, 276, 343.696875)">−1</text>
     </g>
    </g>
    <g id="xtick_4">
     <g id="line2d_4">
      <g>
       <use xlink:href="#m0d04c2d646" x="369" y="315" style="stroke: #000000; stroke-width: 3"/>
      </g>
     </g>
     <g id="text_4">
      <text style="font: 20px 'sans-serif'; text-anchor: middle" x="369" y="343.696875" transform="rotate(-0, 369, 343.696875)">0</text>
     </g>
    </g>
    <g id="xtick_5">
     <g id="line2d_5">
      <g>
       <use xlink:href="#m0d04c2d646" x="462" y="315" style="stroke: #000000; stroke-width: 3"/>
      </g>
     </g>
     <g id="text_5">
      <text style="font: 20px 'sans-serif'; text-anchor: middle" x="462" y="343.696875" transform="rotate(-0, 462, 343.696875)">1</text>
     </g>
    </g>
    <g id="xtick_6">
     <g id="line2d_6">
      <g>
       <use xlink:href="#m0d04c2d646" x="555" y="315" style="stroke: #000000; stroke-width: 3"/>
      </g>
     </g>
     <g id="text_6">
      <text style="font: 20px 'sans-serif'; text-anchor: middle" x="555" y="343.696875" transform="rotate(-0, 555, 343.696875)">2</text>
     </g>
    </g>
    <g id="xtick_7">
     <g id="line2d_7">
      <g>
       <use xlink:href="#m0d04c2d646" x="648" y="315" style="stroke: #000000; stroke-width: 3"/>
      </g>
     </g>
     <g id="text_7">
      <text style="font: 20px 'sans-serif'; text-anchor: middle" x="648" y="343.696875" transform="rotate(-0, 648, 343.696875)">3</text>
     </g>
    </g>
    <g id="text_8">
     <!-- $log_2(FC)$ (observed/expected perturbed peptides) -->
     <g transform="translate(121.8 367.05625)">
      <text>
       <tspan style="font: oblique 20px 'DejaVu Sans'" x="0 5.556641 17.792969 47.745117 59.249023" y="-0.796875">logFC</tspan>
       <tspan style="font: 14px 'DejaVu Sans'" x="30.488281" y="2.484375">2</tspan>
       <tspan style="font: 20px 'DejaVu Sans'" x="39.942383 73.213867 81.016602 87.374023 95.176758 107.413086 120.108398 130.52832 142.833008 151.055664 162.891602 175.196289 187.891602 194.629883 206.93457 218.770508 231.46582 243.770508 254.766602 262.608398 274.913086 287.608398 293.96582 306.661133 318.96582 327.188477 335.030273 347.706055 355.928711 368.624023 380.928711 393.624023 399.981445 412.676758 424.981445 437.676758 445.518555 451.075195 463.770508 476.075195 486.495117" y="-0.796875">() (observed/expected perturbed peptides)</tspan>
      </text>
     </g>
    </g>
   </g>
   <g id="matplotlib.axis_2">
    <g id="ytick_1">
     <g id="line2d_8">
      <defs>
       <path id="m9168d6f014" d="M 0 0 
L -10 0 
" style="stroke: #000000; stroke-width: 3"/>
      </defs>
      <g>
       <use xlink:href="#m9168d6f014" x="90" y="315" style="stroke: #000000; stroke-width: 3"/>
      </g>
     </g>
     <g id="text_9">
      <text style="font: 20px 'sans-serif'; text-anchor: end" x="76.5" y="322.598437" transform="rotate(-0, 76.5, 322.598437)">0.0</text>
     </g>
    </g>
    <g id="ytick_2">
     <g id="line2d_9">
      <g>
       <use xlink:href="#m9168d6f014" x="90" y="262.730769" style="stroke: #000000; stroke-width: 3"/>
      </g>
     </g>
     <g id="text_10">
      <text style="font: 20px 'sans-serif'; text-anchor: end" x="76.5" y="270.329207" transform="rotate(-0, 76.5, 270.329207)">2.5</text>
     </g>
    </g>
    <g id="ytick_3">
     <g id="line2d_10">
      <g>
       <use xlink:href="#m9168d6f014" x="90" y="210.461538" style="stroke: #000000; stroke-width: 3"/>
      </g>
     </g>
     <g id="text_11">
      <text style="font: 20px 'sans-serif'; text-anchor: end" x="76.5" y="218.059976" transform="rotate(-0, 76.5, 218.059976)">5.0</text>
     </g>
    </g>
    <g id="ytick_4">
     <g id="line2d_11">
      <g>
       <use xlink:href="#m9168d6f014" x="90" y="158.192308" style="stroke: #000000; stroke-width: 3"/>
      </g>
     </g>
     <g id="text_12">
      <text style="font: 20px 'sans-serif'; text-anchor: end" x="76.5" y="165.790745" transform="rotate(-0, 76.5, 165.790745)">7.5</text>
     </g>
    </g>
    <g id="ytick_5">
     <g id="line2d_12">
      <g>
       <use xlink:href="#m9168d6f014" x="90" y="105.923077" style="stroke: #000000; stroke-width: 3"/>
      </g>
     </g>
     <g id="text_13">
      <text style="font: 20px 'sans-serif'; text-anchor: end" x="76.5" y="113.521514" transform="rotate(-0, 76.5, 113.521514)">10.0</text>
     </g>
    </g>
    <g id="ytick_6">
     <g id="line2d_13">
      <g>
       <use xlink:href="#m9168d6f014" x="90" y="53.653846" style="stroke: #000000; stroke-width: 3"/>
      </g>
     </g>
     <g id="text_14">
      <text style="font: 20px 'sans-serif'; text-anchor: end" x="76.5" y="61.252284" transform="rotate(-0, 76.5, 61.252284)">12.5</text>
     </g>
    </g>
    <g id="text_15">
     <!-- $-log_{10}\ \chi^2$ p-value -->
     <g transform="translate(23.76875 266.7)rotate(-90)">
      <text>
       <tspan style="font: 20px 'DejaVu Sans'" x="0 94.286953 100.644375 113.339688 120.556485 132.392422 144.648281 150.204922 162.880703" y="-0.953125">− p-value</tspan>
       <tspan style="font: oblique 20px 'DejaVu Sans'" x="16.757812 22.314453 34.550781 72.101498" y="-0.953125">logχ</tspan>
       <tspan style="font: 14px 'DejaVu Sans'" x="47.246094 56.15332 84.832852" y="2.328125 2.328125 -8.609375">102</tspan>
      </text>
     </g>
    </g>
   </g>
   <g id="line2d_14">
    <path d="M 369 335.907692 
L 369 -1 
" clip-path="url(#pe33c10a035)" style="fill: none; stroke-dasharray: 5.55,2.4; stroke-dashoffset: 0; stroke: #000000; stroke-width: 1.5"/>
   </g>
   <g id="line2d_15">
    <path d="M 276 335.907692 
L 276 -1 
" clip-path="url(#pe33c10a035)" style="fill: none; stroke-dasharray: 5.55,2.4; stroke-dashoffset: 0; stroke: #000000; stroke-width: 1.5"/>
   </g>
   <g id="line2d_16">
    <path d="M 462 335.907692 
L 462 -1 
" clip-path="url(#pe33c10a035)" style="fill: none; stroke-dasharray: 5.55,2.4; stroke-dashoffset: 0; stroke: #000000; stroke-width: 1.5"/>
   </g>
   <g id="line2d_17">
    <path d="M -1 273.184615 
L 721 273.184615 
" clip-path="url(#pe33c10a035)" style="fill: none; stroke-dasharray: 5.55,2.4; stroke-dashoffset: 0; stroke: #000000; stroke-width: 1.5"/>
   </g>
   <g id="patch_3">
    <path d="M 90 315 
L 90 43.2 
" style="fill: none; stroke: #000000; stroke-width: 3; stroke-linejoin: miter; stroke-linecap: square"/>
   </g>
   <g id="patch_4">
    <path d="M 648 315 
L 648 43.2 
" style="fill: none; stroke: #000000; stroke-width: 3; stroke-linejoin: miter; stroke-linecap: square"/>
   </g>
   <g id="patch_5">
    <path d="M 90 315 
L 648 315 
" style="fill: none; stroke: #000000; stroke-width: 3; stroke-linejoin: miter; stroke-linecap: square"/>
   </g>
   <g id="patch_6">
    <path d="M 90 43.2 
L 648 43.2 
" style="fill: none; stroke: #000000; stroke-width: 3; stroke-linejoin: miter; stroke-linecap: square"/>
   </g>
   <g id="text_16">
    <text style="font: 16px 'sans-serif'; text-anchor: start" x="507.866456" y="82.120389" transform="rotate(-0, 507.866456, 82.120389)">HAD domain-like</text>
   </g>
   <g id="text_17">
    <text style="font: 16px 'sans-serif'; text-anchor: start" x="468.110466" y="200.228164" transform="rotate(-0, 468.110466, 200.228164)">Alpha-lytic protease prodomain-like</text>
   </g>
   <g id="text_18">
    <text style="font: 16px 'sans-serif'; text-anchor: start" x="467.378292" y="254.560907" transform="rotate(-0, 467.378292, 254.560907)">Immunoglobulin-like beta-sandwich</text>
   </g>
   <g id="text_19">
    <text style="font: 16px 'sans-serif'; text-anchor: start" x="268.339887" y="169.755902" transform="rotate(-0, 268.339887, 169.755902)">TIM beta/alpha-barrel</text>
   </g>
   <g id="text_20">
    <text style="font: 16px 'sans-serif'; text-anchor: start" x="219.483169" y="189.822243" transform="rotate(-0, 219.483169, 189.822243)">Ribonuclease H-like</text>
   </g>
   <g id="text_21">
    <text style="font: 16px 'sans-serif'; text-anchor: start" x="197.977819" y="266.01272" transform="rotate(-0, 197.977819, 266.01272)">PLP-dependent transferases</text>
   </g>
   <g id="text_22">
    <text style="font: 16px 'sans-serif'; text-anchor: start" x="175.844816" y="253.133504" transform="rotate(-0, 175.844816, 253.133504)">HUP domain-like</text>
   </g>
   <g id="text_23">
    <text style="font: 16px 'sans-serif'; text-anchor: start" x="174.613884" y="200.449641" transform="rotate(-0, 174.613884, 200.449641)">Flavodoxin-like</text>
   </g>
  </g>
 </g>
 <defs>
  <clipPath id="pe33c10a035">
   <rect x="90" y="43.2" width="558" height="271.8"/>
  </clipPath>
 </defs>
</svg>
