<?xml version="1.0" encoding="utf-8" standalone="no"?>
<!DOCTYPE svg PUBLIC "-//W3C//DTD SVG 1.1//EN"
  "http://www.w3.org/Graphics/SVG/1.1/DTD/svg11.dtd">
<svg xmlns:xlink="http://www.w3.org/1999/xlink" width="360pt" height="360pt" viewBox="0 0 360 360" xmlns="http://www.w3.org/2000/svg" version="1.1">
 <metadata>
  <rdf:RDF xmlns:dc="http://purl.org/dc/elements/1.1/" xmlns:cc="http://creativecommons.org/ns#" xmlns:rdf="http://www.w3.org/1999/02/22-rdf-syntax-ns#">
   <cc:Work>
    <dc:type rdf:resource="http://purl.org/dc/dcmitype/StillImage"/>
    <dc:date>2024-09-18T12:06:54.543198</dc:date>
    <dc:format>image/svg+xml</dc:format>
    <dc:creator>
     <cc:Agent>
      <dc:title>Matplotlib v3.5.2, https://matplotlib.org/</dc:title>
     </cc:Agent>
    </dc:creator>
   </cc:Work>
  </rdf:RDF>
 </metadata>
 <defs>
  <style type="text/css">*{stroke-linejoin: round; stroke-linecap: butt}</style>
 </defs>
 <g id="figure_1">
  <g id="patch_1">
   <path d="M 0 360 
L 360 360 
L 360 0 
L 0 0 
z
" style="fill: #ffffff"/>
  </g>
  <g id="axes_1">
   <g id="patch_2">
    <path d="M 45 315 
L 324 315 
L 324 43.2 
L 45 43.2 
z
" style="fill: #ffffff"/>
   </g>
   <g id="patch_3">
    <path d="M 57.681818 315 
L 170.409091 315 
L 170.409091 133.8 
L 57.681818 133.8 
z
" clip-path="url(#pef47fc39f2)" style="fill: #808080; opacity: 0.85; stroke: #000000; stroke-linejoin: miter"/>
   </g>
   <g id="patch_4">
    <path d="M 198.590909 315 
L 311.318182 315 
L 311.318182 113.916293 
L 198.590909 113.916293 
z
" clip-path="url(#pef47fc39f2)" style="fill: #4169e1; opacity: 0.85; stroke: #000000; stroke-linejoin: miter"/>
   </g>
   <g id="matplotlib.axis_1">
    <g id="xtick_1">
     <g id="line2d_1">
      <defs>
       <path id="m7dfe3390d7" d="M 0 0 
L 0 10 
" style="stroke: #000000; stroke-width: 3"/>
      </defs>
      <g>
       <use xlink:href="#m7dfe3390d7" x="114.045455" y="315" style="stroke: #000000; stroke-width: 3"/>
      </g>
     </g>
     <g id="text_1">
      <text style="font: 20px 'sans-serif'; text-anchor: middle" x="114.045455" y="343.696875" transform="rotate(-0, 114.045455, 343.696875)">total</text>
     </g>
    </g>
    <g id="xtick_2">
     <g id="line2d_2">
      <g>
       <use xlink:href="#m7dfe3390d7" x="254.954545" y="315" style="stroke: #000000; stroke-width: 3"/>
      </g>
     </g>
     <g id="text_2">
      <text style="font: 20px 'sans-serif'; text-anchor: middle" x="254.954545" y="343.696875" transform="rotate(-0, 254.954545, 343.696875)">supernatant</text>
     </g>
    </g>
   </g>
   <g id="matplotlib.axis_2">
    <g id="ytick_1">
     <g id="line2d_3">
      <defs>
       <path id="m1d8ba9f923" d="M 0 0 
L -10 0 
" style="stroke: #000000; stroke-width: 3"/>
      </defs>
      <g>
       <use xlink:href="#m1d8ba9f923" x="45" y="315" style="stroke: #000000; stroke-width: 3"/>
      </g>
     </g>
     <g id="text_3">
      <text style="font: 20px 'sans-serif'; text-anchor: end" x="31.5" y="322.598437" transform="rotate(-0, 31.5, 322.598437)">0.00</text>
     </g>
    </g>
    <g id="ytick_2">
     <g id="line2d_4">
      <g>
       <use xlink:href="#m1d8ba9f923" x="45" y="269.7" style="stroke: #000000; stroke-width: 3"/>
      </g>
     </g>
     <g id="text_4">
      <text style="font: 20px 'sans-serif'; text-anchor: end" x="31.5" y="277.298437" transform="rotate(-0, 31.5, 277.298437)">0.25</text>
     </g>
    </g>
    <g id="ytick_3">
     <g id="line2d_5">
      <g>
       <use xlink:href="#m1d8ba9f923" x="45" y="224.4" style="stroke: #000000; stroke-width: 3"/>
      </g>
     </g>
     <g id="text_5">
      <text style="font: 20px 'sans-serif'; text-anchor: end" x="31.5" y="231.998437" transform="rotate(-0, 31.5, 231.998437)">0.50</text>
     </g>
    </g>
    <g id="ytick_4">
     <g id="line2d_6">
      <g>
       <use xlink:href="#m1d8ba9f923" x="45" y="179.1" style="stroke: #000000; stroke-width: 3"/>
      </g>
     </g>
     <g id="text_6">
      <text style="font: 20px 'sans-serif'; text-anchor: end" x="31.5" y="186.698438" transform="rotate(-0, 31.5, 186.698438)">0.75</text>
     </g>
    </g>
    <g id="ytick_5">
     <g id="line2d_7">
      <g>
       <use xlink:href="#m1d8ba9f923" x="45" y="133.8" style="stroke: #000000; stroke-width: 3"/>
      </g>
     </g>
     <g id="text_7">
      <text style="font: 20px 'sans-serif'; text-anchor: end" x="31.5" y="141.398438" transform="rotate(-0, 31.5, 141.398438)">1.00</text>
     </g>
    </g>
    <g id="ytick_6">
     <g id="line2d_8">
      <g>
       <use xlink:href="#m1d8ba9f923" x="45" y="88.5" style="stroke: #000000; stroke-width: 3"/>
      </g>
     </g>
     <g id="text_8">
      <text style="font: 20px 'sans-serif'; text-anchor: end" x="31.5" y="96.098437" transform="rotate(-0, 31.5, 96.098437)">1.25</text>
     </g>
    </g>
    <g id="ytick_7">
     <g id="line2d_9">
      <g>
       <use xlink:href="#m1d8ba9f923" x="45" y="43.2" style="stroke: #000000; stroke-width: 3"/>
      </g>
     </g>
     <g id="text_9">
      <text style="font: 20px 'sans-serif'; text-anchor: end" x="31.5" y="50.798438" transform="rotate(-0, 31.5, 50.798438)">1.50</text>
     </g>
    </g>
    <g id="text_10">
     <!-- CS activity / $\mu$g protein -->
     <g transform="translate(-21.23125 293.9)rotate(-90)">
      <text>
       <tspan style="font: 20px 'DejaVu Sans'" x="0 13.964844 26.660156 33.017578 45.273438 56.269531 64.111328 69.667969 81.503906 87.060547 94.902344 106.738281 113.095703 119.833984 138.916016 151.611328 157.96875 170.664062 178.886719 191.123047 198.964844 211.269531 216.826172" y="-0.796875">CS activity / g protein</tspan>
       <tspan style="font: oblique 20px 'DejaVu Sans'" x="126.191406" y="-0.796875">μ</tspan>
      </text>
     </g>
    </g>
   </g>
   <g id="LineCollection_1">
    <path d="M 114.045455 137.26905 
L 114.045455 130.33095 
" clip-path="url(#pef47fc39f2)" style="fill: none; stroke: #000000; stroke-width: 2"/>
   </g>
   <g id="line2d_10">
    <defs>
     <path id="md1c284e76d" d="M 5 0 
L -5 -0 
" style="stroke: #000000"/>
    </defs>
    <g clip-path="url(#pef47fc39f2)">
     <use xlink:href="#md1c284e76d" x="114.045455" y="137.26905" style="stroke: #000000"/>
    </g>
   </g>
   <g id="line2d_11">
    <g clip-path="url(#pef47fc39f2)">
     <use xlink:href="#md1c284e76d" x="114.045455" y="130.33095" style="stroke: #000000"/>
    </g>
   </g>
   <g id="LineCollection_2">
    <path d="M 254.954545 118.122572 
L 254.954545 109.710015 
" clip-path="url(#pef47fc39f2)" style="fill: none; stroke: #000000; stroke-width: 2"/>
   </g>
   <g id="line2d_12">
    <g clip-path="url(#pef47fc39f2)">
     <use xlink:href="#md1c284e76d" x="254.954545" y="118.122572" style="stroke: #000000"/>
    </g>
   </g>
   <g id="line2d_13">
    <g clip-path="url(#pef47fc39f2)">
     <use xlink:href="#md1c284e76d" x="254.954545" y="109.710015" style="stroke: #000000"/>
    </g>
   </g>
   <g id="line2d_14">
    <path d="M 114.045455 93.936 
L 114.045455 79.44 
L 254.954545 79.44 
L 254.954545 93.936 
" clip-path="url(#pef47fc39f2)" style="fill: none; stroke: #000000; stroke-width: 1.5; stroke-linecap: square"/>
   </g>
   <g id="line2d_15">
    <path d="M 114.045455 133.8 
" clip-path="url(#pef47fc39f2)" style="fill: none; stroke: #000000; stroke-width: 2; stroke-linecap: square"/>
   </g>
   <g id="line2d_16">
    <path d="M 254.954545 113.916293 
" clip-path="url(#pef47fc39f2)" style="fill: none; stroke: #000000; stroke-width: 2; stroke-linecap: square"/>
   </g>
   <g id="patch_5">
    <path d="M 45 315 
L 45 43.2 
" style="fill: none; stroke: #000000; stroke-width: 3; stroke-linejoin: miter; stroke-linecap: square"/>
   </g>
   <g id="patch_6">
    <path d="M 324 315 
L 324 43.2 
" style="fill: none; stroke: #000000; stroke-width: 3; stroke-linejoin: miter; stroke-linecap: square"/>
   </g>
   <g id="patch_7">
    <path d="M 45 315 
L 324 315 
" style="fill: none; stroke: #000000; stroke-width: 3; stroke-linejoin: miter; stroke-linecap: square"/>
   </g>
   <g id="patch_8">
    <path d="M 45 43.2 
L 324 43.2 
" style="fill: none; stroke: #000000; stroke-width: 3; stroke-linejoin: miter; stroke-linecap: square"/>
   </g>
   <g id="PathCollection_1">
    <defs>
     <path id="mb8ac1ee1ec" d="M 0 2.236068 
C 0.593012 2.236068 1.161816 2.000462 1.581139 1.581139 
C 2.000462 1.161816 2.236068 0.593012 2.236068 0 
C 2.236068 -0.593012 2.000462 -1.161816 1.581139 -1.581139 
C 1.161816 -2.000462 0.593012 -2.236068 0 -2.236068 
C -0.593012 -2.236068 -1.161816 -2.000462 -1.581139 -1.581139 
C -2.000462 -1.161816 -2.236068 -0.593012 -2.236068 0 
C -2.236068 0.593012 -2.000462 1.161816 -1.581139 1.581139 
C -1.161816 2.000462 -0.593012 2.236068 0 2.236068 
z
" style="stroke: #000000"/>
    </defs>
    <g clip-path="url(#pef47fc39f2)">
     <use xlink:href="#mb8ac1ee1ec" x="114.045455" y="126.798971" style="stroke: #000000"/>
     <use xlink:href="#mb8ac1ee1ec" x="128.136364" y="133.8" style="stroke: #000000"/>
     <use xlink:href="#mb8ac1ee1ec" x="99.954545" y="134.616072" style="stroke: #000000"/>
    </g>
   </g>
   <g id="PathCollection_2">
    <g clip-path="url(#pef47fc39f2)">
     <use xlink:href="#mb8ac1ee1ec" x="254.954545" y="116.332035" style="stroke: #000000"/>
     <use xlink:href="#mb8ac1ee1ec" x="269.045455" y="112.525202" style="stroke: #000000"/>
     <use xlink:href="#mb8ac1ee1ec" x="240.863636" y="106.027989" style="stroke: #000000"/>
    </g>
   </g>
   <g id="text_11">
    <text style="font: 20px 'sans-serif'; text-anchor: middle" x="184.5" y="66.220625" transform="rotate(-0, 184.5, 66.220625)">p-value &lt; 0.007</text>
   </g>
  </g>
 </g>
 <defs>
  <clipPath id="pef47fc39f2">
   <rect x="45" y="43.2" width="279" height="271.8"/>
  </clipPath>
 </defs>
</svg>
