<?xml version="1.0" encoding="utf-8" standalone="no"?>
<!DOCTYPE svg PUBLIC "-//W3C//DTD SVG 1.1//EN"
  "http://www.w3.org/Graphics/SVG/1.1/DTD/svg11.dtd">
<svg xmlns:xlink="http://www.w3.org/1999/xlink" width="864pt" height="180pt" viewBox="0 0 864 180" xmlns="http://www.w3.org/2000/svg" version="1.1">
 <metadata>
  <rdf:RDF xmlns:dc="http://purl.org/dc/elements/1.1/" xmlns:cc="http://creativecommons.org/ns#" xmlns:rdf="http://www.w3.org/1999/02/22-rdf-syntax-ns#">
   <cc:Work>
    <dc:type rdf:resource="http://purl.org/dc/dcmitype/StillImage"/>
    <dc:date>2024-10-07T16:30:50.327971</dc:date>
    <dc:format>image/svg+xml</dc:format>
    <dc:creator>
     <cc:Agent>
      <dc:title>Matplotlib v3.5.2, https://matplotlib.org/</dc:title>
     </cc:Agent>
    </dc:creator>
   </cc:Work>
  </rdf:RDF>
 </metadata>
 <defs>
  <style type="text/css">*{stroke-linejoin: round; stroke-linecap: butt}</style>
 </defs>
 <g id="figure_1">
  <g id="patch_1">
   <path d="M 0 180 
L 864 180 
L 864 0 
L 0 0 
z
" style="fill: #ffffff"/>
  </g>
  <g id="axes_1">
   <g id="patch_2">
    <path d="M 108 157.5 
L 419.44186 157.5 
L 419.44186 21.6 
L 108 21.6 
z
" style="fill: #ffffff"/>
   </g>
   <g id="PathCollection_1">
    <defs>
     <path id="m713e494f52" d="M 0 8.660254 
C 2.296726 8.660254 4.499694 7.747755 6.123724 6.123724 
C 7.747755 4.499694 8.660254 2.296726 8.660254 0 
C 8.660254 -2.296726 7.747755 -4.499694 6.123724 -6.123724 
C 4.499694 -7.747755 2.296726 -8.660254 0 -8.660254 
C -2.296726 -8.660254 -4.499694 -7.747755 -6.123724 -6.123724 
C -7.747755 -4.499694 -8.660254 -2.296726 -8.660254 0 
C -8.660254 2.296726 -7.747755 4.499694 -6.123724 6.123724 
C -4.499694 7.747755 -2.296726 8.660254 0 8.660254 
z
" style="stroke: #000000"/>
    </defs>
    <g clip-path="url(#p87970881c0)">
     <use xlink:href="#m713e494f52" x="122.156448" y="59.13186" style="fill: #ff0000; stroke: #000000"/>
     <use xlink:href="#m713e494f52" x="178.782241" y="67.721987" style="fill: #ff0000; stroke: #000000"/>
     <use xlink:href="#m713e494f52" x="235.408034" y="104.44388" style="fill: #ff0000; stroke: #000000"/>
     <use xlink:href="#m713e494f52" x="292.033827" y="125.151327" style="fill: #ff0000; stroke: #000000"/>
     <use xlink:href="#m713e494f52" x="348.659619" y="143.230206" style="fill: #ff0000; stroke: #000000"/>
     <use xlink:href="#m713e494f52" x="405.285412" y="123.288573" style="fill: #ff0000; stroke: #000000"/>
    </g>
   </g>
   <g id="PathCollection_2">
    <defs>
     <path id="md45a05884b" d="M 0 8.660254 
C 2.296726 8.660254 4.499694 7.747755 6.123724 6.123724 
C 7.747755 4.499694 8.660254 2.296726 8.660254 0 
C 8.660254 -2.296726 7.747755 -4.499694 6.123724 -6.123724 
C 4.499694 -7.747755 2.296726 -8.660254 0 -8.660254 
C -2.296726 -8.660254 -4.499694 -7.747755 -6.123724 -6.123724 
C -7.747755 -4.499694 -8.660254 -2.296726 -8.660254 0 
C -8.660254 2.296726 -7.747755 4.499694 -6.123724 6.123724 
C -4.499694 7.747755 -2.296726 8.660254 0 8.660254 
z
" style="stroke: #000000"/>
    </defs>
    <g clip-path="url(#p87970881c0)">
     <use xlink:href="#md45a05884b" x="122.156448" y="129.992505" style="fill: #0000ff; stroke: #000000"/>
     <use xlink:href="#md45a05884b" x="178.782241" y="115.316069" style="fill: #0000ff; stroke: #000000"/>
     <use xlink:href="#md45a05884b" x="235.408034" y="126.529954" style="fill: #0000ff; stroke: #000000"/>
     <use xlink:href="#md45a05884b" x="292.033827" y="99.176959" style="fill: #0000ff; stroke: #000000"/>
     <use xlink:href="#md45a05884b" x="348.659619" y="95.378096" style="fill: #0000ff; stroke: #000000"/>
     <use xlink:href="#md45a05884b" x="405.285412" y="42.851174" style="fill: #0000ff; stroke: #000000"/>
    </g>
   </g>
   <g id="matplotlib.axis_1">
    <g id="xtick_1">
     <g id="line2d_1">
      <defs>
       <path id="mba8f7a1b0d" d="M 0 0 
L 0 10 
" style="stroke: #000000; stroke-width: 3"/>
      </defs>
      <g>
       <use xlink:href="#mba8f7a1b0d" x="178.782241" y="157.5" style="stroke: #000000; stroke-width: 3"/>
      </g>
     </g>
     <g id="text_1">
      <text style="font: 20px 'sans-serif'" transform="translate(155.418991 236.277004)rotate(-45)">10-15%</text>
     </g>
    </g>
    <g id="xtick_2">
     <g id="line2d_2">
      <g>
       <use xlink:href="#mba8f7a1b0d" x="235.408034" y="157.5" style="stroke: #000000; stroke-width: 3"/>
      </g>
     </g>
     <g id="text_2">
      <text style="font: 20px 'sans-serif'" transform="translate(212.044784 236.277004)rotate(-45)">15-20%</text>
     </g>
    </g>
    <g id="xtick_3">
     <g id="line2d_3">
      <g>
       <use xlink:href="#mba8f7a1b0d" x="292.033827" y="157.5" style="stroke: #000000; stroke-width: 3"/>
      </g>
     </g>
     <g id="text_3">
      <text style="font: 20px 'sans-serif'" transform="translate(268.670577 236.277004)rotate(-45)">20-25%</text>
     </g>
    </g>
    <g id="xtick_4">
     <g id="line2d_4">
      <g>
       <use xlink:href="#mba8f7a1b0d" x="348.659619" y="157.5" style="stroke: #000000; stroke-width: 3"/>
      </g>
     </g>
     <g id="text_4">
      <text style="font: 20px 'sans-serif'" transform="translate(325.296369 236.277004)rotate(-45)">25-30%</text>
     </g>
    </g>
    <g id="xtick_5">
     <g id="line2d_5">
      <g>
       <use xlink:href="#mba8f7a1b0d" x="405.285412" y="157.5" style="stroke: #000000; stroke-width: 3"/>
      </g>
     </g>
     <g id="text_5">
      <text style="font: 20px 'sans-serif'" transform="translate(387.545871 225.029587)rotate(-45)">&gt;30%</text>
     </g>
    </g>
   </g>
   <g id="matplotlib.axis_2">
    <g id="ytick_1">
     <g id="line2d_6">
      <defs>
       <path id="m9e8670627a" d="M 0 0 
L -10 0 
" style="stroke: #000000; stroke-width: 3"/>
      </defs>
      <g>
       <use xlink:href="#m9e8670627a" x="108" y="139.422505" style="stroke: #000000; stroke-width: 3"/>
      </g>
     </g>
     <g id="text_6">
      <text style="font: 20px 'sans-serif'; text-anchor: end" x="94.5" y="147.020942" transform="rotate(-0, 94.5, 147.020942)">0.05</text>
     </g>
    </g>
    <g id="ytick_2">
     <g id="line2d_7">
      <g>
       <use xlink:href="#m9e8670627a" x="108" y="97.416141" style="stroke: #000000; stroke-width: 3"/>
      </g>
     </g>
     <g id="text_7">
      <text style="font: 20px 'sans-serif'; text-anchor: end" x="94.5" y="105.014579" transform="rotate(-0, 94.5, 105.014579)">0.10</text>
     </g>
    </g>
    <g id="ytick_3">
     <g id="line2d_8">
      <g>
       <use xlink:href="#m9e8670627a" x="108" y="55.409777" style="stroke: #000000; stroke-width: 3"/>
      </g>
     </g>
     <g id="text_8">
      <text style="font: 20px 'sans-serif'; text-anchor: end" x="94.5" y="63.008215" transform="rotate(-0, 94.5, 63.008215)">0.15</text>
     </g>
    </g>
    <g id="text_9">
     <text style="font: 20px 'sans-serif'" transform="translate(19.41375 140.779687)rotate(-90)">fraction of</text>
     <text style="font: 20px 'sans-serif'" transform="translate(41.809375 185.81875)rotate(-90)">perturbed peptides</text>
    </g>
   </g>
   <g id="line2d_9">
    <path d="M 122.156448 59.13186 
L 178.782241 67.721987 
L 235.408034 104.44388 
L 292.033827 125.151327 
L 348.659619 143.230206 
L 405.285412 123.288573 
" clip-path="url(#p87970881c0)" style="fill: none; stroke-dasharray: 5.55,2.4; stroke-dashoffset: 0; stroke: #ff0000; stroke-width: 1.5"/>
   </g>
   <g id="line2d_10">
    <path d="M 122.156448 129.992505 
L 178.782241 115.316069 
L 235.408034 126.529954 
L 292.033827 99.176959 
L 348.659619 95.378096 
L 405.285412 42.851174 
" clip-path="url(#p87970881c0)" style="fill: none; stroke-dasharray: 5.55,2.4; stroke-dashoffset: 0; stroke: #0000ff; stroke-width: 1.5"/>
   </g>
   <g id="patch_3">
    <path d="M 108 157.5 
L 108 21.6 
" style="fill: none; stroke: #000000; stroke-width: 3; stroke-linejoin: miter; stroke-linecap: square"/>
   </g>
   <g id="patch_4">
    <path d="M 419.44186 157.5 
L 419.44186 21.6 
" style="fill: none; stroke: #000000; stroke-width: 3; stroke-linejoin: miter; stroke-linecap: square"/>
   </g>
   <g id="patch_5">
    <path d="M 108 157.5 
L 419.44186 157.5 
" style="fill: none; stroke: #000000; stroke-width: 3; stroke-linejoin: miter; stroke-linecap: square"/>
   </g>
   <g id="patch_6">
    <path d="M 108 21.6 
L 419.44186 21.6 
" style="fill: none; stroke: #000000; stroke-width: 3; stroke-linejoin: miter; stroke-linecap: square"/>
   </g>
  </g>
  <g id="axes_2">
   <g id="patch_7">
    <path d="M 466.15814 157.5 
L 777.6 157.5 
L 777.6 21.6 
L 466.15814 21.6 
z
" style="fill: #ffffff"/>
   </g>
   <g id="PathCollection_3">
    <defs>
     <path id="mfb3e37e032" d="M 0 8.660254 
C 2.296726 8.660254 4.499694 7.747755 6.123724 6.123724 
C 7.747755 4.499694 8.660254 2.296726 8.660254 0 
C 8.660254 -2.296726 7.747755 -4.499694 6.123724 -6.123724 
C 4.499694 -7.747755 2.296726 -8.660254 0 -8.660254 
C -2.296726 -8.660254 -4.499694 -7.747755 -6.123724 -6.123724 
C -7.747755 -4.499694 -8.660254 -2.296726 -8.660254 0 
C -8.660254 2.296726 -7.747755 4.499694 -6.123724 6.123724 
C -4.499694 7.747755 -2.296726 8.660254 0 8.660254 
z
" style="stroke: #000000"/>
    </defs>
    <g clip-path="url(#p275e4252d6)">
     <use xlink:href="#mfb3e37e032" x="508.821408" y="56.965569" style="fill: #800080; stroke: #000000"/>
     <use xlink:href="#mfb3e37e032" x="551.484677" y="27.777273" style="fill: #800080; stroke: #000000"/>
     <use xlink:href="#mfb3e37e032" x="594.147945" y="48.71698" style="fill: #800080; stroke: #000000"/>
     <use xlink:href="#mfb3e37e032" x="636.811214" y="123.499796" style="fill: #800080; stroke: #000000"/>
     <use xlink:href="#mfb3e37e032" x="679.474482" y="128.151002" style="fill: #800080; stroke: #000000"/>
     <use xlink:href="#mfb3e37e032" x="722.137751" y="151.322727" style="fill: #800080; stroke: #000000"/>
     <use xlink:href="#mfb3e37e032" x="764.801019" y="125.291332" style="fill: #800080; stroke: #000000"/>
    </g>
   </g>
   <g id="matplotlib.axis_3">
    <g id="xtick_6">
     <g id="line2d_11">
      <g>
       <use xlink:href="#mba8f7a1b0d" x="466.15814" y="157.5" style="stroke: #000000; stroke-width: 3"/>
      </g>
     </g>
     <g id="text_10">
      <text style="font: 20px 'sans-serif'" transform="translate(447.298276 227.270232)rotate(-45)">0 - 5%</text>
     </g>
    </g>
    <g id="xtick_7">
     <g id="line2d_12">
      <g>
       <use xlink:href="#mba8f7a1b0d" x="551.484677" y="157.5" style="stroke: #000000; stroke-width: 3"/>
      </g>
     </g>
     <g id="text_11">
      <text style="font: 20px 'sans-serif'" transform="translate(528.121427 236.277004)rotate(-45)">10-15%</text>
     </g>
    </g>
    <g id="xtick_8">
     <g id="line2d_13">
      <g>
       <use xlink:href="#mba8f7a1b0d" x="636.811214" y="157.5" style="stroke: #000000; stroke-width: 3"/>
      </g>
     </g>
     <g id="text_12">
      <text style="font: 20px 'sans-serif'" transform="translate(613.447964 236.277004)rotate(-45)">20-25%</text>
     </g>
    </g>
    <g id="xtick_9">
     <g id="line2d_14">
      <g>
       <use xlink:href="#mba8f7a1b0d" x="722.137751" y="157.5" style="stroke: #000000; stroke-width: 3"/>
      </g>
     </g>
     <g id="text_13">
      <text style="font: 20px 'sans-serif'" transform="translate(698.774501 236.277004)rotate(-45)">30-35%</text>
     </g>
    </g>
   </g>
   <g id="matplotlib.axis_4">
    <g id="ytick_4">
     <g id="line2d_15">
      <g>
       <use xlink:href="#m9e8670627a" x="466.15814" y="139.422505" style="stroke: #000000; stroke-width: 3"/>
      </g>
     </g>
    </g>
    <g id="ytick_5">
     <g id="line2d_16">
      <g>
       <use xlink:href="#m9e8670627a" x="466.15814" y="97.416141" style="stroke: #000000; stroke-width: 3"/>
      </g>
     </g>
    </g>
    <g id="ytick_6">
     <g id="line2d_17">
      <g>
       <use xlink:href="#m9e8670627a" x="466.15814" y="55.409777" style="stroke: #000000; stroke-width: 3"/>
      </g>
     </g>
    </g>
   </g>
   <g id="line2d_18">
    <path d="M 508.821408 56.965569 
L 551.484677 27.777273 
L 594.147945 48.71698 
L 636.811214 123.499796 
L 679.474482 128.151002 
L 722.137751 151.322727 
L 764.801019 125.291332 
" clip-path="url(#p275e4252d6)" style="fill: none; stroke-dasharray: 5.55,2.4; stroke-dashoffset: 0; stroke: #800080; stroke-width: 1.5"/>
   </g>
   <g id="patch_8">
    <path d="M 466.15814 157.5 
L 466.15814 21.6 
" style="fill: none; stroke: #000000; stroke-width: 3; stroke-linejoin: miter; stroke-linecap: square"/>
   </g>
   <g id="patch_9">
    <path d="M 777.6 157.5 
L 777.6 21.6 
" style="fill: none; stroke: #000000; stroke-width: 3; stroke-linejoin: miter; stroke-linecap: square"/>
   </g>
   <g id="patch_10">
    <path d="M 466.15814 157.5 
L 777.6 157.5 
" style="fill: none; stroke: #000000; stroke-width: 3; stroke-linejoin: miter; stroke-linecap: square"/>
   </g>
   <g id="patch_11">
    <path d="M 466.15814 21.6 
L 777.6 21.6 
" style="fill: none; stroke: #000000; stroke-width: 3; stroke-linejoin: miter; stroke-linecap: square"/>
   </g>
  </g>
 </g>
 <defs>
  <clipPath id="p87970881c0">
   <rect x="108" y="21.6" width="311.44186" height="135.9"/>
  </clipPath>
  <clipPath id="p275e4252d6">
   <rect x="466.15814" y="21.6" width="311.44186" height="135.9"/>
  </clipPath>
 </defs>
</svg>
