<?xml version="1.0" encoding="utf-8" standalone="no"?>
<!DOCTYPE svg PUBLIC "-//W3C//DTD SVG 1.1//EN"
  "http://www.w3.org/Graphics/SVG/1.1/DTD/svg11.dtd">
<svg xmlns:xlink="http://www.w3.org/1999/xlink" width="864pt" height="180pt" viewBox="0 0 864 180" xmlns="http://www.w3.org/2000/svg" version="1.1">
 <metadata>
  <rdf:RDF xmlns:dc="http://purl.org/dc/elements/1.1/" xmlns:cc="http://creativecommons.org/ns#" xmlns:rdf="http://www.w3.org/1999/02/22-rdf-syntax-ns#">
   <cc:Work>
    <dc:type rdf:resource="http://purl.org/dc/dcmitype/StillImage"/>
    <dc:date>2024-10-07T16:31:22.057647</dc:date>
    <dc:format>image/svg+xml</dc:format>
    <dc:creator>
     <cc:Agent>
      <dc:title>Matplotlib v3.5.2, https://matplotlib.org/</dc:title>
     </cc:Agent>
    </dc:creator>
   </cc:Work>
  </rdf:RDF>
 </metadata>
 <defs>
  <style type="text/css">*{stroke-linejoin: round; stroke-linecap: butt}</style>
 </defs>
 <g id="figure_1">
  <g id="patch_1">
   <path d="M 0 180 
L 864 180 
L 864 0 
L 0 0 
z
" style="fill: #ffffff"/>
  </g>
  <g id="axes_1">
   <g id="patch_2">
    <path d="M 108 157.5 
L 419.44186 157.5 
L 419.44186 21.6 
L 108 21.6 
z
" style="fill: #ffffff"/>
   </g>
   <g id="PathCollection_1">
    <defs>
     <path id="mdeaf4efbce" d="M 0 8.660254 
C 2.296726 8.660254 4.499694 7.747755 6.123724 6.123724 
C 7.747755 4.499694 8.660254 2.296726 8.660254 0 
C 8.660254 -2.296726 7.747755 -4.499694 6.123724 -6.123724 
C 4.499694 -7.747755 2.296726 -8.660254 0 -8.660254 
C -2.296726 -8.660254 -4.499694 -7.747755 -6.123724 -6.123724 
C -7.747755 -4.499694 -8.660254 -2.296726 -8.660254 0 
C -8.660254 2.296726 -7.747755 4.499694 -6.123724 6.123724 
C -4.499694 7.747755 -2.296726 8.660254 0 8.660254 
z
" style="stroke: #000000"/>
    </defs>
    <g clip-path="url(#pf13499faa1)">
     <use xlink:href="#mdeaf4efbce" x="122.156448" y="83.093915" style="fill: #ff0000; stroke: #000000"/>
     <use xlink:href="#mdeaf4efbce" x="169.344609" y="105.139149" style="fill: #ff0000; stroke: #000000"/>
     <use xlink:href="#mdeaf4efbce" x="216.53277" y="101.467535" style="fill: #ff0000; stroke: #000000"/>
     <use xlink:href="#mdeaf4efbce" x="263.72093" y="122.559976" style="fill: #ff0000; stroke: #000000"/>
     <use xlink:href="#mdeaf4efbce" x="310.909091" y="128.59619" style="fill: #ff0000; stroke: #000000"/>
     <use xlink:href="#mdeaf4efbce" x="358.097252" y="135.837931" style="fill: #ff0000; stroke: #000000"/>
     <use xlink:href="#mdeaf4efbce" x="405.285412" y="67.445794" style="fill: #ff0000; stroke: #000000"/>
    </g>
   </g>
   <g id="PathCollection_2">
    <defs>
     <path id="mfc209cf8cb" d="M 0 8.660254 
C 2.296726 8.660254 4.499694 7.747755 6.123724 6.123724 
C 7.747755 4.499694 8.660254 2.296726 8.660254 0 
C 8.660254 -2.296726 7.747755 -4.499694 6.123724 -6.123724 
C 4.499694 -7.747755 2.296726 -8.660254 0 -8.660254 
C -2.296726 -8.660254 -4.499694 -7.747755 -6.123724 -6.123724 
C -7.747755 -4.499694 -8.660254 -2.296726 -8.660254 0 
C -8.660254 2.296726 -7.747755 4.499694 -6.123724 6.123724 
C -4.499694 7.747755 -2.296726 8.660254 0 8.660254 
z
" style="stroke: #000000"/>
    </defs>
    <g clip-path="url(#pf13499faa1)">
     <use xlink:href="#mfc209cf8cb" x="122.156448" y="141.205346" style="fill: #0000ff; stroke: #000000"/>
     <use xlink:href="#mfc209cf8cb" x="169.344609" y="110.992057" style="fill: #0000ff; stroke: #000000"/>
     <use xlink:href="#mfc209cf8cb" x="216.53277" y="125.15405" style="fill: #0000ff; stroke: #000000"/>
     <use xlink:href="#mfc209cf8cb" x="263.72093" y="85.562323" style="fill: #0000ff; stroke: #000000"/>
     <use xlink:href="#mfc209cf8cb" x="310.909091" y="78.187877" style="fill: #0000ff; stroke: #000000"/>
     <use xlink:href="#mfc209cf8cb" x="358.097252" y="88.637485" style="fill: #0000ff; stroke: #000000"/>
    </g>
   </g>
   <g id="matplotlib.axis_1">
    <g id="xtick_1">
     <g id="line2d_1">
      <defs>
       <path id="mb7f1d3d0af" d="M 0 0 
L 0 10 
" style="stroke: #000000; stroke-width: 3"/>
      </defs>
      <g>
       <use xlink:href="#mb7f1d3d0af" x="122.156448" y="157.5" style="stroke: #000000; stroke-width: 3"/>
      </g>
     </g>
     <g id="text_1">
      <text style="font: 20px 'sans-serif'" transform="translate(98.797618 236.268166)rotate(-45)">5 - 10%</text>
     </g>
    </g>
    <g id="xtick_2">
     <g id="line2d_2">
      <g>
       <use xlink:href="#mb7f1d3d0af" x="169.344609" y="157.5" style="stroke: #000000; stroke-width: 3"/>
      </g>
     </g>
     <g id="text_2">
      <text style="font: 20px 'sans-serif'" transform="translate(145.981359 236.277004)rotate(-45)">10-15%</text>
     </g>
    </g>
    <g id="xtick_3">
     <g id="line2d_3">
      <g>
       <use xlink:href="#mb7f1d3d0af" x="216.53277" y="157.5" style="stroke: #000000; stroke-width: 3"/>
      </g>
     </g>
     <g id="text_3">
      <text style="font: 20px 'sans-serif'" transform="translate(193.16952 236.277004)rotate(-45)">15-20%</text>
     </g>
    </g>
    <g id="xtick_4">
     <g id="line2d_4">
      <g>
       <use xlink:href="#mb7f1d3d0af" x="263.72093" y="157.5" style="stroke: #000000; stroke-width: 3"/>
      </g>
     </g>
     <g id="text_4">
      <text style="font: 20px 'sans-serif'" transform="translate(240.35768 236.277004)rotate(-45)">20-25%</text>
     </g>
    </g>
    <g id="xtick_5">
     <g id="line2d_5">
      <g>
       <use xlink:href="#mb7f1d3d0af" x="310.909091" y="157.5" style="stroke: #000000; stroke-width: 3"/>
      </g>
     </g>
     <g id="text_5">
      <text style="font: 20px 'sans-serif'" transform="translate(287.545841 236.277004)rotate(-45)">25-30%</text>
     </g>
    </g>
    <g id="xtick_6">
     <g id="line2d_6">
      <g>
       <use xlink:href="#mb7f1d3d0af" x="358.097252" y="157.5" style="stroke: #000000; stroke-width: 3"/>
      </g>
     </g>
     <g id="text_6">
      <text style="font: 20px 'sans-serif'" transform="translate(334.734002 236.277004)rotate(-45)">30-35%</text>
     </g>
    </g>
    <g id="xtick_7">
     <g id="line2d_7">
      <g>
       <use xlink:href="#mb7f1d3d0af" x="405.285412" y="157.5" style="stroke: #000000; stroke-width: 3"/>
      </g>
     </g>
     <g id="text_7">
      <text style="font: 20px 'sans-serif'" transform="translate(387.545871 225.029587)rotate(-45)">35%+</text>
     </g>
    </g>
   </g>
   <g id="matplotlib.axis_2">
    <g id="ytick_1">
     <g id="line2d_8">
      <defs>
       <path id="m6d514aec5b" d="M 0 0 
L -10 0 
" style="stroke: #000000; stroke-width: 3"/>
      </defs>
      <g>
       <use xlink:href="#m6d514aec5b" x="108" y="139.996173" style="stroke: #000000; stroke-width: 3"/>
      </g>
     </g>
     <g id="text_8">
      <text style="font: 20px 'sans-serif'; text-anchor: end" x="94.5" y="147.594611" transform="rotate(-0, 94.5, 147.594611)">0.05</text>
     </g>
    </g>
    <g id="ytick_2">
     <g id="line2d_9">
      <g>
       <use xlink:href="#m6d514aec5b" x="108" y="91.629254" style="stroke: #000000; stroke-width: 3"/>
      </g>
     </g>
     <g id="text_9">
      <text style="font: 20px 'sans-serif'; text-anchor: end" x="94.5" y="99.227691" transform="rotate(-0, 94.5, 99.227691)">0.10</text>
     </g>
    </g>
    <g id="ytick_3">
     <g id="line2d_10">
      <g>
       <use xlink:href="#m6d514aec5b" x="108" y="43.262334" style="stroke: #000000; stroke-width: 3"/>
      </g>
     </g>
     <g id="text_10">
      <text style="font: 20px 'sans-serif'; text-anchor: end" x="94.5" y="50.860771" transform="rotate(-0, 94.5, 50.860771)">0.15</text>
     </g>
    </g>
    <g id="text_11">
     <text style="font: 20px 'sans-serif'" transform="translate(19.41375 140.779687)rotate(-90)">fraction of</text>
     <text style="font: 20px 'sans-serif'" transform="translate(41.809375 185.81875)rotate(-90)">perturbed peptides</text>
    </g>
   </g>
   <g id="line2d_11">
    <path d="M 122.156448 83.093915 
L 169.344609 105.139149 
L 216.53277 101.467535 
L 263.72093 122.559976 
L 310.909091 128.59619 
L 358.097252 135.837931 
L 405.285412 67.445794 
" clip-path="url(#pf13499faa1)" style="fill: none; stroke-dasharray: 5.55,2.4; stroke-dashoffset: 0; stroke: #ff0000; stroke-width: 1.5"/>
   </g>
   <g id="line2d_12">
    <path d="M 122.156448 141.205346 
L 169.344609 110.992057 
L 216.53277 125.15405 
L 263.72093 85.562323 
L 310.909091 78.187877 
L 358.097252 88.637485 
" clip-path="url(#pf13499faa1)" style="fill: none; stroke-dasharray: 5.55,2.4; stroke-dashoffset: 0; stroke: #0000ff; stroke-width: 1.5"/>
   </g>
   <g id="patch_3">
    <path d="M 108 157.5 
L 108 21.6 
" style="fill: none; stroke: #000000; stroke-width: 3; stroke-linejoin: miter; stroke-linecap: square"/>
   </g>
   <g id="patch_4">
    <path d="M 419.44186 157.5 
L 419.44186 21.6 
" style="fill: none; stroke: #000000; stroke-width: 3; stroke-linejoin: miter; stroke-linecap: square"/>
   </g>
   <g id="patch_5">
    <path d="M 108 157.5 
L 419.44186 157.5 
" style="fill: none; stroke: #000000; stroke-width: 3; stroke-linejoin: miter; stroke-linecap: square"/>
   </g>
   <g id="patch_6">
    <path d="M 108 21.6 
L 419.44186 21.6 
" style="fill: none; stroke: #000000; stroke-width: 3; stroke-linejoin: miter; stroke-linecap: square"/>
   </g>
   <g id="text_12">
    <text style="font: 20px 'sans-serif'; text-anchor: start" x="123.572093" y="41.985" transform="rotate(-0, 123.572093, 41.985)">chainsaw</text>
   </g>
  </g>
  <g id="axes_2">
   <g id="patch_7">
    <path d="M 466.15814 157.5 
L 777.6 157.5 
L 777.6 21.6 
L 466.15814 21.6 
z
" style="fill: #ffffff"/>
   </g>
   <g id="PathCollection_3">
    <defs>
     <path id="m03dd0d04e3" d="M 0 8.660254 
C 2.296726 8.660254 4.499694 7.747755 6.123724 6.123724 
C 7.747755 4.499694 8.660254 2.296726 8.660254 0 
C 8.660254 -2.296726 7.747755 -4.499694 6.123724 -6.123724 
C 4.499694 -7.747755 2.296726 -8.660254 0 -8.660254 
C -2.296726 -8.660254 -4.499694 -7.747755 -6.123724 -6.123724 
C -7.747755 -4.499694 -8.660254 -2.296726 -8.660254 0 
C -8.660254 2.296726 -7.747755 4.499694 -6.123724 6.123724 
C -4.499694 7.747755 -2.296726 8.660254 0 8.660254 
z
" style="stroke: #000000"/>
    </defs>
    <g clip-path="url(#p1ab45ed928)">
     <use xlink:href="#m03dd0d04e3" x="503.456566" y="86.537999" style="fill: #800080; stroke: #000000"/>
     <use xlink:href="#m03dd0d04e3" x="540.754992" y="27.777273" style="fill: #800080; stroke: #000000"/>
     <use xlink:href="#m03dd0d04e3" x="578.053419" y="76.150396" style="fill: #800080; stroke: #000000"/>
     <use xlink:href="#m03dd0d04e3" x="615.351845" y="112.983437" style="fill: #800080; stroke: #000000"/>
     <use xlink:href="#m03dd0d04e3" x="652.650272" y="130.62123" style="fill: #800080; stroke: #000000"/>
     <use xlink:href="#m03dd0d04e3" x="689.948698" y="151.322727" style="fill: #800080; stroke: #000000"/>
     <use xlink:href="#m03dd0d04e3" x="727.247124" y="127.200266" style="fill: #800080; stroke: #000000"/>
     <use xlink:href="#m03dd0d04e3" x="764.545551" y="136.709101" style="fill: #800080; stroke: #000000"/>
    </g>
   </g>
   <g id="matplotlib.axis_3">
    <g id="xtick_8">
     <g id="line2d_13">
      <g>
       <use xlink:href="#mb7f1d3d0af" x="466.15814" y="157.5" style="stroke: #000000; stroke-width: 3"/>
      </g>
     </g>
     <g id="text_13">
      <text style="font: 20px 'sans-serif'" transform="translate(447.298276 227.270232)rotate(-45)">0 - 5%</text>
     </g>
    </g>
    <g id="xtick_9">
     <g id="line2d_14">
      <g>
       <use xlink:href="#mb7f1d3d0af" x="540.754992" y="157.5" style="stroke: #000000; stroke-width: 3"/>
      </g>
     </g>
     <g id="text_14">
      <text style="font: 20px 'sans-serif'" transform="translate(517.391742 236.277004)rotate(-45)">10-15%</text>
     </g>
    </g>
    <g id="xtick_10">
     <g id="line2d_15">
      <g>
       <use xlink:href="#mb7f1d3d0af" x="615.351845" y="157.5" style="stroke: #000000; stroke-width: 3"/>
      </g>
     </g>
     <g id="text_15">
      <text style="font: 20px 'sans-serif'" transform="translate(591.988595 236.277004)rotate(-45)">20-25%</text>
     </g>
    </g>
    <g id="xtick_11">
     <g id="line2d_16">
      <g>
       <use xlink:href="#mb7f1d3d0af" x="689.948698" y="157.5" style="stroke: #000000; stroke-width: 3"/>
      </g>
     </g>
     <g id="text_16">
      <text style="font: 20px 'sans-serif'" transform="translate(666.585448 236.277004)rotate(-45)">30-35%</text>
     </g>
    </g>
    <g id="xtick_12">
     <g id="line2d_17">
      <g>
       <use xlink:href="#mb7f1d3d0af" x="764.545551" y="157.5" style="stroke: #000000; stroke-width: 3"/>
      </g>
     </g>
     <g id="text_17">
      <text style="font: 20px 'sans-serif'" transform="translate(746.806009 225.029587)rotate(-45)">40%+</text>
     </g>
    </g>
   </g>
   <g id="matplotlib.axis_4">
    <g id="ytick_4">
     <g id="line2d_18">
      <g>
       <use xlink:href="#m6d514aec5b" x="466.15814" y="139.996173" style="stroke: #000000; stroke-width: 3"/>
      </g>
     </g>
    </g>
    <g id="ytick_5">
     <g id="line2d_19">
      <g>
       <use xlink:href="#m6d514aec5b" x="466.15814" y="91.629254" style="stroke: #000000; stroke-width: 3"/>
      </g>
     </g>
    </g>
    <g id="ytick_6">
     <g id="line2d_20">
      <g>
       <use xlink:href="#m6d514aec5b" x="466.15814" y="43.262334" style="stroke: #000000; stroke-width: 3"/>
      </g>
     </g>
    </g>
   </g>
   <g id="line2d_21">
    <path d="M 503.456566 86.537999 
L 540.754992 27.777273 
L 578.053419 76.150396 
L 615.351845 112.983437 
L 652.650272 130.62123 
L 689.948698 151.322727 
L 727.247124 127.200266 
L 764.545551 136.709101 
" clip-path="url(#p1ab45ed928)" style="fill: none; stroke-dasharray: 5.55,2.4; stroke-dashoffset: 0; stroke: #800080; stroke-width: 1.5"/>
   </g>
   <g id="patch_8">
    <path d="M 466.15814 157.5 
L 466.15814 21.6 
" style="fill: none; stroke: #000000; stroke-width: 3; stroke-linejoin: miter; stroke-linecap: square"/>
   </g>
   <g id="patch_9">
    <path d="M 777.6 157.5 
L 777.6 21.6 
" style="fill: none; stroke: #000000; stroke-width: 3; stroke-linejoin: miter; stroke-linecap: square"/>
   </g>
   <g id="patch_10">
    <path d="M 466.15814 157.5 
L 777.6 157.5 
" style="fill: none; stroke: #000000; stroke-width: 3; stroke-linejoin: miter; stroke-linecap: square"/>
   </g>
   <g id="patch_11">
    <path d="M 466.15814 21.6 
L 777.6 21.6 
" style="fill: none; stroke: #000000; stroke-width: 3; stroke-linejoin: miter; stroke-linecap: square"/>
   </g>
   <g id="text_18">
    <text style="font: 20px 'sans-serif'; text-anchor: start" x="481.730233" y="150.705" transform="rotate(-0, 481.730233, 150.705)">chainsaw</text>
   </g>
  </g>
 </g>
 <defs>
  <clipPath id="pf13499faa1">
   <rect x="108" y="21.6" width="311.44186" height="135.9"/>
  </clipPath>
  <clipPath id="p1ab45ed928">
   <rect x="466.15814" y="21.6" width="311.44186" height="135.9"/>
  </clipPath>
 </defs>
</svg>
