<?xml version="1.0" encoding="utf-8" standalone="no"?>
<!DOCTYPE svg PUBLIC "-//W3C//DTD SVG 1.1//EN"
  "http://www.w3.org/Graphics/SVG/1.1/DTD/svg11.dtd">
<svg xmlns:xlink="http://www.w3.org/1999/xlink" width="360pt" height="360pt" viewBox="0 0 360 360" xmlns="http://www.w3.org/2000/svg" version="1.1">
 <metadata>
  <rdf:RDF xmlns:dc="http://purl.org/dc/elements/1.1/" xmlns:cc="http://creativecommons.org/ns#" xmlns:rdf="http://www.w3.org/1999/02/22-rdf-syntax-ns#">
   <cc:Work>
    <dc:type rdf:resource="http://purl.org/dc/dcmitype/StillImage"/>
    <dc:date>2025-07-23T11:35:50.746482</dc:date>
    <dc:format>image/svg+xml</dc:format>
    <dc:creator>
     <cc:Agent>
      <dc:title>Matplotlib v3.10.3, https://matplotlib.org/</dc:title>
     </cc:Agent>
    </dc:creator>
   </cc:Work>
  </rdf:RDF>
 </metadata>
 <defs>
  <style type="text/css">*{stroke-linejoin: round; stroke-linecap: butt}</style>
 </defs>
 <g id="figure_1">
  <g id="patch_1">
   <path d="M 0 360 
L 360 360 
L 360 0 
L 0 0 
z
" style="fill: #ffffff"/>
  </g>
  <g id="axes_1">
   <g id="patch_2">
    <path d="M 45 320.4 
L 324 320.4 
L 324 43.2 
L 45 43.2 
z
" style="fill: #ffffff"/>
   </g>
   <g id="PathCollection_1">
    <defs>
     <path id="md785d80473" d="M 0 6.123724 
C 1.624031 6.123724 3.181764 5.47849 4.330127 4.330127 
C 5.47849 3.181764 6.123724 1.624031 6.123724 0 
C 6.123724 -1.624031 5.47849 -3.181764 4.330127 -4.330127 
C 3.181764 -5.47849 1.624031 -6.123724 0 -6.123724 
C -1.624031 -6.123724 -3.181764 -5.47849 -4.330127 -4.330127 
C -5.47849 -3.181764 -6.123724 -1.624031 -6.123724 0 
C -6.123724 1.624031 -5.47849 3.181764 -4.330127 4.330127 
C -3.181764 5.47849 -1.624031 6.123724 0 6.123724 
z
" style="stroke: #000000; stroke-opacity: 0.6"/>
    </defs>
    <g clip-path="url(#p78e176ff8a)">
     <use xlink:href="#md785d80473" x="45" y="43.2" style="fill: #1f77b4; fill-opacity: 0.6; stroke: #000000; stroke-opacity: 0.6"/>
     <use xlink:href="#md785d80473" x="142.325581" y="259.228628" style="fill: #1f77b4; fill-opacity: 0.6; stroke: #000000; stroke-opacity: 0.6"/>
     <use xlink:href="#md785d80473" x="155.302326" y="259.228628" style="fill: #1f77b4; fill-opacity: 0.6; stroke: #000000; stroke-opacity: 0.6"/>
     <use xlink:href="#md785d80473" x="45" y="43.2" style="fill: #1f77b4; fill-opacity: 0.6; stroke: #000000; stroke-opacity: 0.6"/>
     <use xlink:href="#md785d80473" x="142.325581" y="260.537743" style="fill: #1f77b4; fill-opacity: 0.6; stroke: #000000; stroke-opacity: 0.6"/>
     <use xlink:href="#md785d80473" x="155.302326" y="260.555888" style="fill: #1f77b4; fill-opacity: 0.6; stroke: #000000; stroke-opacity: 0.6"/>
     <use xlink:href="#md785d80473" x="45" y="43.2" style="fill: #1f77b4; fill-opacity: 0.6; stroke: #000000; stroke-opacity: 0.6"/>
     <use xlink:href="#md785d80473" x="45" y="43.2" style="fill: #1f77b4; fill-opacity: 0.6; stroke: #000000; stroke-opacity: 0.6"/>
     <use xlink:href="#md785d80473" x="45" y="43.2" style="fill: #1f77b4; fill-opacity: 0.6; stroke: #000000; stroke-opacity: 0.6"/>
     <use xlink:href="#md785d80473" x="45" y="43.2" style="fill: #1f77b4; fill-opacity: 0.6; stroke: #000000; stroke-opacity: 0.6"/>
     <use xlink:href="#md785d80473" x="45" y="43.2" style="fill: #1f77b4; fill-opacity: 0.6; stroke: #000000; stroke-opacity: 0.6"/>
     <use xlink:href="#md785d80473" x="45" y="43.2" style="fill: #1f77b4; fill-opacity: 0.6; stroke: #000000; stroke-opacity: 0.6"/>
     <use xlink:href="#md785d80473" x="72.575581" y="173.590244" style="fill: #1f77b4; fill-opacity: 0.6; stroke: #000000; stroke-opacity: 0.6"/>
     <use xlink:href="#md785d80473" x="72.575581" y="168.643709" style="fill: #1f77b4; fill-opacity: 0.6; stroke: #000000; stroke-opacity: 0.6"/>
     <use xlink:href="#md785d80473" x="72.575581" y="176.821321" style="fill: #1f77b4; fill-opacity: 0.6; stroke: #000000; stroke-opacity: 0.6"/>
     <use xlink:href="#md785d80473" x="86.74186" y="215.443902" style="fill: #1f77b4; fill-opacity: 0.6; stroke: #000000; stroke-opacity: 0.6"/>
     <use xlink:href="#md785d80473" x="86.74186" y="212.701987" style="fill: #1f77b4; fill-opacity: 0.6; stroke: #000000; stroke-opacity: 0.6"/>
     <use xlink:href="#md785d80473" x="86.74186" y="218.899189" style="fill: #1f77b4; fill-opacity: 0.6; stroke: #000000; stroke-opacity: 0.6"/>
     <use xlink:href="#md785d80473" x="99.610465" y="261.804878" style="fill: #1f77b4; fill-opacity: 0.6; stroke: #000000; stroke-opacity: 0.6"/>
     <use xlink:href="#md785d80473" x="99.610465" y="261.349669" style="fill: #1f77b4; fill-opacity: 0.6; stroke: #000000; stroke-opacity: 0.6"/>
     <use xlink:href="#md785d80473" x="99.610465" y="260.655852" style="fill: #1f77b4; fill-opacity: 0.6; stroke: #000000; stroke-opacity: 0.6"/>
     <use xlink:href="#md785d80473" x="178.119767" y="260.839024" style="fill: #1f77b4; fill-opacity: 0.6; stroke: #000000; stroke-opacity: 0.6"/>
     <use xlink:href="#md785d80473" x="178.119767" y="261.349669" style="fill: #1f77b4; fill-opacity: 0.6; stroke: #000000; stroke-opacity: 0.6"/>
     <use xlink:href="#md785d80473" x="178.119767" y="259.692236" style="fill: #1f77b4; fill-opacity: 0.6; stroke: #000000; stroke-opacity: 0.6"/>
     <use xlink:href="#md785d80473" x="188.393023" y="260.839024" style="fill: #1f77b4; fill-opacity: 0.6; stroke: #000000; stroke-opacity: 0.6"/>
     <use xlink:href="#md785d80473" x="188.393023" y="261.349669" style="fill: #1f77b4; fill-opacity: 0.6; stroke: #000000; stroke-opacity: 0.6"/>
     <use xlink:href="#md785d80473" x="188.393023" y="259.692236" style="fill: #1f77b4; fill-opacity: 0.6; stroke: #000000; stroke-opacity: 0.6"/>
     <use xlink:href="#md785d80473" x="45" y="43.2" style="fill: #1f77b4; fill-opacity: 0.6; stroke: #000000; stroke-opacity: 0.6"/>
     <use xlink:href="#md785d80473" x="65.87093" y="208.792123" style="fill: #1f77b4; fill-opacity: 0.6; stroke: #000000; stroke-opacity: 0.6"/>
     <use xlink:href="#md785d80473" x="171.523256" y="270.358425" style="fill: #1f77b4; fill-opacity: 0.6; stroke: #000000; stroke-opacity: 0.6"/>
     <use xlink:href="#md785d80473" x="185.689535" y="270.661707" style="fill: #1f77b4; fill-opacity: 0.6; stroke: #000000; stroke-opacity: 0.6"/>
     <use xlink:href="#md785d80473" x="45" y="43.2" style="fill: #1f77b4; fill-opacity: 0.6; stroke: #000000; stroke-opacity: 0.6"/>
     <use xlink:href="#md785d80473" x="65.87093" y="187.911111" style="fill: #1f77b4; fill-opacity: 0.6; stroke: #000000; stroke-opacity: 0.6"/>
     <use xlink:href="#md785d80473" x="171.523256" y="268.333333" style="fill: #1f77b4; fill-opacity: 0.6; stroke: #000000; stroke-opacity: 0.6"/>
     <use xlink:href="#md785d80473" x="185.689535" y="268.577778" style="fill: #1f77b4; fill-opacity: 0.6; stroke: #000000; stroke-opacity: 0.6"/>
     <use xlink:href="#md785d80473" x="45" y="43.2" style="fill: #1f77b4; fill-opacity: 0.6; stroke: #000000; stroke-opacity: 0.6"/>
     <use xlink:href="#md785d80473" x="45" y="43.2" style="fill: #1f77b4; fill-opacity: 0.6; stroke: #000000; stroke-opacity: 0.6"/>
     <use xlink:href="#md785d80473" x="45" y="43.2" style="fill: #1f77b4; fill-opacity: 0.6; stroke: #000000; stroke-opacity: 0.6"/>
     <use xlink:href="#md785d80473" x="64.465116" y="94.852174" style="fill: #1f77b4; fill-opacity: 0.6; stroke: #000000; stroke-opacity: 0.6"/>
     <use xlink:href="#md785d80473" x="64.465116" y="95.159462" style="fill: #1f77b4; fill-opacity: 0.6; stroke: #000000; stroke-opacity: 0.6"/>
     <use xlink:href="#md785d80473" x="64.465116" y="114.257609" style="fill: #1f77b4; fill-opacity: 0.6; stroke: #000000; stroke-opacity: 0.6"/>
     <use xlink:href="#md785d80473" x="83.930233" y="146.750311" style="fill: #1f77b4; fill-opacity: 0.6; stroke: #000000; stroke-opacity: 0.6"/>
     <use xlink:href="#md785d80473" x="83.930233" y="147.864753" style="fill: #1f77b4; fill-opacity: 0.6; stroke: #000000; stroke-opacity: 0.6"/>
     <use xlink:href="#md785d80473" x="83.930233" y="167.73913" style="fill: #1f77b4; fill-opacity: 0.6; stroke: #000000; stroke-opacity: 0.6"/>
     <use xlink:href="#md785d80473" x="96.906977" y="179.95528" style="fill: #1f77b4; fill-opacity: 0.6; stroke: #000000; stroke-opacity: 0.6"/>
     <use xlink:href="#md785d80473" x="96.906977" y="181.178475" style="fill: #1f77b4; fill-opacity: 0.6; stroke: #000000; stroke-opacity: 0.6"/>
     <use xlink:href="#md785d80473" x="96.906977" y="200.631522" style="fill: #1f77b4; fill-opacity: 0.6; stroke: #000000; stroke-opacity: 0.6"/>
     <use xlink:href="#md785d80473" x="181.904651" y="260.385093" style="fill: #1f77b4; fill-opacity: 0.6; stroke: #000000; stroke-opacity: 0.6"/>
     <use xlink:href="#md785d80473" x="181.904651" y="260.485022" style="fill: #1f77b4; fill-opacity: 0.6; stroke: #000000; stroke-opacity: 0.6"/>
     <use xlink:href="#md785d80473" x="181.904651" y="261.645652" style="fill: #1f77b4; fill-opacity: 0.6; stroke: #000000; stroke-opacity: 0.6"/>
     <use xlink:href="#md785d80473" x="191.183023" y="261.614907" style="fill: #1f77b4; fill-opacity: 0.6; stroke: #000000; stroke-opacity: 0.6"/>
     <use xlink:href="#md785d80473" x="191.183023" y="260.485022" style="fill: #1f77b4; fill-opacity: 0.6; stroke: #000000; stroke-opacity: 0.6"/>
     <use xlink:href="#md785d80473" x="191.183023" y="262.147826" style="fill: #1f77b4; fill-opacity: 0.6; stroke: #000000; stroke-opacity: 0.6"/>
     <use xlink:href="#md785d80473" x="218.563953" y="262.106832" style="fill: #1f77b4; fill-opacity: 0.6; stroke: #000000; stroke-opacity: 0.6"/>
     <use xlink:href="#md785d80473" x="218.563953" y="260.982242" style="fill: #1f77b4; fill-opacity: 0.6; stroke: #000000; stroke-opacity: 0.6"/>
     <use xlink:href="#md785d80473" x="218.563953" y="262.901087" style="fill: #1f77b4; fill-opacity: 0.6; stroke: #000000; stroke-opacity: 0.6"/>
     <use xlink:href="#md785d80473" x="232.643721" y="263.336646" style="fill: #1f77b4; fill-opacity: 0.6; stroke: #000000; stroke-opacity: 0.6"/>
     <use xlink:href="#md785d80473" x="232.643721" y="262.473901" style="fill: #1f77b4; fill-opacity: 0.6; stroke: #000000; stroke-opacity: 0.6"/>
     <use xlink:href="#md785d80473" x="232.643721" y="263.654348" style="fill: #1f77b4; fill-opacity: 0.6; stroke: #000000; stroke-opacity: 0.6"/>
     <use xlink:href="#md785d80473" x="236.406977" y="264.074534" style="fill: #1f77b4; fill-opacity: 0.6; stroke: #000000; stroke-opacity: 0.6"/>
     <use xlink:href="#md785d80473" x="236.406977" y="262.722511" style="fill: #1f77b4; fill-opacity: 0.6; stroke: #000000; stroke-opacity: 0.6"/>
     <use xlink:href="#md785d80473" x="236.406977" y="264.658696" style="fill: #1f77b4; fill-opacity: 0.6; stroke: #000000; stroke-opacity: 0.6"/>
     <use xlink:href="#md785d80473" x="45" y="43.2" style="fill: #1f77b4; fill-opacity: 0.6; stroke: #000000; stroke-opacity: 0.6"/>
     <use xlink:href="#md785d80473" x="45" y="43.2" style="fill: #1f77b4; fill-opacity: 0.6; stroke: #000000; stroke-opacity: 0.6"/>
     <use xlink:href="#md785d80473" x="45" y="43.2" style="fill: #1f77b4; fill-opacity: 0.6; stroke: #000000; stroke-opacity: 0.6"/>
     <use xlink:href="#md785d80473" x="57.976744" y="89.698065" style="fill: #1f77b4; fill-opacity: 0.6; stroke: #000000; stroke-opacity: 0.6"/>
     <use xlink:href="#md785d80473" x="57.976744" y="87.611613" style="fill: #1f77b4; fill-opacity: 0.6; stroke: #000000; stroke-opacity: 0.6"/>
     <use xlink:href="#md785d80473" x="57.976744" y="87.891429" style="fill: #1f77b4; fill-opacity: 0.6; stroke: #000000; stroke-opacity: 0.6"/>
     <use xlink:href="#md785d80473" x="60.139535" y="144.84" style="fill: #1f77b4; fill-opacity: 0.6; stroke: #000000; stroke-opacity: 0.6"/>
     <use xlink:href="#md785d80473" x="60.139535" y="140.965161" style="fill: #1f77b4; fill-opacity: 0.6; stroke: #000000; stroke-opacity: 0.6"/>
     <use xlink:href="#md785d80473" x="60.139535" y="140.785714" style="fill: #1f77b4; fill-opacity: 0.6; stroke: #000000; stroke-opacity: 0.6"/>
     <use xlink:href="#md785d80473" x="81.767442" y="172.56" style="fill: #1f77b4; fill-opacity: 0.6; stroke: #000000; stroke-opacity: 0.6"/>
     <use xlink:href="#md785d80473" x="81.767442" y="167.492903" style="fill: #1f77b4; fill-opacity: 0.6; stroke: #000000; stroke-opacity: 0.6"/>
     <use xlink:href="#md785d80473" x="81.767442" y="168.222857" style="fill: #1f77b4; fill-opacity: 0.6; stroke: #000000; stroke-opacity: 0.6"/>
     <use xlink:href="#md785d80473" x="182.877907" y="205.049032" style="fill: #1f77b4; fill-opacity: 0.6; stroke: #000000; stroke-opacity: 0.6"/>
     <use xlink:href="#md785d80473" x="182.877907" y="200.28" style="fill: #1f77b4; fill-opacity: 0.6; stroke: #000000; stroke-opacity: 0.6"/>
     <use xlink:href="#md785d80473" x="182.877907" y="199.62" style="fill: #1f77b4; fill-opacity: 0.6; stroke: #000000; stroke-opacity: 0.6"/>
     <use xlink:href="#md785d80473" x="203.965116" y="237.24" style="fill: #1f77b4; fill-opacity: 0.6; stroke: #000000; stroke-opacity: 0.6"/>
     <use xlink:href="#md785d80473" x="203.965116" y="233.96129" style="fill: #1f77b4; fill-opacity: 0.6; stroke: #000000; stroke-opacity: 0.6"/>
     <use xlink:href="#md785d80473" x="203.965116" y="232.431429" style="fill: #1f77b4; fill-opacity: 0.6; stroke: #000000; stroke-opacity: 0.6"/>
     <use xlink:href="#md785d80473" x="220.186047" y="248.566452" style="fill: #1f77b4; fill-opacity: 0.6; stroke: #000000; stroke-opacity: 0.6"/>
     <use xlink:href="#md785d80473" x="220.186047" y="247.076129" style="fill: #1f77b4; fill-opacity: 0.6; stroke: #000000; stroke-opacity: 0.6"/>
     <use xlink:href="#md785d80473" x="220.186047" y="246.574286" style="fill: #1f77b4; fill-opacity: 0.6; stroke: #000000; stroke-opacity: 0.6"/>
     <use xlink:href="#md785d80473" x="313.726744" y="256.316129" style="fill: #1f77b4; fill-opacity: 0.6; stroke: #000000; stroke-opacity: 0.6"/>
     <use xlink:href="#md785d80473" x="313.726744" y="256.316129" style="fill: #1f77b4; fill-opacity: 0.6; stroke: #000000; stroke-opacity: 0.6"/>
     <use xlink:href="#md785d80473" x="313.726744" y="255.908571" style="fill: #1f77b4; fill-opacity: 0.6; stroke: #000000; stroke-opacity: 0.6"/>
     <use xlink:href="#md785d80473" x="317.511628" y="256.018065" style="fill: #1f77b4; fill-opacity: 0.6; stroke: #000000; stroke-opacity: 0.6"/>
     <use xlink:href="#md785d80473" x="317.511628" y="256.614194" style="fill: #1f77b4; fill-opacity: 0.6; stroke: #000000; stroke-opacity: 0.6"/>
     <use xlink:href="#md785d80473" x="317.511628" y="256.474286" style="fill: #1f77b4; fill-opacity: 0.6; stroke: #000000; stroke-opacity: 0.6"/>
    </g>
   </g>
   <g id="FillBetweenPolyCollection_1">
    <defs>
     <path id="m4f696238f1" d="M 45 -340.277596 
L 45 -298.395884 
L 45.648837 -293.708457 
L 46.297674 -289.129816 
L 46.946512 -284.657488 
L 47.595349 -280.289055 
L 48.244186 -276.022151 
L 48.893023 -271.854466 
L 49.54186 -267.783739 
L 50.190698 -263.807763 
L 50.839535 -259.924377 
L 51.488372 -256.131471 
L 52.137209 -252.42698 
L 52.786047 -248.808889 
L 53.434884 -245.275223 
L 54.083721 -241.824057 
L 54.732558 -238.453505 
L 55.381395 -235.161726 
L 56.030233 -231.946918 
L 56.67907 -228.807321 
L 57.327907 -225.741215 
L 57.976744 -222.746918 
L 58.625581 -219.822785 
L 59.274419 -216.967211 
L 59.923256 -214.178622 
L 60.572093 -211.455485 
L 61.22093 -208.796298 
L 61.869767 -206.199594 
L 62.518605 -203.66394 
L 63.167442 -201.187932 
L 63.816279 -198.770202 
L 64.465116 -196.40941 
L 65.113953 -194.104247 
L 65.762791 -191.853433 
L 66.411628 -189.655719 
L 67.060465 -187.509882 
L 67.709302 -185.414727 
L 68.35814 -183.369087 
L 69.006977 -181.37182 
L 69.655814 -179.421811 
L 70.304651 -177.51797 
L 70.953488 -175.659232 
L 71.602326 -173.844555 
L 72.251163 -172.072921 
L 72.9 -170.343336 
L 73.548837 -168.654828 
L 74.197674 -167.006445 
L 74.846512 -165.397261 
L 75.495349 -163.826367 
L 76.144186 -162.292876 
L 76.793023 -160.795922 
L 77.44186 -159.334658 
L 78.090698 -157.908256 
L 78.739535 -156.515906 
L 79.388372 -155.156819 
L 80.037209 -153.830221 
L 80.686047 -152.535358 
L 81.334884 -151.271491 
L 81.983721 -150.0379 
L 82.632558 -148.833881 
L 83.281395 -147.658743 
L 83.930233 -146.511816 
L 84.57907 -145.39244 
L 85.227907 -144.299974 
L 85.876744 -143.23379 
L 86.525581 -142.193274 
L 87.174419 -141.177827 
L 87.823256 -140.186863 
L 88.472093 -139.219809 
L 89.12093 -138.276107 
L 89.769767 -137.355209 
L 90.418605 -136.456581 
L 91.067442 -135.579702 
L 91.716279 -134.724063 
L 92.365116 -133.889164 
L 93.013953 -133.074519 
L 93.662791 -132.279653 
L 94.311628 -131.5041 
L 94.960465 -130.747407 
L 95.609302 -130.00913 
L 96.25814 -129.288836 
L 96.906977 -128.586101 
L 97.555814 -127.900512 
L 98.204651 -127.231664 
L 98.853488 -126.579163 
L 99.502326 -125.942622 
L 100.151163 -125.321665 
L 100.8 -124.715924 
L 101.448837 -124.125038 
L 102.097674 -123.548657 
L 102.746512 -122.986436 
L 103.395349 -122.438042 
L 104.044186 -121.903144 
L 104.693023 -121.381425 
L 105.34186 -120.872571 
L 105.990698 -120.376276 
L 106.639535 -119.892242 
L 107.288372 -119.420177 
L 107.937209 -118.959798 
L 108.586047 -118.510825 
L 109.234884 -118.072986 
L 109.883721 -117.646018 
L 110.532558 -117.229659 
L 111.181395 -116.823657 
L 111.830233 -116.427765 
L 112.47907 -116.04174 
L 113.127907 -115.665348 
L 113.776744 -115.298356 
L 114.425581 -114.940541 
L 115.074419 -114.591682 
L 115.723256 -114.251564 
L 116.372093 -113.919978 
L 117.02093 -113.596719 
L 117.669767 -113.281586 
L 118.318605 -112.974384 
L 118.967442 -112.674922 
L 119.616279 -112.383014 
L 120.265116 -112.098478 
L 120.913953 -111.821135 
L 121.562791 -111.550812 
L 122.211628 -111.28734 
L 122.860465 -111.030552 
L 123.509302 -110.780288 
L 124.15814 -110.536389 
L 124.806977 -110.2987 
L 125.455814 -110.067072 
L 126.104651 -109.841357 
L 126.753488 -109.621411 
L 127.402326 -109.407094 
L 128.051163 -109.19827 
L 128.7 -108.994804 
L 129.348837 -108.796565 
L 129.997674 -108.603427 
L 130.646512 -108.415265 
L 131.295349 -108.231957 
L 131.944186 -108.053385 
L 132.593023 -107.879432 
L 133.24186 -107.709985 
L 133.890698 -107.544934 
L 134.539535 -107.384171 
L 135.188372 -107.227591 
L 135.837209 -107.075091 
L 136.486047 -106.92657 
L 137.134884 -106.781931 
L 137.783721 -106.641077 
L 138.432558 -106.503916 
L 139.081395 -106.370355 
L 139.730233 -106.240307 
L 140.37907 -106.113684 
L 141.027907 -105.990401 
L 141.676744 -105.870376 
L 142.325581 -105.753527 
L 142.974419 -105.639776 
L 143.623256 -105.529046 
L 144.272093 -105.421261 
L 144.92093 -105.316348 
L 145.569767 -105.214236 
L 146.218605 -105.114854 
L 146.867442 -105.018135 
L 147.516279 -104.924011 
L 148.165116 -104.832417 
L 148.813953 -104.743291 
L 149.462791 -104.65657 
L 150.111628 -104.572194 
L 150.760465 -104.490103 
L 151.409302 -104.410241 
L 152.05814 -104.332551 
L 152.706977 -104.256977 
L 153.355814 -104.183468 
L 154.004651 -104.111969 
L 154.653488 -104.042432 
L 155.302326 -103.974805 
L 155.951163 -103.90904 
L 156.6 -103.84509 
L 157.248837 -103.782908 
L 157.897674 -103.722451 
L 158.546512 -103.663672 
L 159.195349 -103.606531 
L 159.844186 -103.550984 
L 160.493023 -103.496991 
L 161.14186 -103.444512 
L 161.790698 -103.393509 
L 162.439535 -103.343942 
L 163.088372 -103.295776 
L 163.737209 -103.248974 
L 164.386047 -103.203501 
L 165.034884 -103.159322 
L 165.683721 -103.116404 
L 166.332558 -103.074715 
L 166.981395 -103.034222 
L 167.630233 -102.994894 
L 168.27907 -102.956701 
L 168.927907 -102.919613 
L 169.576744 -102.883602 
L 170.225581 -102.848639 
L 170.874419 -102.814697 
L 171.523256 -102.781749 
L 172.172093 -102.749768 
L 172.82093 -102.71873 
L 173.469767 -102.68861 
L 174.118605 -102.659383 
L 174.767442 -102.631025 
L 175.416279 -102.603515 
L 176.065116 -102.576828 
L 176.713953 -102.550943 
L 177.362791 -102.52584 
L 178.011628 -102.501496 
L 178.660465 -102.477892 
L 179.309302 -102.455009 
L 179.95814 -102.432825 
L 180.606977 -102.411324 
L 181.255814 -102.390485 
L 181.904651 -102.370293 
L 182.553488 -102.350728 
L 183.202326 -102.331775 
L 183.851163 -102.313416 
L 184.5 -102.295635 
L 185.148837 -102.278417 
L 185.797674 -102.261746 
L 186.446512 -102.245607 
L 187.095349 -102.229986 
L 187.744186 -102.214868 
L 188.393023 -102.20024 
L 189.04186 -102.186088 
L 189.690698 -102.172399 
L 190.339535 -102.15916 
L 190.988372 -102.146359 
L 191.637209 -102.133983 
L 192.286047 -102.12202 
L 192.934884 -102.11046 
L 193.583721 -102.09929 
L 194.232558 -102.0885 
L 194.881395 -102.078079 
L 195.530233 -102.068017 
L 196.17907 -102.058303 
L 196.827907 -102.048928 
L 197.476744 -102.039881 
L 198.125581 -102.031155 
L 198.774419 -102.022738 
L 199.423256 -102.014624 
L 200.072093 -102.006802 
L 200.72093 -101.999264 
L 201.369767 -101.992003 
L 202.018605 -101.98501 
L 202.667442 -101.978277 
L 203.316279 -101.971797 
L 203.965116 -101.965562 
L 204.613953 -101.959566 
L 205.262791 -101.9538 
L 205.911628 -101.948259 
L 206.560465 -101.942936 
L 207.209302 -101.937824 
L 207.85814 -101.932917 
L 208.506977 -101.928208 
L 209.155814 -101.923693 
L 209.804651 -101.919364 
L 210.453488 -101.915217 
L 211.102326 -101.911246 
L 211.751163 -101.907445 
L 212.4 -101.903809 
L 213.048837 -101.900333 
L 213.697674 -101.897013 
L 214.346512 -101.893843 
L 214.995349 -101.890819 
L 215.644186 -101.887936 
L 216.293023 -101.88519 
L 216.94186 -101.882576 
L 217.590698 -101.880091 
L 218.239535 -101.87773 
L 218.888372 -101.875489 
L 219.537209 -101.873365 
L 220.186047 -101.871353 
L 220.834884 -101.86945 
L 221.483721 -101.867653 
L 222.132558 -101.865958 
L 222.781395 -101.864361 
L 223.430233 -101.86286 
L 224.07907 -101.861451 
L 224.727907 -101.860131 
L 225.376744 -101.858898 
L 226.025581 -101.857747 
L 226.674419 -101.856677 
L 227.323256 -101.855685 
L 227.972093 -101.854768 
L 228.62093 -101.853923 
L 229.269767 -101.853148 
L 229.918605 -101.852441 
L 230.567442 -101.851799 
L 231.216279 -101.851219 
L 231.865116 -101.8507 
L 232.513953 -101.85024 
L 233.162791 -101.849835 
L 233.811628 -101.849485 
L 234.460465 -101.849187 
L 235.109302 -101.848939 
L 235.75814 -101.84874 
L 236.406977 -101.848587 
L 237.055814 -101.848478 
L 237.704651 -101.848413 
L 238.353488 -101.848389 
L 239.002326 -101.848405 
L 239.651163 -101.848459 
L 240.3 -101.84855 
L 240.948837 -101.848676 
L 241.597674 -101.848835 
L 242.246512 -101.849027 
L 242.895349 -101.84925 
L 243.544186 -101.849502 
L 244.193023 -101.849783 
L 244.84186 -101.850091 
L 245.490698 -101.850425 
L 246.139535 -101.850784 
L 246.788372 -101.851167 
L 247.437209 -101.851572 
L 248.086047 -101.851998 
L 248.734884 -101.852446 
L 249.383721 -101.852912 
L 250.032558 -101.853398 
L 250.681395 -101.853901 
L 251.330233 -101.854421 
L 251.97907 -101.854956 
L 252.627907 -101.855507 
L 253.276744 -101.856072 
L 253.925581 -101.85665 
L 254.574419 -101.857242 
L 255.223256 -101.857845 
L 255.872093 -101.858459 
L 256.52093 -101.859084 
L 257.169767 -101.859719 
L 257.818605 -101.860363 
L 258.467442 -101.861016 
L 259.116279 -101.861677 
L 259.765116 -101.862345 
L 260.413953 -101.86302 
L 261.062791 -101.863702 
L 261.711628 -101.864389 
L 262.360465 -101.865082 
L 263.009302 -101.86578 
L 263.65814 -101.866482 
L 264.306977 -101.867188 
L 264.955814 -101.867897 
L 265.604651 -101.868609 
L 266.253488 -101.869325 
L 266.902326 -101.870042 
L 267.551163 -101.870761 
L 268.2 -101.871482 
L 268.848837 -101.872205 
L 269.497674 -101.872928 
L 270.146512 -101.873651 
L 270.795349 -101.874375 
L 271.444186 -101.875099 
L 272.093023 -101.875822 
L 272.74186 -101.876545 
L 273.390698 -101.877267 
L 274.039535 -101.877988 
L 274.688372 -101.878707 
L 275.337209 -101.879425 
L 275.986047 -101.880141 
L 276.634884 -101.880855 
L 277.283721 -101.881566 
L 277.932558 -101.882276 
L 278.581395 -101.882982 
L 279.230233 -101.883686 
L 279.87907 -101.884387 
L 280.527907 -101.885085 
L 281.176744 -101.885779 
L 281.825581 -101.886471 
L 282.474419 -101.887158 
L 283.123256 -101.887842 
L 283.772093 -101.888522 
L 284.42093 -101.889198 
L 285.069767 -101.88987 
L 285.718605 -101.890538 
L 286.367442 -101.891201 
L 287.016279 -101.891861 
L 287.665116 -101.892516 
L 288.313953 -101.893166 
L 288.962791 -101.893811 
L 289.611628 -101.894452 
L 290.260465 -101.895089 
L 290.909302 -101.89572 
L 291.55814 -101.896347 
L 292.206977 -101.896968 
L 292.855814 -101.897585 
L 293.504651 -101.898196 
L 294.153488 -101.898803 
L 294.802326 -101.899404 
L 295.451163 -101.9 
L 296.1 -101.900592 
L 296.748837 -101.901177 
L 297.397674 -101.901758 
L 298.046512 -101.902333 
L 298.695349 -101.902903 
L 299.344186 -101.903468 
L 299.993023 -101.904027 
L 300.64186 -101.904581 
L 301.290698 -101.90513 
L 301.939535 -101.905673 
L 302.588372 -101.906211 
L 303.237209 -101.906744 
L 303.886047 -101.907271 
L 304.534884 -101.907793 
L 305.183721 -101.90831 
L 305.832558 -101.908821 
L 306.481395 -101.909327 
L 307.130233 -101.909828 
L 307.77907 -101.910323 
L 308.427907 -101.910813 
L 309.076744 -101.911298 
L 309.725581 -101.911777 
L 310.374419 -101.912251 
L 311.023256 -101.91272 
L 311.672093 -101.913184 
L 312.32093 -101.913642 
L 312.969767 -101.914096 
L 313.618605 -101.914544 
L 314.267442 -101.914987 
L 314.916279 -101.915425 
L 315.565116 -101.915858 
L 316.213953 -101.916286 
L 316.862791 -101.916709 
L 317.511628 -101.917127 
L 318.160465 -101.91754 
L 318.809302 -101.917948 
L 319.45814 -101.918351 
L 320.106977 -101.918749 
L 320.755814 -101.919143 
L 321.404651 -101.919531 
L 322.053488 -101.919915 
L 322.702326 -101.920295 
L 323.351163 -101.920669 
L 323.351163 -102.049437 
L 323.351163 -102.049437 
L 322.702326 -102.05139 
L 322.053488 -102.05338 
L 321.404651 -102.055408 
L 320.755814 -102.057474 
L 320.106977 -102.059579 
L 319.45814 -102.061723 
L 318.809302 -102.063908 
L 318.160465 -102.066133 
L 317.511628 -102.068401 
L 316.862791 -102.070711 
L 316.213953 -102.073065 
L 315.565116 -102.075463 
L 314.916279 -102.077906 
L 314.267442 -102.080394 
L 313.618605 -102.08293 
L 312.969767 -102.085513 
L 312.32093 -102.088145 
L 311.672093 -102.090826 
L 311.023256 -102.093558 
L 310.374419 -102.096341 
L 309.725581 -102.099176 
L 309.076744 -102.102064 
L 308.427907 -102.105007 
L 307.77907 -102.108005 
L 307.130233 -102.111059 
L 306.481395 -102.11417 
L 305.832558 -102.11734 
L 305.183721 -102.120569 
L 304.534884 -102.123859 
L 303.886047 -102.12721 
L 303.237209 -102.130624 
L 302.588372 -102.134103 
L 301.939535 -102.137646 
L 301.290698 -102.141256 
L 300.64186 -102.144934 
L 299.993023 -102.14868 
L 299.344186 -102.152497 
L 298.695349 -102.156385 
L 298.046512 -102.160346 
L 297.397674 -102.164382 
L 296.748837 -102.168493 
L 296.1 -102.17268 
L 295.451163 -102.176947 
L 294.802326 -102.181293 
L 294.153488 -102.18572 
L 293.504651 -102.190231 
L 292.855814 -102.194825 
L 292.206977 -102.199506 
L 291.55814 -102.204274 
L 290.909302 -102.209132 
L 290.260465 -102.21408 
L 289.611628 -102.219121 
L 288.962791 -102.224256 
L 288.313953 -102.229487 
L 287.665116 -102.234816 
L 287.016279 -102.240244 
L 286.367442 -102.245774 
L 285.718605 -102.251408 
L 285.069767 -102.257146 
L 284.42093 -102.262992 
L 283.772093 -102.268947 
L 283.123256 -102.275013 
L 282.474419 -102.281192 
L 281.825581 -102.287487 
L 281.176744 -102.293899 
L 280.527907 -102.300431 
L 279.87907 -102.307084 
L 279.230233 -102.313862 
L 278.581395 -102.320766 
L 277.932558 -102.3278 
L 277.283721 -102.334964 
L 276.634884 -102.342262 
L 275.986047 -102.349696 
L 275.337209 -102.357268 
L 274.688372 -102.364982 
L 274.039535 -102.372839 
L 273.390698 -102.380843 
L 272.74186 -102.388996 
L 272.093023 -102.397301 
L 271.444186 -102.40576 
L 270.795349 -102.414377 
L 270.146512 -102.423155 
L 269.497674 -102.432096 
L 268.848837 -102.441203 
L 268.2 -102.45048 
L 267.551163 -102.459929 
L 266.902326 -102.469554 
L 266.253488 -102.479358 
L 265.604651 -102.489345 
L 264.955814 -102.499517 
L 264.306977 -102.509879 
L 263.65814 -102.520433 
L 263.009302 -102.531183 
L 262.360465 -102.542133 
L 261.711628 -102.553287 
L 261.062791 -102.564647 
L 260.413953 -102.576219 
L 259.765116 -102.588006 
L 259.116279 -102.600011 
L 258.467442 -102.61224 
L 257.818605 -102.624695 
L 257.169767 -102.637382 
L 256.52093 -102.650304 
L 255.872093 -102.663466 
L 255.223256 -102.676872 
L 254.574419 -102.690527 
L 253.925581 -102.704434 
L 253.276744 -102.7186 
L 252.627907 -102.733029 
L 251.97907 -102.747725 
L 251.330233 -102.762693 
L 250.681395 -102.777938 
L 250.032558 -102.793466 
L 249.383721 -102.809282 
L 248.734884 -102.825391 
L 248.086047 -102.841797 
L 247.437209 -102.858508 
L 246.788372 -102.875528 
L 246.139535 -102.892863 
L 245.490698 -102.910519 
L 244.84186 -102.928501 
L 244.193023 -102.946816 
L 243.544186 -102.96547 
L 242.895349 -102.984468 
L 242.246512 -103.003818 
L 241.597674 -103.023526 
L 240.948837 -103.043598 
L 240.3 -103.06404 
L 239.651163 -103.084861 
L 239.002326 -103.106066 
L 238.353488 -103.127662 
L 237.704651 -103.149658 
L 237.055814 -103.172059 
L 236.406977 -103.194874 
L 235.75814 -103.21811 
L 235.109302 -103.241775 
L 234.460465 -103.265876 
L 233.811628 -103.290422 
L 233.162791 -103.31542 
L 232.513953 -103.340879 
L 231.865116 -103.366808 
L 231.216279 -103.393214 
L 230.567442 -103.420108 
L 229.918605 -103.447496 
L 229.269767 -103.475389 
L 228.62093 -103.503796 
L 227.972093 -103.532726 
L 227.323256 -103.562188 
L 226.674419 -103.592193 
L 226.025581 -103.622749 
L 225.376744 -103.653868 
L 224.727907 -103.68556 
L 224.07907 -103.717834 
L 223.430233 -103.750702 
L 222.781395 -103.784174 
L 222.132558 -103.818261 
L 221.483721 -103.852974 
L 220.834884 -103.888326 
L 220.186047 -103.924326 
L 219.537209 -103.960988 
L 218.888372 -103.998323 
L 218.239535 -104.036344 
L 217.590698 -104.075062 
L 216.94186 -104.114491 
L 216.293023 -104.154643 
L 215.644186 -104.195531 
L 214.995349 -104.23717 
L 214.346512 -104.279572 
L 213.697674 -104.322751 
L 213.048837 -104.366721 
L 212.4 -104.411497 
L 211.751163 -104.457094 
L 211.102326 -104.503525 
L 210.453488 -104.550807 
L 209.804651 -104.598955 
L 209.155814 -104.647983 
L 208.506977 -104.697909 
L 207.85814 -104.748749 
L 207.209302 -104.800518 
L 206.560465 -104.853234 
L 205.911628 -104.906914 
L 205.262791 -104.961575 
L 204.613953 -105.017234 
L 203.965116 -105.073911 
L 203.316279 -105.131624 
L 202.667442 -105.19039 
L 202.018605 -105.250229 
L 201.369767 -105.311161 
L 200.72093 -105.373204 
L 200.072093 -105.43638 
L 199.423256 -105.500708 
L 198.774419 -105.566209 
L 198.125581 -105.632905 
L 197.476744 -105.700816 
L 196.827907 -105.769966 
L 196.17907 -105.840375 
L 195.530233 -105.912066 
L 194.881395 -105.985063 
L 194.232558 -106.05939 
L 193.583721 -106.135069 
L 192.934884 -106.212126 
L 192.286047 -106.290584 
L 191.637209 -106.37047 
L 190.988372 -106.451809 
L 190.339535 -106.534626 
L 189.690698 -106.618949 
L 189.04186 -106.704804 
L 188.393023 -106.792218 
L 187.744186 -106.881221 
L 187.095349 -106.97184 
L 186.446512 -107.064103 
L 185.797674 -107.158041 
L 185.148837 -107.253684 
L 184.5 -107.351062 
L 183.851163 -107.450205 
L 183.202326 -107.551146 
L 182.553488 -107.653917 
L 181.904651 -107.75855 
L 181.255814 -107.865079 
L 180.606977 -107.973537 
L 179.95814 -108.083958 
L 179.309302 -108.196379 
L 178.660465 -108.310834 
L 178.011628 -108.42736 
L 177.362791 -108.545994 
L 176.713953 -108.666772 
L 176.065116 -108.789735 
L 175.416279 -108.914919 
L 174.767442 -109.042365 
L 174.118605 -109.172114 
L 173.469767 -109.304205 
L 172.82093 -109.438681 
L 172.172093 -109.575583 
L 171.523256 -109.714956 
L 170.874419 -109.856843 
L 170.225581 -110.001288 
L 169.576744 -110.148338 
L 168.927907 -110.298037 
L 168.27907 -110.450434 
L 167.630233 -110.605575 
L 166.981395 -110.76351 
L 166.332558 -110.924288 
L 165.683721 -111.08796 
L 165.034884 -111.254576 
L 164.386047 -111.424189 
L 163.737209 -111.596851 
L 163.088372 -111.772617 
L 162.439535 -111.951541 
L 161.790698 -112.133679 
L 161.14186 -112.319088 
L 160.493023 -112.507826 
L 159.844186 -112.699951 
L 159.195349 -112.895523 
L 158.546512 -113.094603 
L 157.897674 -113.297253 
L 157.248837 -113.503535 
L 156.6 -113.713514 
L 155.951163 -113.927254 
L 155.302326 -114.144822 
L 154.653488 -114.366285 
L 154.004651 -114.591711 
L 153.355814 -114.82117 
L 152.706977 -115.054733 
L 152.05814 -115.292472 
L 151.409302 -115.534461 
L 150.760465 -115.780773 
L 150.111628 -116.031484 
L 149.462791 -116.286673 
L 148.813953 -116.546416 
L 148.165116 -116.810794 
L 147.516279 -117.079888 
L 146.867442 -117.35378 
L 146.218605 -117.632555 
L 145.569767 -117.916297 
L 144.92093 -118.205093 
L 144.272093 -118.499033 
L 143.623256 -118.798204 
L 142.974419 -119.102699 
L 142.325581 -119.412611 
L 141.676744 -119.728034 
L 141.027907 -120.049063 
L 140.37907 -120.375798 
L 139.730233 -120.708335 
L 139.081395 -121.046778 
L 138.432558 -121.391228 
L 137.783721 -121.74179 
L 137.134884 -122.09857 
L 136.486047 -122.461676 
L 135.837209 -122.831217 
L 135.188372 -123.207306 
L 134.539535 -123.590056 
L 133.890698 -123.979581 
L 133.24186 -124.376001 
L 132.593023 -124.779433 
L 131.944186 -125.19 
L 131.295349 -125.607824 
L 130.646512 -126.033031 
L 129.997674 -126.465749 
L 129.348837 -126.906107 
L 128.7 -127.354237 
L 128.051163 -127.810273 
L 127.402326 -128.274351 
L 126.753488 -128.74661 
L 126.104651 -129.227191 
L 125.455814 -129.716237 
L 124.806977 -130.213893 
L 124.15814 -130.720308 
L 123.509302 -131.235632 
L 122.860465 -131.760018 
L 122.211628 -132.293621 
L 121.562791 -132.8366 
L 120.913953 -133.389115 
L 120.265116 -133.951329 
L 119.616279 -134.523409 
L 118.967442 -135.105524 
L 118.318605 -135.697844 
L 117.669767 -136.300545 
L 117.02093 -136.913804 
L 116.372093 -137.537801 
L 115.723256 -138.172718 
L 115.074419 -138.818743 
L 114.425581 -139.476065 
L 113.776744 -140.144875 
L 113.127907 -140.82537 
L 112.47907 -141.517748 
L 111.830233 -142.222211 
L 111.181395 -142.938964 
L 110.532558 -143.668216 
L 109.883721 -144.410179 
L 109.234884 -145.165069 
L 108.586047 -145.933103 
L 107.937209 -146.714506 
L 107.288372 -147.509503 
L 106.639535 -148.318323 
L 105.990698 -149.141201 
L 105.34186 -149.978373 
L 104.693023 -150.830082 
L 104.044186 -151.696571 
L 103.395349 -152.578091 
L 102.746512 -153.474893 
L 102.097674 -154.387236 
L 101.448837 -155.31538 
L 100.8 -156.259591 
L 100.151163 -157.220138 
L 99.502326 -158.197296 
L 98.853488 -159.191344 
L 98.204651 -160.202563 
L 97.555814 -161.231242 
L 96.906977 -162.277672 
L 96.25814 -163.34215 
L 95.609302 -164.424978 
L 94.960465 -165.526462 
L 94.311628 -166.646913 
L 93.662791 -167.786646 
L 93.013953 -168.945983 
L 92.365116 -170.12525 
L 91.716279 -171.324779 
L 91.067442 -172.544905 
L 90.418605 -173.785971 
L 89.769767 -175.048323 
L 89.12093 -176.332315 
L 88.472093 -177.638305 
L 87.823256 -178.966656 
L 87.174419 -180.317738 
L 86.525581 -181.691926 
L 85.876744 -183.089601 
L 85.227907 -184.511151 
L 84.57907 -185.956969 
L 83.930233 -187.427454 
L 83.281395 -188.923012 
L 82.632558 -190.444053 
L 81.983721 -191.990997 
L 81.334884 -193.564268 
L 80.686047 -195.164298 
L 80.037209 -196.791524 
L 79.388372 -198.44639 
L 78.739535 -200.129349 
L 78.090698 -201.840858 
L 77.44186 -203.581383 
L 76.793023 -205.351397 
L 76.144186 -207.151378 
L 75.495349 -208.981816 
L 74.846512 -210.843203 
L 74.197674 -212.736041 
L 73.548837 -214.660842 
L 72.9 -216.618121 
L 72.251163 -218.608404 
L 71.602326 -220.632224 
L 70.953488 -222.690123 
L 70.304651 -224.782649 
L 69.655814 -226.910361 
L 69.006977 -229.073823 
L 68.35814 -231.273611 
L 67.709302 -233.510308 
L 67.060465 -235.784504 
L 66.411628 -238.096802 
L 65.762791 -240.447809 
L 65.113953 -242.838145 
L 64.465116 -245.268437 
L 63.816279 -247.739321 
L 63.167442 -250.251445 
L 62.518605 -252.805464 
L 61.869767 -255.402043 
L 61.22093 -258.041857 
L 60.572093 -260.725592 
L 59.923256 -263.453941 
L 59.274419 -266.227611 
L 58.625581 -269.047317 
L 57.976744 -271.913783 
L 57.327907 -274.827747 
L 56.67907 -277.789955 
L 56.030233 -280.801165 
L 55.381395 -283.862144 
L 54.732558 -286.973672 
L 54.083721 -290.13654 
L 53.434884 -293.35155 
L 52.786047 -296.619513 
L 52.137209 -299.941256 
L 51.488372 -303.317614 
L 50.839535 -306.749435 
L 50.190698 -310.237579 
L 49.54186 -313.782919 
L 48.893023 -317.386337 
L 48.244186 -321.048732 
L 47.595349 -324.771011 
L 46.946512 -328.554096 
L 46.297674 -332.398922 
L 45.648837 -336.306435 
L 45 -340.277596 
z
" style="stroke: #add8e6; stroke-opacity: 0.5"/>
    </defs>
    <g clip-path="url(#p78e176ff8a)">
     <use xlink:href="#m4f696238f1" x="0" y="360" style="fill: #add8e6; fill-opacity: 0.5; stroke: #add8e6; stroke-opacity: 0.5"/>
    </g>
   </g>
   <g id="FillBetweenPolyCollection_2">
    <defs>
     <path id="m4cfc6bdc02" d="M 25.534884 -73.879237 
L 25.534884 -67.344263 
L 26.183721 -67.344263 
L 26.832558 -67.344263 
L 27.481395 -67.344263 
L 28.130233 -67.344263 
L 28.77907 -67.344263 
L 29.427907 -67.344263 
L 30.076744 -67.344263 
L 30.725581 -67.344263 
L 31.374419 -67.344263 
L 32.023256 -67.344263 
L 32.672093 -67.344263 
L 33.32093 -67.344263 
L 33.969767 -67.344263 
L 34.618605 -67.344263 
L 35.267442 -67.344263 
L 35.916279 -67.344263 
L 36.565116 -67.344263 
L 37.213953 -67.344263 
L 37.862791 -67.344263 
L 38.511628 -67.344263 
L 39.160465 -67.344263 
L 39.809302 -67.344263 
L 40.45814 -67.344263 
L 41.106977 -67.344263 
L 41.755814 -67.344263 
L 42.404651 -67.344263 
L 43.053488 -67.344263 
L 43.702326 -67.344263 
L 44.351163 -67.344263 
L 45 -67.344263 
L 45.648837 -67.344263 
L 46.297674 -67.344263 
L 46.946512 -67.344263 
L 47.595349 -67.344263 
L 48.244186 -67.344263 
L 48.893023 -67.344263 
L 49.54186 -67.344263 
L 50.190698 -67.344263 
L 50.839535 -67.344263 
L 51.488372 -67.344263 
L 52.137209 -67.344263 
L 52.786047 -67.344263 
L 53.434884 -67.344263 
L 54.083721 -67.344263 
L 54.732558 -67.344263 
L 55.381395 -67.344263 
L 56.030233 -67.344263 
L 56.67907 -67.344263 
L 57.327907 -67.344263 
L 57.976744 -67.344263 
L 58.625581 -67.344263 
L 59.274419 -67.344263 
L 59.923256 -67.344263 
L 60.572093 -67.344263 
L 61.22093 -67.344263 
L 61.869767 -67.344263 
L 62.518605 -67.344263 
L 63.167442 -67.344263 
L 63.816279 -67.344263 
L 64.465116 -67.344263 
L 65.113953 -67.344263 
L 65.762791 -67.344263 
L 66.411628 -67.344263 
L 67.060465 -67.344263 
L 67.709302 -67.344263 
L 68.35814 -67.344263 
L 69.006977 -67.344263 
L 69.655814 -67.344263 
L 70.304651 -67.344263 
L 70.953488 -67.344263 
L 71.602326 -67.344263 
L 72.251163 -67.344263 
L 72.9 -67.344263 
L 73.548837 -67.344263 
L 74.197674 -67.344263 
L 74.846512 -67.344263 
L 75.495349 -67.344263 
L 76.144186 -67.344263 
L 76.793023 -67.344263 
L 77.44186 -67.344263 
L 78.090698 -67.344263 
L 78.739535 -67.344263 
L 79.388372 -67.344263 
L 80.037209 -67.344263 
L 80.686047 -67.344263 
L 81.334884 -67.344263 
L 81.983721 -67.344263 
L 82.632558 -67.344263 
L 83.281395 -67.344263 
L 83.930233 -67.344263 
L 84.57907 -67.344263 
L 85.227907 -67.344263 
L 85.876744 -67.344263 
L 86.525581 -67.344263 
L 87.174419 -67.344263 
L 87.823256 -67.344263 
L 88.472093 -67.344263 
L 89.12093 -67.344263 
L 89.769767 -67.344263 
L 90.418605 -67.344263 
L 91.067442 -67.344263 
L 91.716279 -67.344263 
L 92.365116 -67.344263 
L 93.013953 -67.344263 
L 93.662791 -67.344263 
L 94.311628 -67.344263 
L 94.960465 -67.344263 
L 95.609302 -67.344263 
L 96.25814 -67.344263 
L 96.906977 -67.344263 
L 97.555814 -67.344263 
L 98.204651 -67.344263 
L 98.853488 -67.344263 
L 99.502326 -67.344263 
L 100.151163 -67.344263 
L 100.8 -67.344263 
L 101.448837 -67.344263 
L 102.097674 -67.344263 
L 102.746512 -67.344263 
L 103.395349 -67.344263 
L 104.044186 -67.344263 
L 104.693023 -67.344263 
L 105.34186 -67.344263 
L 105.990698 -67.344263 
L 106.639535 -67.344263 
L 107.288372 -67.344263 
L 107.937209 -67.344263 
L 108.586047 -67.344263 
L 109.234884 -67.344263 
L 109.883721 -67.344263 
L 110.532558 -67.344263 
L 111.181395 -67.344263 
L 111.830233 -67.344263 
L 112.47907 -67.344263 
L 113.127907 -67.344263 
L 113.776744 -67.344263 
L 114.425581 -67.344263 
L 115.074419 -67.344263 
L 115.723256 -67.344263 
L 116.372093 -67.344263 
L 117.02093 -67.344263 
L 117.669767 -67.344263 
L 118.318605 -67.344263 
L 118.967442 -67.344263 
L 119.616279 -67.344263 
L 120.265116 -67.344263 
L 120.913953 -67.344263 
L 121.562791 -67.344263 
L 122.211628 -67.344263 
L 122.860465 -67.344263 
L 123.509302 -67.344263 
L 124.15814 -67.344263 
L 124.806977 -67.344263 
L 125.455814 -67.344263 
L 126.104651 -67.344263 
L 126.753488 -67.344263 
L 127.402326 -67.344263 
L 128.051163 -67.344263 
L 128.7 -67.344263 
L 129.348837 -67.344263 
L 129.997674 -67.344263 
L 130.646512 -67.344263 
L 131.295349 -67.344263 
L 131.944186 -67.344263 
L 132.593023 -67.344263 
L 133.24186 -67.344263 
L 133.890698 -67.344263 
L 134.539535 -67.344263 
L 135.188372 -67.344263 
L 135.837209 -67.344263 
L 136.486047 -67.344263 
L 137.134884 -67.344263 
L 137.783721 -67.344263 
L 138.432558 -67.344263 
L 139.081395 -67.344263 
L 139.730233 -67.344263 
L 140.37907 -67.344263 
L 141.027907 -67.344263 
L 141.676744 -67.344263 
L 142.325581 -67.344263 
L 142.974419 -67.344263 
L 143.623256 -67.344263 
L 144.272093 -67.344263 
L 144.92093 -67.344263 
L 145.569767 -67.344263 
L 146.218605 -67.344263 
L 146.867442 -67.344263 
L 147.516279 -67.344263 
L 148.165116 -67.344263 
L 148.813953 -67.344263 
L 149.462791 -67.344263 
L 150.111628 -67.344263 
L 150.760465 -67.344263 
L 151.409302 -67.344263 
L 152.05814 -67.344263 
L 152.706977 -67.344263 
L 153.355814 -67.344263 
L 154.004651 -67.344263 
L 154.653488 -67.344263 
L 155.302326 -67.344263 
L 155.951163 -67.344263 
L 156.6 -67.344263 
L 157.248837 -67.344263 
L 157.897674 -67.344263 
L 158.546512 -67.344263 
L 159.195349 -67.344263 
L 159.844186 -67.344263 
L 160.493023 -67.344263 
L 161.14186 -67.344263 
L 161.790698 -67.344263 
L 162.439535 -67.344263 
L 163.088372 -67.344263 
L 163.737209 -67.344263 
L 164.386047 -67.344263 
L 165.034884 -67.344263 
L 165.683721 -67.344263 
L 166.332558 -67.344263 
L 166.981395 -67.344263 
L 167.630233 -67.344263 
L 168.27907 -67.344263 
L 168.927907 -67.344263 
L 169.576744 -67.344263 
L 170.225581 -67.344263 
L 170.874419 -67.344263 
L 171.523256 -67.344263 
L 172.172093 -67.344263 
L 172.82093 -67.344263 
L 173.469767 -67.344263 
L 174.118605 -67.344263 
L 174.767442 -67.344263 
L 175.416279 -67.344263 
L 176.065116 -67.344263 
L 176.713953 -67.344263 
L 177.362791 -67.344263 
L 178.011628 -67.344263 
L 178.660465 -67.344263 
L 179.309302 -67.344263 
L 179.95814 -67.344263 
L 180.606977 -67.344263 
L 181.255814 -67.344263 
L 181.904651 -67.344263 
L 182.553488 -67.344263 
L 183.202326 -67.344263 
L 183.851163 -67.344263 
L 184.5 -67.344263 
L 185.148837 -67.344263 
L 185.797674 -67.344263 
L 186.446512 -67.344263 
L 187.095349 -67.344263 
L 187.744186 -67.344263 
L 188.393023 -67.344263 
L 189.04186 -67.344263 
L 189.690698 -67.344263 
L 190.339535 -67.344263 
L 190.988372 -67.344263 
L 191.637209 -67.344263 
L 192.286047 -67.344263 
L 192.934884 -67.344263 
L 193.583721 -67.344263 
L 194.232558 -67.344263 
L 194.881395 -67.344263 
L 195.530233 -67.344263 
L 196.17907 -67.344263 
L 196.827907 -67.344263 
L 197.476744 -67.344263 
L 198.125581 -67.344263 
L 198.774419 -67.344263 
L 199.423256 -67.344263 
L 200.072093 -67.344263 
L 200.72093 -67.344263 
L 201.369767 -67.344263 
L 202.018605 -67.344263 
L 202.667442 -67.344263 
L 203.316279 -67.344263 
L 203.965116 -67.344263 
L 204.613953 -67.344263 
L 205.262791 -67.344263 
L 205.911628 -67.344263 
L 206.560465 -67.344263 
L 207.209302 -67.344263 
L 207.85814 -67.344263 
L 208.506977 -67.344263 
L 209.155814 -67.344263 
L 209.804651 -67.344263 
L 210.453488 -67.344263 
L 211.102326 -67.344263 
L 211.751163 -67.344263 
L 212.4 -67.344263 
L 213.048837 -67.344263 
L 213.697674 -67.344263 
L 214.346512 -67.344263 
L 214.995349 -67.344263 
L 215.644186 -67.344263 
L 216.293023 -67.344263 
L 216.94186 -67.344263 
L 217.590698 -67.344263 
L 218.239535 -67.344263 
L 218.888372 -67.344263 
L 219.537209 -67.344263 
L 220.186047 -67.344263 
L 220.834884 -67.344263 
L 221.483721 -67.344263 
L 222.132558 -67.344263 
L 222.781395 -67.344263 
L 223.430233 -67.344263 
L 224.07907 -67.344263 
L 224.727907 -67.344263 
L 225.376744 -67.344263 
L 226.025581 -67.344263 
L 226.674419 -67.344263 
L 227.323256 -67.344263 
L 227.972093 -67.344263 
L 228.62093 -67.344263 
L 229.269767 -67.344263 
L 229.918605 -67.344263 
L 230.567442 -67.344263 
L 231.216279 -67.344263 
L 231.865116 -67.344263 
L 232.513953 -67.344263 
L 233.162791 -67.344263 
L 233.811628 -67.344263 
L 234.460465 -67.344263 
L 235.109302 -67.344263 
L 235.75814 -67.344263 
L 236.406977 -67.344263 
L 237.055814 -67.344263 
L 237.704651 -67.344263 
L 238.353488 -67.344263 
L 239.002326 -67.344263 
L 239.651163 -67.344263 
L 240.3 -67.344263 
L 240.948837 -67.344263 
L 241.597674 -67.344263 
L 242.246512 -67.344263 
L 242.895349 -67.344263 
L 243.544186 -67.344263 
L 244.193023 -67.344263 
L 244.84186 -67.344263 
L 245.490698 -67.344263 
L 246.139535 -67.344263 
L 246.788372 -67.344263 
L 247.437209 -67.344263 
L 248.086047 -67.344263 
L 248.734884 -67.344263 
L 249.383721 -67.344263 
L 250.032558 -67.344263 
L 250.681395 -67.344263 
L 251.330233 -67.344263 
L 251.97907 -67.344263 
L 252.627907 -67.344263 
L 253.276744 -67.344263 
L 253.925581 -67.344263 
L 254.574419 -67.344263 
L 255.223256 -67.344263 
L 255.872093 -67.344263 
L 256.52093 -67.344263 
L 257.169767 -67.344263 
L 257.818605 -67.344263 
L 258.467442 -67.344263 
L 259.116279 -67.344263 
L 259.765116 -67.344263 
L 260.413953 -67.344263 
L 261.062791 -67.344263 
L 261.711628 -67.344263 
L 262.360465 -67.344263 
L 263.009302 -67.344263 
L 263.65814 -67.344263 
L 264.306977 -67.344263 
L 264.955814 -67.344263 
L 265.604651 -67.344263 
L 266.253488 -67.344263 
L 266.902326 -67.344263 
L 267.551163 -67.344263 
L 268.2 -67.344263 
L 268.848837 -67.344263 
L 269.497674 -67.344263 
L 270.146512 -67.344263 
L 270.795349 -67.344263 
L 271.444186 -67.344263 
L 272.093023 -67.344263 
L 272.74186 -67.344263 
L 273.390698 -67.344263 
L 274.039535 -67.344263 
L 274.688372 -67.344263 
L 275.337209 -67.344263 
L 275.986047 -67.344263 
L 276.634884 -67.344263 
L 277.283721 -67.344263 
L 277.932558 -67.344263 
L 278.581395 -67.344263 
L 279.230233 -67.344263 
L 279.87907 -67.344263 
L 280.527907 -67.344263 
L 281.176744 -67.344263 
L 281.825581 -67.344263 
L 282.474419 -67.344263 
L 283.123256 -67.344263 
L 283.772093 -67.344263 
L 284.42093 -67.344263 
L 285.069767 -67.344263 
L 285.718605 -67.344263 
L 286.367442 -67.344263 
L 287.016279 -67.344263 
L 287.665116 -67.344263 
L 288.313953 -67.344263 
L 288.962791 -67.344263 
L 289.611628 -67.344263 
L 290.260465 -67.344263 
L 290.909302 -67.344263 
L 291.55814 -67.344263 
L 292.206977 -67.344263 
L 292.855814 -67.344263 
L 293.504651 -67.344263 
L 294.153488 -67.344263 
L 294.802326 -67.344263 
L 295.451163 -67.344263 
L 296.1 -67.344263 
L 296.748837 -67.344263 
L 297.397674 -67.344263 
L 298.046512 -67.344263 
L 298.695349 -67.344263 
L 299.344186 -67.344263 
L 299.993023 -67.344263 
L 300.64186 -67.344263 
L 301.290698 -67.344263 
L 301.939535 -67.344263 
L 302.588372 -67.344263 
L 303.237209 -67.344263 
L 303.886047 -67.344263 
L 304.534884 -67.344263 
L 305.183721 -67.344263 
L 305.832558 -67.344263 
L 306.481395 -67.344263 
L 307.130233 -67.344263 
L 307.77907 -67.344263 
L 308.427907 -67.344263 
L 309.076744 -67.344263 
L 309.725581 -67.344263 
L 310.374419 -67.344263 
L 311.023256 -67.344263 
L 311.672093 -67.344263 
L 312.32093 -67.344263 
L 312.969767 -67.344263 
L 313.618605 -67.344263 
L 314.267442 -67.344263 
L 314.916279 -67.344263 
L 315.565116 -67.344263 
L 316.213953 -67.344263 
L 316.862791 -67.344263 
L 317.511628 -67.344263 
L 318.160465 -67.344263 
L 318.809302 -67.344263 
L 319.45814 -67.344263 
L 320.106977 -67.344263 
L 320.755814 -67.344263 
L 321.404651 -67.344263 
L 322.053488 -67.344263 
L 322.702326 -67.344263 
L 323.351163 -67.344263 
L 323.351163 -73.879237 
L 323.351163 -73.879237 
L 322.702326 -73.879237 
L 322.053488 -73.879237 
L 321.404651 -73.879237 
L 320.755814 -73.879237 
L 320.106977 -73.879237 
L 319.45814 -73.879237 
L 318.809302 -73.879237 
L 318.160465 -73.879237 
L 317.511628 -73.879237 
L 316.862791 -73.879237 
L 316.213953 -73.879237 
L 315.565116 -73.879237 
L 314.916279 -73.879237 
L 314.267442 -73.879237 
L 313.618605 -73.879237 
L 312.969767 -73.879237 
L 312.32093 -73.879237 
L 311.672093 -73.879237 
L 311.023256 -73.879237 
L 310.374419 -73.879237 
L 309.725581 -73.879237 
L 309.076744 -73.879237 
L 308.427907 -73.879237 
L 307.77907 -73.879237 
L 307.130233 -73.879237 
L 306.481395 -73.879237 
L 305.832558 -73.879237 
L 305.183721 -73.879237 
L 304.534884 -73.879237 
L 303.886047 -73.879237 
L 303.237209 -73.879237 
L 302.588372 -73.879237 
L 301.939535 -73.879237 
L 301.290698 -73.879237 
L 300.64186 -73.879237 
L 299.993023 -73.879237 
L 299.344186 -73.879237 
L 298.695349 -73.879237 
L 298.046512 -73.879237 
L 297.397674 -73.879237 
L 296.748837 -73.879237 
L 296.1 -73.879237 
L 295.451163 -73.879237 
L 294.802326 -73.879237 
L 294.153488 -73.879237 
L 293.504651 -73.879237 
L 292.855814 -73.879237 
L 292.206977 -73.879237 
L 291.55814 -73.879237 
L 290.909302 -73.879237 
L 290.260465 -73.879237 
L 289.611628 -73.879237 
L 288.962791 -73.879237 
L 288.313953 -73.879237 
L 287.665116 -73.879237 
L 287.016279 -73.879237 
L 286.367442 -73.879237 
L 285.718605 -73.879237 
L 285.069767 -73.879237 
L 284.42093 -73.879237 
L 283.772093 -73.879237 
L 283.123256 -73.879237 
L 282.474419 -73.879237 
L 281.825581 -73.879237 
L 281.176744 -73.879237 
L 280.527907 -73.879237 
L 279.87907 -73.879237 
L 279.230233 -73.879237 
L 278.581395 -73.879237 
L 277.932558 -73.879237 
L 277.283721 -73.879237 
L 276.634884 -73.879237 
L 275.986047 -73.879237 
L 275.337209 -73.879237 
L 274.688372 -73.879237 
L 274.039535 -73.879237 
L 273.390698 -73.879237 
L 272.74186 -73.879237 
L 272.093023 -73.879237 
L 271.444186 -73.879237 
L 270.795349 -73.879237 
L 270.146512 -73.879237 
L 269.497674 -73.879237 
L 268.848837 -73.879237 
L 268.2 -73.879237 
L 267.551163 -73.879237 
L 266.902326 -73.879237 
L 266.253488 -73.879237 
L 265.604651 -73.879237 
L 264.955814 -73.879237 
L 264.306977 -73.879237 
L 263.65814 -73.879237 
L 263.009302 -73.879237 
L 262.360465 -73.879237 
L 261.711628 -73.879237 
L 261.062791 -73.879237 
L 260.413953 -73.879237 
L 259.765116 -73.879237 
L 259.116279 -73.879237 
L 258.467442 -73.879237 
L 257.818605 -73.879237 
L 257.169767 -73.879237 
L 256.52093 -73.879237 
L 255.872093 -73.879237 
L 255.223256 -73.879237 
L 254.574419 -73.879237 
L 253.925581 -73.879237 
L 253.276744 -73.879237 
L 252.627907 -73.879237 
L 251.97907 -73.879237 
L 251.330233 -73.879237 
L 250.681395 -73.879237 
L 250.032558 -73.879237 
L 249.383721 -73.879237 
L 248.734884 -73.879237 
L 248.086047 -73.879237 
L 247.437209 -73.879237 
L 246.788372 -73.879237 
L 246.139535 -73.879237 
L 245.490698 -73.879237 
L 244.84186 -73.879237 
L 244.193023 -73.879237 
L 243.544186 -73.879237 
L 242.895349 -73.879237 
L 242.246512 -73.879237 
L 241.597674 -73.879237 
L 240.948837 -73.879237 
L 240.3 -73.879237 
L 239.651163 -73.879237 
L 239.002326 -73.879237 
L 238.353488 -73.879237 
L 237.704651 -73.879237 
L 237.055814 -73.879237 
L 236.406977 -73.879237 
L 235.75814 -73.879237 
L 235.109302 -73.879237 
L 234.460465 -73.879237 
L 233.811628 -73.879237 
L 233.162791 -73.879237 
L 232.513953 -73.879237 
L 231.865116 -73.879237 
L 231.216279 -73.879237 
L 230.567442 -73.879237 
L 229.918605 -73.879237 
L 229.269767 -73.879237 
L 228.62093 -73.879237 
L 227.972093 -73.879237 
L 227.323256 -73.879237 
L 226.674419 -73.879237 
L 226.025581 -73.879237 
L 225.376744 -73.879237 
L 224.727907 -73.879237 
L 224.07907 -73.879237 
L 223.430233 -73.879237 
L 222.781395 -73.879237 
L 222.132558 -73.879237 
L 221.483721 -73.879237 
L 220.834884 -73.879237 
L 220.186047 -73.879237 
L 219.537209 -73.879237 
L 218.888372 -73.879237 
L 218.239535 -73.879237 
L 217.590698 -73.879237 
L 216.94186 -73.879237 
L 216.293023 -73.879237 
L 215.644186 -73.879237 
L 214.995349 -73.879237 
L 214.346512 -73.879237 
L 213.697674 -73.879237 
L 213.048837 -73.879237 
L 212.4 -73.879237 
L 211.751163 -73.879237 
L 211.102326 -73.879237 
L 210.453488 -73.879237 
L 209.804651 -73.879237 
L 209.155814 -73.879237 
L 208.506977 -73.879237 
L 207.85814 -73.879237 
L 207.209302 -73.879237 
L 206.560465 -73.879237 
L 205.911628 -73.879237 
L 205.262791 -73.879237 
L 204.613953 -73.879237 
L 203.965116 -73.879237 
L 203.316279 -73.879237 
L 202.667442 -73.879237 
L 202.018605 -73.879237 
L 201.369767 -73.879237 
L 200.72093 -73.879237 
L 200.072093 -73.879237 
L 199.423256 -73.879237 
L 198.774419 -73.879237 
L 198.125581 -73.879237 
L 197.476744 -73.879237 
L 196.827907 -73.879237 
L 196.17907 -73.879237 
L 195.530233 -73.879237 
L 194.881395 -73.879237 
L 194.232558 -73.879237 
L 193.583721 -73.879237 
L 192.934884 -73.879237 
L 192.286047 -73.879237 
L 191.637209 -73.879237 
L 190.988372 -73.879237 
L 190.339535 -73.879237 
L 189.690698 -73.879237 
L 189.04186 -73.879237 
L 188.393023 -73.879237 
L 187.744186 -73.879237 
L 187.095349 -73.879237 
L 186.446512 -73.879237 
L 185.797674 -73.879237 
L 185.148837 -73.879237 
L 184.5 -73.879237 
L 183.851163 -73.879237 
L 183.202326 -73.879237 
L 182.553488 -73.879237 
L 181.904651 -73.879237 
L 181.255814 -73.879237 
L 180.606977 -73.879237 
L 179.95814 -73.879237 
L 179.309302 -73.879237 
L 178.660465 -73.879237 
L 178.011628 -73.879237 
L 177.362791 -73.879237 
L 176.713953 -73.879237 
L 176.065116 -73.879237 
L 175.416279 -73.879237 
L 174.767442 -73.879237 
L 174.118605 -73.879237 
L 173.469767 -73.879237 
L 172.82093 -73.879237 
L 172.172093 -73.879237 
L 171.523256 -73.879237 
L 170.874419 -73.879237 
L 170.225581 -73.879237 
L 169.576744 -73.879237 
L 168.927907 -73.879237 
L 168.27907 -73.879237 
L 167.630233 -73.879237 
L 166.981395 -73.879237 
L 166.332558 -73.879237 
L 165.683721 -73.879237 
L 165.034884 -73.879237 
L 164.386047 -73.879237 
L 163.737209 -73.879237 
L 163.088372 -73.879237 
L 162.439535 -73.879237 
L 161.790698 -73.879237 
L 161.14186 -73.879237 
L 160.493023 -73.879237 
L 159.844186 -73.879237 
L 159.195349 -73.879237 
L 158.546512 -73.879237 
L 157.897674 -73.879237 
L 157.248837 -73.879237 
L 156.6 -73.879237 
L 155.951163 -73.879237 
L 155.302326 -73.879237 
L 154.653488 -73.879237 
L 154.004651 -73.879237 
L 153.355814 -73.879237 
L 152.706977 -73.879237 
L 152.05814 -73.879237 
L 151.409302 -73.879237 
L 150.760465 -73.879237 
L 150.111628 -73.879237 
L 149.462791 -73.879237 
L 148.813953 -73.879237 
L 148.165116 -73.879237 
L 147.516279 -73.879237 
L 146.867442 -73.879237 
L 146.218605 -73.879237 
L 145.569767 -73.879237 
L 144.92093 -73.879237 
L 144.272093 -73.879237 
L 143.623256 -73.879237 
L 142.974419 -73.879237 
L 142.325581 -73.879237 
L 141.676744 -73.879237 
L 141.027907 -73.879237 
L 140.37907 -73.879237 
L 139.730233 -73.879237 
L 139.081395 -73.879237 
L 138.432558 -73.879237 
L 137.783721 -73.879237 
L 137.134884 -73.879237 
L 136.486047 -73.879237 
L 135.837209 -73.879237 
L 135.188372 -73.879237 
L 134.539535 -73.879237 
L 133.890698 -73.879237 
L 133.24186 -73.879237 
L 132.593023 -73.879237 
L 131.944186 -73.879237 
L 131.295349 -73.879237 
L 130.646512 -73.879237 
L 129.997674 -73.879237 
L 129.348837 -73.879237 
L 128.7 -73.879237 
L 128.051163 -73.879237 
L 127.402326 -73.879237 
L 126.753488 -73.879237 
L 126.104651 -73.879237 
L 125.455814 -73.879237 
L 124.806977 -73.879237 
L 124.15814 -73.879237 
L 123.509302 -73.879237 
L 122.860465 -73.879237 
L 122.211628 -73.879237 
L 121.562791 -73.879237 
L 120.913953 -73.879237 
L 120.265116 -73.879237 
L 119.616279 -73.879237 
L 118.967442 -73.879237 
L 118.318605 -73.879237 
L 117.669767 -73.879237 
L 117.02093 -73.879237 
L 116.372093 -73.879237 
L 115.723256 -73.879237 
L 115.074419 -73.879237 
L 114.425581 -73.879237 
L 113.776744 -73.879237 
L 113.127907 -73.879237 
L 112.47907 -73.879237 
L 111.830233 -73.879237 
L 111.181395 -73.879237 
L 110.532558 -73.879237 
L 109.883721 -73.879237 
L 109.234884 -73.879237 
L 108.586047 -73.879237 
L 107.937209 -73.879237 
L 107.288372 -73.879237 
L 106.639535 -73.879237 
L 105.990698 -73.879237 
L 105.34186 -73.879237 
L 104.693023 -73.879237 
L 104.044186 -73.879237 
L 103.395349 -73.879237 
L 102.746512 -73.879237 
L 102.097674 -73.879237 
L 101.448837 -73.879237 
L 100.8 -73.879237 
L 100.151163 -73.879237 
L 99.502326 -73.879237 
L 98.853488 -73.879237 
L 98.204651 -73.879237 
L 97.555814 -73.879237 
L 96.906977 -73.879237 
L 96.25814 -73.879237 
L 95.609302 -73.879237 
L 94.960465 -73.879237 
L 94.311628 -73.879237 
L 93.662791 -73.879237 
L 93.013953 -73.879237 
L 92.365116 -73.879237 
L 91.716279 -73.879237 
L 91.067442 -73.879237 
L 90.418605 -73.879237 
L 89.769767 -73.879237 
L 89.12093 -73.879237 
L 88.472093 -73.879237 
L 87.823256 -73.879237 
L 87.174419 -73.879237 
L 86.525581 -73.879237 
L 85.876744 -73.879237 
L 85.227907 -73.879237 
L 84.57907 -73.879237 
L 83.930233 -73.879237 
L 83.281395 -73.879237 
L 82.632558 -73.879237 
L 81.983721 -73.879237 
L 81.334884 -73.879237 
L 80.686047 -73.879237 
L 80.037209 -73.879237 
L 79.388372 -73.879237 
L 78.739535 -73.879237 
L 78.090698 -73.879237 
L 77.44186 -73.879237 
L 76.793023 -73.879237 
L 76.144186 -73.879237 
L 75.495349 -73.879237 
L 74.846512 -73.879237 
L 74.197674 -73.879237 
L 73.548837 -73.879237 
L 72.9 -73.879237 
L 72.251163 -73.879237 
L 71.602326 -73.879237 
L 70.953488 -73.879237 
L 70.304651 -73.879237 
L 69.655814 -73.879237 
L 69.006977 -73.879237 
L 68.35814 -73.879237 
L 67.709302 -73.879237 
L 67.060465 -73.879237 
L 66.411628 -73.879237 
L 65.762791 -73.879237 
L 65.113953 -73.879237 
L 64.465116 -73.879237 
L 63.816279 -73.879237 
L 63.167442 -73.879237 
L 62.518605 -73.879237 
L 61.869767 -73.879237 
L 61.22093 -73.879237 
L 60.572093 -73.879237 
L 59.923256 -73.879237 
L 59.274419 -73.879237 
L 58.625581 -73.879237 
L 57.976744 -73.879237 
L 57.327907 -73.879237 
L 56.67907 -73.879237 
L 56.030233 -73.879237 
L 55.381395 -73.879237 
L 54.732558 -73.879237 
L 54.083721 -73.879237 
L 53.434884 -73.879237 
L 52.786047 -73.879237 
L 52.137209 -73.879237 
L 51.488372 -73.879237 
L 50.839535 -73.879237 
L 50.190698 -73.879237 
L 49.54186 -73.879237 
L 48.893023 -73.879237 
L 48.244186 -73.879237 
L 47.595349 -73.879237 
L 46.946512 -73.879237 
L 46.297674 -73.879237 
L 45.648837 -73.879237 
L 45 -73.879237 
L 44.351163 -73.879237 
L 43.702326 -73.879237 
L 43.053488 -73.879237 
L 42.404651 -73.879237 
L 41.755814 -73.879237 
L 41.106977 -73.879237 
L 40.45814 -73.879237 
L 39.809302 -73.879237 
L 39.160465 -73.879237 
L 38.511628 -73.879237 
L 37.862791 -73.879237 
L 37.213953 -73.879237 
L 36.565116 -73.879237 
L 35.916279 -73.879237 
L 35.267442 -73.879237 
L 34.618605 -73.879237 
L 33.969767 -73.879237 
L 33.32093 -73.879237 
L 32.672093 -73.879237 
L 32.023256 -73.879237 
L 31.374419 -73.879237 
L 30.725581 -73.879237 
L 30.076744 -73.879237 
L 29.427907 -73.879237 
L 28.77907 -73.879237 
L 28.130233 -73.879237 
L 27.481395 -73.879237 
L 26.832558 -73.879237 
L 26.183721 -73.879237 
L 25.534884 -73.879237 
z
" style="stroke: #f08080; stroke-opacity: 0.5"/>
    </defs>
    <g clip-path="url(#p78e176ff8a)">
     <use xlink:href="#m4cfc6bdc02" x="0" y="360" style="fill: #f08080; fill-opacity: 0.5; stroke: #f08080; stroke-opacity: 0.5"/>
    </g>
   </g>
   <g id="matplotlib.axis_1">
    <g id="xtick_1">
     <g id="line2d_1">
      <defs>
       <path id="m563ce691f7" d="M 0 0 
L 0 10 
" style="stroke: #000000; stroke-width: 3"/>
      </defs>
      <g>
       <use xlink:href="#m563ce691f7" x="45" y="320.4" style="stroke: #000000; stroke-width: 3"/>
      </g>
     </g>
     <g id="text_1">
      <!-- 0 -->
      <g transform="translate(38.6375 349.096875) scale(0.2 -0.2)">
       <defs>
        <path id="DejaVuSans-30" d="M 2034 4250 
Q 1547 4250 1301 3770 
Q 1056 3291 1056 2328 
Q 1056 1369 1301 889 
Q 1547 409 2034 409 
Q 2525 409 2770 889 
Q 3016 1369 3016 2328 
Q 3016 3291 2770 3770 
Q 2525 4250 2034 4250 
z
M 2034 4750 
Q 2819 4750 3233 4129 
Q 3647 3509 3647 2328 
Q 3647 1150 3233 529 
Q 2819 -91 2034 -91 
Q 1250 -91 836 529 
Q 422 1150 422 2328 
Q 422 3509 836 4129 
Q 1250 4750 2034 4750 
z
" transform="scale(0.015625)"/>
       </defs>
       <use xlink:href="#DejaVuSans-30"/>
      </g>
     </g>
    </g>
    <g id="xtick_2">
     <g id="line2d_2">
      <g>
       <use xlink:href="#m563ce691f7" x="174.767442" y="320.4" style="stroke: #000000; stroke-width: 3"/>
      </g>
     </g>
     <g id="text_2">
      <!-- 20 -->
      <g transform="translate(162.042442 349.096875) scale(0.2 -0.2)">
       <defs>
        <path id="DejaVuSans-32" d="M 1228 531 
L 3431 531 
L 3431 0 
L 469 0 
L 469 531 
Q 828 903 1448 1529 
Q 2069 2156 2228 2338 
Q 2531 2678 2651 2914 
Q 2772 3150 2772 3378 
Q 2772 3750 2511 3984 
Q 2250 4219 1831 4219 
Q 1534 4219 1204 4116 
Q 875 4013 500 3803 
L 500 4441 
Q 881 4594 1212 4672 
Q 1544 4750 1819 4750 
Q 2544 4750 2975 4387 
Q 3406 4025 3406 3419 
Q 3406 3131 3298 2873 
Q 3191 2616 2906 2266 
Q 2828 2175 2409 1742 
Q 1991 1309 1228 531 
z
" transform="scale(0.015625)"/>
       </defs>
       <use xlink:href="#DejaVuSans-32"/>
       <use xlink:href="#DejaVuSans-30" transform="translate(63.623047 0)"/>
      </g>
     </g>
    </g>
    <g id="xtick_3">
     <g id="line2d_3">
      <g>
       <use xlink:href="#m563ce691f7" x="304.534884" y="320.4" style="stroke: #000000; stroke-width: 3"/>
      </g>
     </g>
     <g id="text_3">
      <!-- 40 -->
      <g transform="translate(291.809884 349.096875) scale(0.2 -0.2)">
       <defs>
        <path id="DejaVuSans-34" d="M 2419 4116 
L 825 1625 
L 2419 1625 
L 2419 4116 
z
M 2253 4666 
L 3047 4666 
L 3047 1625 
L 3713 1625 
L 3713 1100 
L 3047 1100 
L 3047 0 
L 2419 0 
L 2419 1100 
L 313 1100 
L 313 1709 
L 2253 4666 
z
" transform="scale(0.015625)"/>
       </defs>
       <use xlink:href="#DejaVuSans-34"/>
       <use xlink:href="#DejaVuSans-30" transform="translate(63.623047 0)"/>
      </g>
     </g>
    </g>
    <g id="text_4">
     <!-- time (h) -->
     <g transform="translate(144.589063 372.453125) scale(0.2 -0.2)">
      <defs>
       <path id="DejaVuSans-74" d="M 1172 4494 
L 1172 3500 
L 2356 3500 
L 2356 3053 
L 1172 3053 
L 1172 1153 
Q 1172 725 1289 603 
Q 1406 481 1766 481 
L 2356 481 
L 2356 0 
L 1766 0 
Q 1100 0 847 248 
Q 594 497 594 1153 
L 594 3053 
L 172 3053 
L 172 3500 
L 594 3500 
L 594 4494 
L 1172 4494 
z
" transform="scale(0.015625)"/>
       <path id="DejaVuSans-69" d="M 603 3500 
L 1178 3500 
L 1178 0 
L 603 0 
L 603 3500 
z
M 603 4863 
L 1178 4863 
L 1178 4134 
L 603 4134 
L 603 4863 
z
" transform="scale(0.015625)"/>
       <path id="DejaVuSans-6d" d="M 3328 2828 
Q 3544 3216 3844 3400 
Q 4144 3584 4550 3584 
Q 5097 3584 5394 3201 
Q 5691 2819 5691 2113 
L 5691 0 
L 5113 0 
L 5113 2094 
Q 5113 2597 4934 2840 
Q 4756 3084 4391 3084 
Q 3944 3084 3684 2787 
Q 3425 2491 3425 1978 
L 3425 0 
L 2847 0 
L 2847 2094 
Q 2847 2600 2669 2842 
Q 2491 3084 2119 3084 
Q 1678 3084 1418 2786 
Q 1159 2488 1159 1978 
L 1159 0 
L 581 0 
L 581 3500 
L 1159 3500 
L 1159 2956 
Q 1356 3278 1631 3431 
Q 1906 3584 2284 3584 
Q 2666 3584 2933 3390 
Q 3200 3197 3328 2828 
z
" transform="scale(0.015625)"/>
       <path id="DejaVuSans-65" d="M 3597 1894 
L 3597 1613 
L 953 1613 
Q 991 1019 1311 708 
Q 1631 397 2203 397 
Q 2534 397 2845 478 
Q 3156 559 3463 722 
L 3463 178 
Q 3153 47 2828 -22 
Q 2503 -91 2169 -91 
Q 1331 -91 842 396 
Q 353 884 353 1716 
Q 353 2575 817 3079 
Q 1281 3584 2069 3584 
Q 2775 3584 3186 3129 
Q 3597 2675 3597 1894 
z
M 3022 2063 
Q 3016 2534 2758 2815 
Q 2500 3097 2075 3097 
Q 1594 3097 1305 2825 
Q 1016 2553 972 2059 
L 3022 2063 
z
" transform="scale(0.015625)"/>
       <path id="DejaVuSans-20" transform="scale(0.015625)"/>
       <path id="DejaVuSans-28" d="M 1984 4856 
Q 1566 4138 1362 3434 
Q 1159 2731 1159 2009 
Q 1159 1288 1364 580 
Q 1569 -128 1984 -844 
L 1484 -844 
Q 1016 -109 783 600 
Q 550 1309 550 2009 
Q 550 2706 781 3412 
Q 1013 4119 1484 4856 
L 1984 4856 
z
" transform="scale(0.015625)"/>
       <path id="DejaVuSans-68" d="M 3513 2113 
L 3513 0 
L 2938 0 
L 2938 2094 
Q 2938 2591 2744 2837 
Q 2550 3084 2163 3084 
Q 1697 3084 1428 2787 
Q 1159 2491 1159 1978 
L 1159 0 
L 581 0 
L 581 4863 
L 1159 4863 
L 1159 2956 
Q 1366 3272 1645 3428 
Q 1925 3584 2291 3584 
Q 2894 3584 3203 3211 
Q 3513 2838 3513 2113 
z
" transform="scale(0.015625)"/>
       <path id="DejaVuSans-29" d="M 513 4856 
L 1013 4856 
Q 1481 4119 1714 3412 
Q 1947 2706 1947 2009 
Q 1947 1309 1714 600 
Q 1481 -109 1013 -844 
L 513 -844 
Q 928 -128 1133 580 
Q 1338 1288 1338 2009 
Q 1338 2731 1133 3434 
Q 928 4138 513 4856 
z
" transform="scale(0.015625)"/>
      </defs>
      <use xlink:href="#DejaVuSans-74"/>
      <use xlink:href="#DejaVuSans-69" transform="translate(39.208984 0)"/>
      <use xlink:href="#DejaVuSans-6d" transform="translate(66.992188 0)"/>
      <use xlink:href="#DejaVuSans-65" transform="translate(164.404297 0)"/>
      <use xlink:href="#DejaVuSans-20" transform="translate(225.927734 0)"/>
      <use xlink:href="#DejaVuSans-28" transform="translate(257.714844 0)"/>
      <use xlink:href="#DejaVuSans-68" transform="translate(296.728516 0)"/>
      <use xlink:href="#DejaVuSans-29" transform="translate(360.107422 0)"/>
     </g>
    </g>
   </g>
   <g id="matplotlib.axis_2">
    <g id="ytick_1">
     <g id="line2d_4">
      <defs>
       <path id="m632d993e05" d="M 0 0 
L -10 0 
" style="stroke: #000000; stroke-width: 3"/>
      </defs>
      <g>
       <use xlink:href="#m632d993e05" x="45" y="320.4" style="stroke: #000000; stroke-width: 3"/>
      </g>
     </g>
     <g id="text_5">
      <!-- 0 -->
      <g transform="translate(18.775 327.998438) scale(0.2 -0.2)">
       <use xlink:href="#DejaVuSans-30"/>
      </g>
     </g>
    </g>
    <g id="ytick_2">
     <g id="line2d_5">
      <g>
       <use xlink:href="#m632d993e05" x="45" y="264.96" style="stroke: #000000; stroke-width: 3"/>
      </g>
     </g>
     <g id="text_6">
      <!-- 20 -->
      <g transform="translate(6.05 272.558437) scale(0.2 -0.2)">
       <use xlink:href="#DejaVuSans-32"/>
       <use xlink:href="#DejaVuSans-30" transform="translate(63.623047 0)"/>
      </g>
     </g>
    </g>
    <g id="ytick_3">
     <g id="line2d_6">
      <g>
       <use xlink:href="#m632d993e05" x="45" y="209.52" style="stroke: #000000; stroke-width: 3"/>
      </g>
     </g>
     <g id="text_7">
      <!-- 40 -->
      <g transform="translate(6.05 217.118437) scale(0.2 -0.2)">
       <use xlink:href="#DejaVuSans-34"/>
       <use xlink:href="#DejaVuSans-30" transform="translate(63.623047 0)"/>
      </g>
     </g>
    </g>
    <g id="ytick_4">
     <g id="line2d_7">
      <g>
       <use xlink:href="#m632d993e05" x="45" y="154.08" style="stroke: #000000; stroke-width: 3"/>
      </g>
     </g>
     <g id="text_8">
      <!-- 60 -->
      <g transform="translate(6.05 161.678437) scale(0.2 -0.2)">
       <defs>
        <path id="DejaVuSans-36" d="M 2113 2584 
Q 1688 2584 1439 2293 
Q 1191 2003 1191 1497 
Q 1191 994 1439 701 
Q 1688 409 2113 409 
Q 2538 409 2786 701 
Q 3034 994 3034 1497 
Q 3034 2003 2786 2293 
Q 2538 2584 2113 2584 
z
M 3366 4563 
L 3366 3988 
Q 3128 4100 2886 4159 
Q 2644 4219 2406 4219 
Q 1781 4219 1451 3797 
Q 1122 3375 1075 2522 
Q 1259 2794 1537 2939 
Q 1816 3084 2150 3084 
Q 2853 3084 3261 2657 
Q 3669 2231 3669 1497 
Q 3669 778 3244 343 
Q 2819 -91 2113 -91 
Q 1303 -91 875 529 
Q 447 1150 447 2328 
Q 447 3434 972 4092 
Q 1497 4750 2381 4750 
Q 2619 4750 2861 4703 
Q 3103 4656 3366 4563 
z
" transform="scale(0.015625)"/>
       </defs>
       <use xlink:href="#DejaVuSans-36"/>
       <use xlink:href="#DejaVuSans-30" transform="translate(63.623047 0)"/>
      </g>
     </g>
    </g>
    <g id="ytick_5">
     <g id="line2d_8">
      <g>
       <use xlink:href="#m632d993e05" x="45" y="98.64" style="stroke: #000000; stroke-width: 3"/>
      </g>
     </g>
     <g id="text_9">
      <!-- 80 -->
      <g transform="translate(6.05 106.238437) scale(0.2 -0.2)">
       <defs>
        <path id="DejaVuSans-38" d="M 2034 2216 
Q 1584 2216 1326 1975 
Q 1069 1734 1069 1313 
Q 1069 891 1326 650 
Q 1584 409 2034 409 
Q 2484 409 2743 651 
Q 3003 894 3003 1313 
Q 3003 1734 2745 1975 
Q 2488 2216 2034 2216 
z
M 1403 2484 
Q 997 2584 770 2862 
Q 544 3141 544 3541 
Q 544 4100 942 4425 
Q 1341 4750 2034 4750 
Q 2731 4750 3128 4425 
Q 3525 4100 3525 3541 
Q 3525 3141 3298 2862 
Q 3072 2584 2669 2484 
Q 3125 2378 3379 2068 
Q 3634 1759 3634 1313 
Q 3634 634 3220 271 
Q 2806 -91 2034 -91 
Q 1263 -91 848 271 
Q 434 634 434 1313 
Q 434 1759 690 2068 
Q 947 2378 1403 2484 
z
M 1172 3481 
Q 1172 3119 1398 2916 
Q 1625 2713 2034 2713 
Q 2441 2713 2670 2916 
Q 2900 3119 2900 3481 
Q 2900 3844 2670 4047 
Q 2441 4250 2034 4250 
Q 1625 4250 1398 4047 
Q 1172 3844 1172 3481 
z
" transform="scale(0.015625)"/>
       </defs>
       <use xlink:href="#DejaVuSans-38"/>
       <use xlink:href="#DejaVuSans-30" transform="translate(63.623047 0)"/>
      </g>
     </g>
    </g>
    <g id="ytick_6">
     <g id="line2d_9">
      <g>
       <use xlink:href="#m632d993e05" x="45" y="43.2" style="stroke: #000000; stroke-width: 3"/>
      </g>
     </g>
     <g id="text_10">
      <!-- 100 -->
      <g transform="translate(-6.675 50.798437) scale(0.2 -0.2)">
       <defs>
        <path id="DejaVuSans-31" d="M 794 531 
L 1825 531 
L 1825 4091 
L 703 3866 
L 703 4441 
L 1819 4666 
L 2450 4666 
L 2450 531 
L 3481 531 
L 3481 0 
L 794 0 
L 794 531 
z
" transform="scale(0.015625)"/>
       </defs>
       <use xlink:href="#DejaVuSans-31"/>
       <use xlink:href="#DejaVuSans-30" transform="translate(63.623047 0)"/>
       <use xlink:href="#DejaVuSans-30" transform="translate(127.246094 0)"/>
      </g>
     </g>
    </g>
    <g id="text_11">
     <!-- mass % -->
     <g transform="translate(-14.834375 220.767187) rotate(-90) scale(0.2 -0.2)">
      <defs>
       <path id="DejaVuSans-61" d="M 2194 1759 
Q 1497 1759 1228 1600 
Q 959 1441 959 1056 
Q 959 750 1161 570 
Q 1363 391 1709 391 
Q 2188 391 2477 730 
Q 2766 1069 2766 1631 
L 2766 1759 
L 2194 1759 
z
M 3341 1997 
L 3341 0 
L 2766 0 
L 2766 531 
Q 2569 213 2275 61 
Q 1981 -91 1556 -91 
Q 1019 -91 701 211 
Q 384 513 384 1019 
Q 384 1609 779 1909 
Q 1175 2209 1959 2209 
L 2766 2209 
L 2766 2266 
Q 2766 2663 2505 2880 
Q 2244 3097 1772 3097 
Q 1472 3097 1187 3025 
Q 903 2953 641 2809 
L 641 3341 
Q 956 3463 1253 3523 
Q 1550 3584 1831 3584 
Q 2591 3584 2966 3190 
Q 3341 2797 3341 1997 
z
" transform="scale(0.015625)"/>
       <path id="DejaVuSans-73" d="M 2834 3397 
L 2834 2853 
Q 2591 2978 2328 3040 
Q 2066 3103 1784 3103 
Q 1356 3103 1142 2972 
Q 928 2841 928 2578 
Q 928 2378 1081 2264 
Q 1234 2150 1697 2047 
L 1894 2003 
Q 2506 1872 2764 1633 
Q 3022 1394 3022 966 
Q 3022 478 2636 193 
Q 2250 -91 1575 -91 
Q 1294 -91 989 -36 
Q 684 19 347 128 
L 347 722 
Q 666 556 975 473 
Q 1284 391 1588 391 
Q 1994 391 2212 530 
Q 2431 669 2431 922 
Q 2431 1156 2273 1281 
Q 2116 1406 1581 1522 
L 1381 1569 
Q 847 1681 609 1914 
Q 372 2147 372 2553 
Q 372 3047 722 3315 
Q 1072 3584 1716 3584 
Q 2034 3584 2315 3537 
Q 2597 3491 2834 3397 
z
" transform="scale(0.015625)"/>
       <path id="DejaVuSans-25" d="M 4653 2053 
Q 4381 2053 4226 1822 
Q 4072 1591 4072 1178 
Q 4072 772 4226 539 
Q 4381 306 4653 306 
Q 4919 306 5073 539 
Q 5228 772 5228 1178 
Q 5228 1588 5073 1820 
Q 4919 2053 4653 2053 
z
M 4653 2450 
Q 5147 2450 5437 2106 
Q 5728 1763 5728 1178 
Q 5728 594 5436 251 
Q 5144 -91 4653 -91 
Q 4153 -91 3862 251 
Q 3572 594 3572 1178 
Q 3572 1766 3864 2108 
Q 4156 2450 4653 2450 
z
M 1428 4353 
Q 1159 4353 1004 4120 
Q 850 3888 850 3481 
Q 850 3069 1003 2837 
Q 1156 2606 1428 2606 
Q 1700 2606 1854 2837 
Q 2009 3069 2009 3481 
Q 2009 3884 1853 4118 
Q 1697 4353 1428 4353 
z
M 4250 4750 
L 4750 4750 
L 1831 -91 
L 1331 -91 
L 4250 4750 
z
M 1428 4750 
Q 1922 4750 2215 4408 
Q 2509 4066 2509 3481 
Q 2509 2891 2217 2550 
Q 1925 2209 1428 2209 
Q 931 2209 642 2551 
Q 353 2894 353 3481 
Q 353 4063 643 4406 
Q 934 4750 1428 4750 
z
" transform="scale(0.015625)"/>
      </defs>
      <use xlink:href="#DejaVuSans-6d"/>
      <use xlink:href="#DejaVuSans-61" transform="translate(97.412109 0)"/>
      <use xlink:href="#DejaVuSans-73" transform="translate(158.691406 0)"/>
      <use xlink:href="#DejaVuSans-73" transform="translate(210.791016 0)"/>
      <use xlink:href="#DejaVuSans-20" transform="translate(262.890625 0)"/>
      <use xlink:href="#DejaVuSans-25" transform="translate(294.677734 0)"/>
     </g>
    </g>
   </g>
   <g id="line2d_10">
    <path d="M 45 40.66326 
L 47.595349 57.469967 
L 50.190698 72.977329 
L 52.786047 87.285799 
L 55.381395 100.488065 
L 57.976744 112.669649 
L 60.572093 123.909462 
L 63.167442 134.280311 
L 65.762791 143.849379 
L 68.35814 152.678651 
L 70.953488 160.825322 
L 73.548837 168.342165 
L 76.144186 175.277873 
L 78.739535 181.677373 
L 81.334884 187.58212 
L 83.930233 193.030365 
L 86.525581 198.0574 
L 89.12093 202.695789 
L 92.365116 207.992793 
L 95.609302 212.782946 
L 98.853488 217.114747 
L 102.097674 221.032054 
L 105.34186 224.574528 
L 108.586047 227.778036 
L 111.830233 230.675012 
L 115.074419 233.294787 
L 118.318605 235.663886 
L 122.211628 238.209519 
L 126.104651 240.465726 
L 129.997674 242.465412 
L 133.890698 244.237742 
L 138.432558 246.052428 
L 142.974419 247.628762 
L 148.165116 249.178394 
L 153.355814 250.497681 
L 159.195349 251.748973 
L 165.683721 252.897818 
L 172.82093 253.921295 
L 180.606977 254.80757 
L 189.690698 255.604326 
L 200.072093 256.278409 
L 212.4 256.842347 
L 227.323256 257.291063 
L 246.788372 257.636653 
L 274.039535 257.874587 
L 318.160465 258.008163 
L 323.351163 258.014947 
L 323.351163 258.014947 
" clip-path="url(#p78e176ff8a)" style="fill: none; stroke: #00008b; stroke-width: 1.5; stroke-linecap: square"/>
   </g>
   <g id="line2d_11">
    <path d="M 45 289.38825 
L 324 289.38825 
" clip-path="url(#p78e176ff8a)" style="fill: none; stroke: #ff0000; stroke-width: 1.5; stroke-linecap: square"/>
   </g>
   <g id="line2d_12">
    <path d="M 45 292.655737 
L 324 292.655737 
" clip-path="url(#p78e176ff8a)" style="fill: none; stroke: #ff0000; stroke-width: 0.2; stroke-linecap: square"/>
   </g>
   <g id="line2d_13">
    <path d="M 45 286.120763 
L 324 286.120763 
" clip-path="url(#p78e176ff8a)" style="fill: none; stroke: #ff0000; stroke-width: 0.2; stroke-linecap: square"/>
   </g>
   <g id="patch_3">
    <path d="M 45 320.4 
L 45 43.2 
" style="fill: none; stroke: #000000; stroke-width: 3; stroke-linejoin: miter; stroke-linecap: square"/>
   </g>
   <g id="patch_4">
    <path d="M 324 320.4 
L 324 43.2 
" style="fill: none; stroke: #000000; stroke-width: 3; stroke-linejoin: miter; stroke-linecap: square"/>
   </g>
   <g id="patch_5">
    <path d="M 45 320.4 
L 324 320.4 
" style="fill: none; stroke: #000000; stroke-width: 3; stroke-linejoin: miter; stroke-linecap: square"/>
   </g>
   <g id="patch_6">
    <path d="M 45 43.2 
L 324 43.2 
" style="fill: none; stroke: #000000; stroke-width: 3; stroke-linejoin: miter; stroke-linecap: square"/>
   </g>
   <g id="text_12">
    <!-- desiccated water content -->
    <g style="fill: #ff0000" transform="translate(51.488372 306.54) scale(0.12 -0.12)">
     <defs>
      <path id="DejaVuSans-64" d="M 2906 2969 
L 2906 4863 
L 3481 4863 
L 3481 0 
L 2906 0 
L 2906 525 
Q 2725 213 2448 61 
Q 2172 -91 1784 -91 
Q 1150 -91 751 415 
Q 353 922 353 1747 
Q 353 2572 751 3078 
Q 1150 3584 1784 3584 
Q 2172 3584 2448 3432 
Q 2725 3281 2906 2969 
z
M 947 1747 
Q 947 1113 1208 752 
Q 1469 391 1925 391 
Q 2381 391 2643 752 
Q 2906 1113 2906 1747 
Q 2906 2381 2643 2742 
Q 2381 3103 1925 3103 
Q 1469 3103 1208 2742 
Q 947 2381 947 1747 
z
" transform="scale(0.015625)"/>
      <path id="DejaVuSans-63" d="M 3122 3366 
L 3122 2828 
Q 2878 2963 2633 3030 
Q 2388 3097 2138 3097 
Q 1578 3097 1268 2742 
Q 959 2388 959 1747 
Q 959 1106 1268 751 
Q 1578 397 2138 397 
Q 2388 397 2633 464 
Q 2878 531 3122 666 
L 3122 134 
Q 2881 22 2623 -34 
Q 2366 -91 2075 -91 
Q 1284 -91 818 406 
Q 353 903 353 1747 
Q 353 2603 823 3093 
Q 1294 3584 2113 3584 
Q 2378 3584 2631 3529 
Q 2884 3475 3122 3366 
z
" transform="scale(0.015625)"/>
      <path id="DejaVuSans-77" d="M 269 3500 
L 844 3500 
L 1563 769 
L 2278 3500 
L 2956 3500 
L 3675 769 
L 4391 3500 
L 4966 3500 
L 4050 0 
L 3372 0 
L 2619 2869 
L 1863 0 
L 1184 0 
L 269 3500 
z
" transform="scale(0.015625)"/>
      <path id="DejaVuSans-72" d="M 2631 2963 
Q 2534 3019 2420 3045 
Q 2306 3072 2169 3072 
Q 1681 3072 1420 2755 
Q 1159 2438 1159 1844 
L 1159 0 
L 581 0 
L 581 3500 
L 1159 3500 
L 1159 2956 
Q 1341 3275 1631 3429 
Q 1922 3584 2338 3584 
Q 2397 3584 2469 3576 
Q 2541 3569 2628 3553 
L 2631 2963 
z
" transform="scale(0.015625)"/>
      <path id="DejaVuSans-6f" d="M 1959 3097 
Q 1497 3097 1228 2736 
Q 959 2375 959 1747 
Q 959 1119 1226 758 
Q 1494 397 1959 397 
Q 2419 397 2687 759 
Q 2956 1122 2956 1747 
Q 2956 2369 2687 2733 
Q 2419 3097 1959 3097 
z
M 1959 3584 
Q 2709 3584 3137 3096 
Q 3566 2609 3566 1747 
Q 3566 888 3137 398 
Q 2709 -91 1959 -91 
Q 1206 -91 779 398 
Q 353 888 353 1747 
Q 353 2609 779 3096 
Q 1206 3584 1959 3584 
z
" transform="scale(0.015625)"/>
      <path id="DejaVuSans-6e" d="M 3513 2113 
L 3513 0 
L 2938 0 
L 2938 2094 
Q 2938 2591 2744 2837 
Q 2550 3084 2163 3084 
Q 1697 3084 1428 2787 
Q 1159 2491 1159 1978 
L 1159 0 
L 581 0 
L 581 3500 
L 1159 3500 
L 1159 2956 
Q 1366 3272 1645 3428 
Q 1925 3584 2291 3584 
Q 2894 3584 3203 3211 
Q 3513 2838 3513 2113 
z
" transform="scale(0.015625)"/>
     </defs>
     <use xlink:href="#DejaVuSans-64"/>
     <use xlink:href="#DejaVuSans-65" transform="translate(63.476562 0)"/>
     <use xlink:href="#DejaVuSans-73" transform="translate(125 0)"/>
     <use xlink:href="#DejaVuSans-69" transform="translate(177.099609 0)"/>
     <use xlink:href="#DejaVuSans-63" transform="translate(204.882812 0)"/>
     <use xlink:href="#DejaVuSans-63" transform="translate(259.863281 0)"/>
     <use xlink:href="#DejaVuSans-61" transform="translate(314.84375 0)"/>
     <use xlink:href="#DejaVuSans-74" transform="translate(376.123047 0)"/>
     <use xlink:href="#DejaVuSans-65" transform="translate(415.332031 0)"/>
     <use xlink:href="#DejaVuSans-64" transform="translate(476.855469 0)"/>
     <use xlink:href="#DejaVuSans-20" transform="translate(540.332031 0)"/>
     <use xlink:href="#DejaVuSans-77" transform="translate(572.119141 0)"/>
     <use xlink:href="#DejaVuSans-61" transform="translate(653.90625 0)"/>
     <use xlink:href="#DejaVuSans-74" transform="translate(715.185547 0)"/>
     <use xlink:href="#DejaVuSans-65" transform="translate(754.394531 0)"/>
     <use xlink:href="#DejaVuSans-72" transform="translate(815.917969 0)"/>
     <use xlink:href="#DejaVuSans-20" transform="translate(857.03125 0)"/>
     <use xlink:href="#DejaVuSans-63" transform="translate(888.818359 0)"/>
     <use xlink:href="#DejaVuSans-6f" transform="translate(943.798828 0)"/>
     <use xlink:href="#DejaVuSans-6e" transform="translate(1004.980469 0)"/>
     <use xlink:href="#DejaVuSans-74" transform="translate(1068.359375 0)"/>
     <use xlink:href="#DejaVuSans-65" transform="translate(1107.568359 0)"/>
     <use xlink:href="#DejaVuSans-6e" transform="translate(1169.091797 0)"/>
     <use xlink:href="#DejaVuSans-74" transform="translate(1232.470703 0)"/>
    </g>
   </g>
  </g>
 </g>
 <defs>
  <clipPath id="p78e176ff8a">
   <rect x="45" y="43.2" width="279" height="277.2"/>
  </clipPath>
 </defs>
</svg>
