<?xml version="1.0" encoding="utf-8" standalone="no"?>
<!DOCTYPE svg PUBLIC "-//W3C//DTD SVG 1.1//EN"
  "http://www.w3.org/Graphics/SVG/1.1/DTD/svg11.dtd">
<svg xmlns:xlink="http://www.w3.org/1999/xlink" width="360pt" height="360pt" viewBox="0 0 360 360" xmlns="http://www.w3.org/2000/svg" version="1.1">
 <metadata>
  <rdf:RDF xmlns:dc="http://purl.org/dc/elements/1.1/" xmlns:cc="http://creativecommons.org/ns#" xmlns:rdf="http://www.w3.org/1999/02/22-rdf-syntax-ns#">
   <cc:Work>
    <dc:type rdf:resource="http://purl.org/dc/dcmitype/StillImage"/>
    <dc:date>2024-09-18T11:40:37.730554</dc:date>
    <dc:format>image/svg+xml</dc:format>
    <dc:creator>
     <cc:Agent>
      <dc:title>Matplotlib v3.5.2, https://matplotlib.org/</dc:title>
     </cc:Agent>
    </dc:creator>
   </cc:Work>
  </rdf:RDF>
 </metadata>
 <defs>
  <style type="text/css">*{stroke-linejoin: round; stroke-linecap: butt}</style>
 </defs>
 <g id="figure_1">
  <g id="patch_1">
   <path d="M 0 360 
L 360 360 
L 360 0 
L 0 0 
z
" style="fill: #ffffff"/>
  </g>
  <g id="axes_1">
   <g id="patch_2">
    <path d="M 45 315 
L 324 315 
L 324 43.2 
L 45 43.2 
z
" style="fill: #ffffff"/>
   </g>
   <g id="patch_3">
    <path d="M 58.95 315 
L 170.55 315 
L 170.55 113.718031 
L 58.95 113.718031 
z
" clip-path="url(#p295e8f971e)" style="fill: #808080; opacity: 0.85; stroke: #000000; stroke-linejoin: miter"/>
   </g>
   <g id="patch_4">
    <path d="M 198.45 315 
L 310.05 315 
L 310.05 241.329786 
L 198.45 241.329786 
z
" clip-path="url(#p295e8f971e)" style="fill: #5573cd; opacity: 0.85; stroke: #000000; stroke-linejoin: miter"/>
   </g>
   <g id="matplotlib.axis_1">
    <g id="xtick_1">
     <g id="line2d_1">
      <defs>
       <path id="m2538325847" d="M 0 0 
L 0 10 
" style="stroke: #000000; stroke-width: 3"/>
      </defs>
      <g>
       <use xlink:href="#m2538325847" x="114.75" y="315" style="stroke: #000000; stroke-width: 3"/>
      </g>
     </g>
     <g id="text_1">
      <text style="font: 20px 'sans-serif'; text-anchor: middle" x="114.75" y="343.696875" transform="rotate(-0, 114.75, 343.696875)">total</text>
     </g>
    </g>
    <g id="xtick_2">
     <g id="line2d_2">
      <g>
       <use xlink:href="#m2538325847" x="254.25" y="315" style="stroke: #000000; stroke-width: 3"/>
      </g>
     </g>
     <g id="text_2">
      <text style="font: 20px 'sans-serif'; text-anchor: middle" x="254.25" y="343.696875" transform="rotate(-0, 254.25, 343.696875)">supernatant</text>
     </g>
    </g>
   </g>
   <g id="matplotlib.axis_2">
    <g id="ytick_1">
     <g id="line2d_3">
      <defs>
       <path id="me3cd3591f6" d="M 0 0 
L -10 0 
" style="stroke: #000000; stroke-width: 3"/>
      </defs>
      <g>
       <use xlink:href="#me3cd3591f6" x="45" y="315" style="stroke: #000000; stroke-width: 3"/>
      </g>
     </g>
     <g id="text_3">
      <text style="font: 20px 'sans-serif'; text-anchor: end" x="31.5" y="322.598437" transform="rotate(-0, 31.5, 322.598437)">0.00</text>
     </g>
    </g>
    <g id="ytick_2">
     <g id="line2d_4">
      <g>
       <use xlink:href="#me3cd3591f6" x="45" y="264.679508" style="stroke: #000000; stroke-width: 3"/>
      </g>
     </g>
     <g id="text_4">
      <text style="font: 20px 'sans-serif'; text-anchor: end" x="31.5" y="272.277945" transform="rotate(-0, 31.5, 272.277945)">0.25</text>
     </g>
    </g>
    <g id="ytick_3">
     <g id="line2d_5">
      <g>
       <use xlink:href="#me3cd3591f6" x="45" y="214.359016" style="stroke: #000000; stroke-width: 3"/>
      </g>
     </g>
     <g id="text_5">
      <text style="font: 20px 'sans-serif'; text-anchor: end" x="31.5" y="221.957453" transform="rotate(-0, 31.5, 221.957453)">0.50</text>
     </g>
    </g>
    <g id="ytick_4">
     <g id="line2d_6">
      <g>
       <use xlink:href="#me3cd3591f6" x="45" y="164.038523" style="stroke: #000000; stroke-width: 3"/>
      </g>
     </g>
     <g id="text_6">
      <text style="font: 20px 'sans-serif'; text-anchor: end" x="31.5" y="171.636961" transform="rotate(-0, 31.5, 171.636961)">0.75</text>
     </g>
    </g>
    <g id="ytick_5">
     <g id="line2d_7">
      <g>
       <use xlink:href="#me3cd3591f6" x="45" y="113.718031" style="stroke: #000000; stroke-width: 3"/>
      </g>
     </g>
     <g id="text_7">
      <text style="font: 20px 'sans-serif'; text-anchor: end" x="31.5" y="121.316469" transform="rotate(-0, 31.5, 121.316469)">1.00</text>
     </g>
    </g>
    <g id="ytick_6">
     <g id="line2d_8">
      <g>
       <use xlink:href="#me3cd3591f6" x="45" y="63.397539" style="stroke: #000000; stroke-width: 3"/>
      </g>
     </g>
     <g id="text_8">
      <text style="font: 20px 'sans-serif'; text-anchor: end" x="31.5" y="70.995976" transform="rotate(-0, 31.5, 70.995976)">1.25</text>
     </g>
    </g>
    <g id="text_9">
     <text style="font: 20px 'sans-serif'; text-anchor: middle" x="-21.190625" y="179.1" transform="rotate(-90, -21.190625, 179.1)">Relative RNA mass</text>
    </g>
   </g>
   <g id="line2d_9">
    <path d="M 114.75 118.36575 
L 114.75 109.785346 
" clip-path="url(#p295e8f971e)" style="fill: none; stroke: #424242; stroke-width: 2.7; stroke-linecap: square"/>
   </g>
   <g id="line2d_10">
    <path d="M 107.775 118.36575 
L 121.725 118.36575 
" clip-path="url(#p295e8f971e)" style="fill: none; stroke: #424242; stroke-width: 2.7; stroke-linecap: square"/>
   </g>
   <g id="line2d_11">
    <path d="M 107.775 109.785346 
L 121.725 109.785346 
" clip-path="url(#p295e8f971e)" style="fill: none; stroke: #424242; stroke-width: 2.7; stroke-linecap: square"/>
   </g>
   <g id="line2d_12">
    <path d="M 254.25 245.386411 
L 254.25 236.717432 
" clip-path="url(#p295e8f971e)" style="fill: none; stroke: #424242; stroke-width: 2.7; stroke-linecap: square"/>
   </g>
   <g id="line2d_13">
    <path d="M 247.275 245.386411 
L 261.225 245.386411 
" clip-path="url(#p295e8f971e)" style="fill: none; stroke: #424242; stroke-width: 2.7; stroke-linecap: square"/>
   </g>
   <g id="line2d_14">
    <path d="M 247.275 236.717432 
L 261.225 236.717432 
" clip-path="url(#p295e8f971e)" style="fill: none; stroke: #424242; stroke-width: 2.7; stroke-linecap: square"/>
   </g>
   <g id="line2d_15">
    <path d="M 114.75 93.520492 
L 114.75 83.456394 
L 254.25 83.456394 
L 254.25 93.520492 
" clip-path="url(#p295e8f971e)" style="fill: none; stroke: #000000; stroke-width: 1.5; stroke-linecap: square"/>
   </g>
   <g id="patch_5">
    <path d="M 45 315 
L 45 43.2 
" style="fill: none; stroke: #000000; stroke-width: 3; stroke-linejoin: miter; stroke-linecap: square"/>
   </g>
   <g id="patch_6">
    <path d="M 324 315 
L 324 43.2 
" style="fill: none; stroke: #000000; stroke-width: 3; stroke-linejoin: miter; stroke-linecap: square"/>
   </g>
   <g id="patch_7">
    <path d="M 45 315 
L 324 315 
" style="fill: none; stroke: #000000; stroke-width: 3; stroke-linejoin: miter; stroke-linecap: square"/>
   </g>
   <g id="patch_8">
    <path d="M 45 43.2 
L 324 43.2 
" style="fill: none; stroke: #000000; stroke-width: 3; stroke-linejoin: miter; stroke-linecap: square"/>
   </g>
   <g id="PathCollection_1">
    <defs>
     <path id="C0_0_56c4de2c2a" d="M 0 2.5 
C 0.663008 2.5 1.29895 2.236584 1.767767 1.767767 
C 2.236584 1.29895 2.5 0.663008 2.5 -0 
C 2.5 -0.663008 2.236584 -1.29895 1.767767 -1.767767 
C 1.29895 -2.236584 0.663008 -2.5 0 -2.5 
C -0.663008 -2.5 -1.29895 -2.236584 -1.767767 -1.767767 
C -2.236584 -1.29895 -2.5 -0.663008 -2.5 0 
C -2.5 0.663008 -2.236584 1.29895 -1.767767 1.767767 
C -1.29895 2.236584 -0.663008 2.5 0 2.5 
z
"/>
    </defs>
    <g clip-path="url(#p295e8f971e)">
     <use xlink:href="#C0_0_56c4de2c2a" x="114.75" y="118.36575"/>
    </g>
    <g clip-path="url(#p295e8f971e)">
     <use xlink:href="#C0_0_56c4de2c2a" x="114.75" y="113.002997"/>
    </g>
    <g clip-path="url(#p295e8f971e)">
     <use xlink:href="#C0_0_56c4de2c2a" x="111.683952" y="109.785346"/>
    </g>
   </g>
   <g id="PathCollection_2">
    <defs>
     <path id="C1_0_e43478f0d1" d="M 0 2.5 
C 0.663008 2.5 1.29895 2.236584 1.767767 1.767767 
C 2.236584 1.29895 2.5 0.663008 2.5 -0 
C 2.5 -0.663008 2.236584 -1.29895 1.767767 -1.767767 
C 1.29895 -2.236584 0.663008 -2.5 0 -2.5 
C -0.663008 -2.5 -1.29895 -2.236584 -1.767767 -1.767767 
C -2.236584 -1.29895 -2.5 -0.663008 -2.5 0 
C -2.5 0.663008 -2.236584 1.29895 -1.767767 1.767767 
C -1.29895 2.236584 -0.663008 2.5 0 2.5 
z
"/>
    </defs>
    <g clip-path="url(#p295e8f971e)">
     <use xlink:href="#C1_0_e43478f0d1" x="254.25" y="248.805761"/>
    </g>
    <g clip-path="url(#p295e8f971e)">
     <use xlink:href="#C1_0_e43478f0d1" x="250.229573" y="246.256666"/>
    </g>
    <g clip-path="url(#p295e8f971e)">
     <use xlink:href="#C1_0_e43478f0d1" x="254.25" y="243.666457"/>
    </g>
    <g clip-path="url(#p295e8f971e)">
     <use xlink:href="#C1_0_e43478f0d1" x="250.275939" y="241.076247"/>
    </g>
    <g clip-path="url(#p295e8f971e)">
     <use xlink:href="#C1_0_e43478f0d1" x="254.25" y="234.991311"/>
    </g>
    <g clip-path="url(#p295e8f971e)">
     <use xlink:href="#C1_0_e43478f0d1" x="249.578635" y="233.182276"/>
    </g>
   </g>
   <g id="text_10">
    <!--  p-value &lt; $10^{-8}$ -->
    <g transform="translate(105.9 79.256394)">
     <text>
      <tspan style="font: 20px 'DejaVu Sans'" x="0 6.357422 19.052734 26.269531 38.105469 50.361328 55.917969 68.59375 80.898438 87.255859 104.013672 110.371094 123.095703" y="-0.953125"> p-value &lt; 10</tspan>
      <tspan style="font: 14px 'DejaVu Sans'" x="136.011719 147.742188" y="-8.609375">−8</tspan>
     </text>
    </g>
   </g>
  </g>
 </g>
 <defs>
  <clipPath id="p295e8f971e">
   <rect x="45" y="43.2" width="279" height="271.8"/>
  </clipPath>
 </defs>
</svg>
